SplineFontDB: 2.0
FontName: MScore-20
FullName: Emmentaler 20 from Lilypond
FamilyName: MScore
Weight: 20
Copyright: This font is distributed under the GNU General Public License. As a special exception, if you create a document which uses this font, and embed this font or unaltered portions of this font into the document, this font does not by itself cause the resulting document to be covered by the GNU General Public License.
Version: @TOPLEVEL_VERSION@
ItalicAngle: 0
UnderlinePosition: -99
UnderlineWidth: 49
Ascent: 600
Descent: 400
XUID: [1021 437 116440368 12789435]
UniqueID: 4131153
FSType: 0
OS2Version: 2
OS2_WeightWidthSlopeOnly: 0
OS2_UseTypoMetrics: 1
CreationTime: 1122244955
ModificationTime: 1189857256
PfmFamily: 17
TTFWeight: 400
TTFWidth: 5
LineGap: 90
VLineGap: 0
Panose: 2 0 5 3 0 0 0 0 0 0
OS2TypoAscent: 0
OS2TypoAOffset: 1
OS2TypoDescent: 0
OS2TypoDOffset: 1
OS2TypoLinegap: 90
OS2WinAscent: 0
OS2WinAOffset: 1
OS2WinDescent: 0
OS2WinDOffset: 1
HheadAscent: 0
HheadAOffset: 1
HheadDescent: 0
HheadDOffset: 1
OS2SubXSize: 650
OS2SubYSize: 700
OS2SubXOff: 0
OS2SubYOff: 140
OS2SupXSize: 650
OS2SupYSize: 700
OS2SupXOff: 0
OS2SupYOff: 480
OS2StrikeYSize: 48
OS2StrikeYPos: 258
OS2Vendor: 'PfEd'
LangName: 1033 
Encoding: UnicodeBmp
UnicodeInterp: none
NameList: Adobe Glyph List
DisplaySize: -96
AntiAlias: 1
FitToEm: 1
WinInfo: 57584 8 8
BeginPrivate: 8
BlueValues 30 [-4 0 266 292 472 472 500 500]
OtherBlues 11 [-146 -146]
BlueScale 8 0.039625
BlueShift 2 16
BlueFuzz 1 2
StdHW 4 [72]
StdVW 4 [28]
ExpansionFactor 4 0.06
EndPrivate
TeXData: 1 0 0 262144 131072 87381 276824 1048576 87381 783286 444596 497025 792723 393216 433062 380633 303038 157286 324010 404750 52429 2506097 1059062 262144
BeginChars: 65537 381
StartChar: plus
Encoding: 43 43 2
Width: 250
GlyphClass: 2
Flags: HMW
HStem: 224 52<38 100 60 100 152 190>
VStem: 100 52<184 224 163 224 276 316>
Fore
116 374 m 1
 126 376 140 372 146 364 c 1
 152 360 152 356 152 316 c 2
 152 276 l 1
 190 276 l 2
 232 276 234 276 240 272 c 1
 242 268 244 266 248 264 c 1
 248 260 250 256 250 252 c 0
 250 244 248 242 248 238 c 1
 244 236 242 232 240 230 c 0
 234 224 232 224 190 224 c 2
 152 224 l 1
 152 184 l 2
 152 142 152 140 146 136 c 1
 144 132 140 130 138 128 c 1
 134 126 132 126 126 126 c 0
 120 126 116 126 112 128 c 1
 104 136 l 2
 100 140 100 142 100 184 c 2
 100 224 l 1
 60 224 l 2
 16 224 16 224 10 230 c 0
 8 232 4 236 4 238 c 2
 0 242 0 244 0 252 c 0
 0 256 0 260 4 264 c 1
 4 266 8 268 10 272 c 1
 16 276 16 276 60 276 c 2
 100 276 l 1
 100 316 l 1
 100 358 l 1
 104 362 l 1
 106 368 112 372 116 374 c 1
EndSplineSet
EndChar
StartChar: comma
Encoding: 44 44 3
Width: 113
GlyphClass: 2
Flags: HMW
HStem: -156 272
VStem: 2 114
Fore
48 114 m 1
 48 116 56 116 60 116 c 0
 76 114 88 108 98 98 c 0
 112 84 116 64 116 36 c 0
 112 -16 96 -64 66 -132 c 0
 56 -152 56 -154 52 -156 c 0
 42 -160 28 -152 28 -144 c 0
 28 -142 32 -136 32 -132 c 1
 34 -128 40 -116 44 -104 c 0
 64 -62 70 -36 64 -20 c 0
 60 -8 56 -4 38 4 c 0
 26 8 24 12 16 16 c 1
 10 24 6 32 2 40 c 1
 0 48 0 66 4 76 c 0
 10 96 26 108 48 114 c 1
EndSplineSet
EndChar
StartChar: hyphen
Encoding: 45 45 4
Width: 165
GlyphClass: 2
Flags: HMW
HStem: 152 28<50 84 84 124>
VStem: 0 164<164 170>
Fore
8 180 m 1
 84 180 l 2
 164 180 160 180 164 176 c 0
 168 172 168 162 164 158 c 0
 160 152 164 152 84 152 c 0
 16 152 12 152 8 154 c 0
 4 156 0 160 0 168 c 0
 0 172 4 176 8 180 c 1
EndSplineSet
EndChar
StartChar: period
Encoding: 46 46 5
Width: 113
GlyphClass: 2
Flags: HMW
HStem: 2 110
VStem: 2 110
Fore
44 112 m 0
 64 118 84 112 98 98 c 0
 112 84 118 64 112 44 c 0
 110 32 106 24 98 16 c 1
 92 8 82 4 72 2 c 0
 52 -4 32 4 16 16 c 1
 4 32 -4 52 2 72 c 0
 4 82 8 92 16 98 c 1
 24 106 32 110 44 112 c 0
EndSplineSet
EndChar
StartChar: zero
Encoding: 48 48 6
Width: 365
GlyphClass: 2
Flags: HMW
HStem: 0 42G<174 194> 460 40G<164 188 188 200>
VStem: 2 114<215 288> 250 116
Fore
164 500 m 1
 188 500 l 2
 212 500 228 496 252 484 c 0
 286 468 314 436 336 394 c 0
 348 368 356 342 360 312 c 0
 366 288 366 278 366 250 c 0
 366 216 364 192 356 160 c 0
 340 104 310 56 272 28 c 0
 260 20 242 12 232 8 c 0
 214 2 204 0 184 0 c 0
 164 0 152 2 136 8 c 0
 124 12 106 20 96 28 c 0
 44 64 12 130 2 212 c 0
 0 228 0 272 2 288 c 0
 8 328 16 362 32 394 c 0
 62 454 108 492 164 500 c 1
196 468 m 1
 188 472 178 472 170 468 c 1
 144 462 128 434 120 382 c 0
 116 360 116 344 116 266 c 0
 116 164 116 136 122 106 c 0
 128 76 136 54 148 42 c 0
 168 24 200 24 218 42 c 0
 232 54 240 76 244 106 c 0
 248 124 248 134 250 160 c 0
 252 192 252 344 248 360 c 1
 244 428 228 462 196 468 c 1
EndSplineSet
EndChar
StartChar: one
Encoding: 49 49 7
Width: 317
GlyphClass: 2
Flags: HMW
VStem: 116 116<241 302 302 368 368 368>
Fore
120 502 m 0
 122 504 126 504 144 496 c 0
 168 484 180 484 208 496 c 1
 212 500 220 500 220 500 c 1
 224 500 228 496 232 492 c 1
 232 302 l 2
 232 180 232 112 234 104 c 0
 238 66 260 36 288 26 c 0
 292 24 298 24 302 24 c 0
 312 24 312 22 316 18 c 0
 320 12 318 4 312 2 c 0
 306 0 288 0 240 8 c 0
 204 12 192 12 176 12 c 0
 160 12 146 12 110 8 c 0
 64 0 44 0 38 2 c 0
 32 4 30 12 34 18 c 0
 36 22 38 24 48 24 c 0
 52 24 60 24 62 26 c 2
 92 36 112 66 116 104 c 2
 116 368 l 1
 112 380 100 384 92 378 c 1
 92 376 76 344 58 306 c 0
 40 268 24 236 24 234 c 1
 14 224 -4 232 -2 244 c 1
 0 248 16 284 58 376 c 0
 90 444 118 500 120 502 c 0
EndSplineSet
EndChar
StartChar: two
Encoding: 50 50 8
Width: 365
GlyphClass: 2
Flags: HMW
HStem: 0 42G<222 238>
VStem: 0 368
Fore
148 500 m 0
 156 500 190 500 200 498 c 0
 224 494 248 488 268 476 c 0
 310 456 338 424 348 384 c 0
 352 374 352 372 352 354 c 0
 352 332 352 326 346 308 c 0
 336 270 312 240 272 216 c 0
 252 204 232 192 180 172 c 0
 168 168 152 160 142 156 c 0
 124 148 104 136 104 136 c 1
 114 136 l 1
 124 140 146 138 160 136 c 0
 184 130 208 120 232 104 c 0
 248 92 256 88 268 84 c 0
 288 76 310 76 324 84 c 1
 336 88 340 96 344 108 c 0
 346 114 350 116 356 116 c 0
 360 116 368 112 368 106 c 0
 368 102 360 84 356 76 c 0
 338 40 300 12 258 4 c 2
 250 0 244 0 232 0 c 0
 212 0 204 2 188 6 c 0
 168 12 154 22 136 40 c 0
 116 60 108 64 88 66 c 0
 70 68 52 60 40 48 c 0
 32 40 28 28 24 16 c 1
 22 4 20 4 16 0 c 1
 12 -2 4 0 0 8 c 0
 -2 14 4 44 12 64 c 0
 22 88 42 116 68 140 c 0
 84 152 92 160 118 178 c 0
 180 224 202 246 220 280 c 0
 224 288 230 308 232 318 c 0
 240 360 234 414 218 444 c 0
 204 468 184 478 160 476 c 0
 140 476 124 468 116 454 c 1
 116 440 l 2
 116 430 118 424 132 406 c 0
 138 398 144 390 146 386 c 0
 148 380 148 380 148 370 c 0
 148 352 142 336 128 324 c 1
 122 316 118 314 112 312 c 0
 90 300 72 300 50 312 c 0
 42 316 40 316 32 324 c 0
 26 330 24 334 20 340 c 1
 12 360 10 380 16 404 c 0
 32 456 84 492 148 500 c 0
EndSplineSet
EndChar
StartChar: three
Encoding: 51 51 9
Width: 331
GlyphClass: 2
Flags: HMW
HStem: 0 24<164 164> 250 30<126 146> 476 24<128 168>
VStem: 216 100<368 408> 216 116<117 134 117 192 117 192>
Fore
128 500 m 1xf0
 140 500 176 500 192 498 c 0
 252 490 294 464 310 428 c 0
 316 412 316 404 316 380 c 0xf0
 316 356 316 344 312 332 c 0
 308 312 296 296 280 288 c 0
 270 284 268 280 264 272 c 0
 260 264 264 252 270 248 c 1
 272 244 276 242 282 240 c 0
 300 230 312 218 320 200 c 0
 330 180 334 160 332 134 c 0
 332 100 320 72 296 48 c 0
 266 20 220 2 164 0 c 0
 108 0 60 16 28 44 c 1
 16 60 8 72 4 88 c 2
 0 96 0 100 0 112 c 0
 0 124 0 126 4 134 c 0
 10 152 26 168 44 176 c 0
 52 178 56 178 66 178 c 0
 76 178 80 178 86 176 c 0
 112 168 128 144 132 118 c 1
 132 104 128 100 112 86 c 1
 104 82 100 76 96 76 c 1
 86 62 90 44 106 34 c 0
 120 24 150 20 166 24 c 0
 194 32 210 62 216 116 c 2xe8
 216 192 l 2
 212 228 202 244 180 248 c 1
 176 250 164 250 128 250 c 0
 80 250 80 250 76 256 c 0
 72 260 72 268 76 272 c 1
 78 280 78 280 126 280 c 2
 176 280 l 1
 186 282 192 284 200 290 c 1
 208 300 210 308 214 326 c 0
 216 338 216 390 216 408 c 0
 210 456 188 476 148 476 c 0
 124 476 102 468 96 456 c 1
 92 452 92 452 92 444 c 0
 92 438 92 436 94 432 c 0
 96 428 100 428 114 416 c 1
 118 414 122 410 124 408 c 1
 126 404 126 402 126 394 c 0
 126 372 112 352 88 342 c 0
 80 340 62 338 52 340 c 1
 34 348 20 360 14 380 c 0
 12 384 12 388 12 398 c 0
 12 412 14 420 20 432 c 0
 36 468 78 492 128 500 c 1xf0
EndSplineSet
EndChar
StartChar: four
Encoding: 52 52 10
Width: 399
GlyphClass: 2
Flags: HMW
HStem: 124 30<66 108 108 112 112 196 312 352>
VStem: 196 116<120 124 116 124 154 224 224 260> 292 20
Fore
296 500 m 0xc0
 304 504 316 496 316 488 c 1
 172 320 l 2
 94 228 30 156 30 154 c 1
 112 154 l 1
 196 154 l 1
 196 224 l 2xc0
 196 296 196 296 200 300 c 2
 200 304 204 308 216 316 c 0
 256 342 268 356 284 396 c 2
 288 402 292 408 292 410 c 1xa0
 296 412 304 414 308 412 c 1
 312 408 312 416 312 278 c 2
 312 154 l 1
 352 154 l 2
 384 154 388 154 392 152 c 0
 396 150 400 146 400 140 c 0
 400 132 396 128 392 128 c 2
 388 124 384 124 352 124 c 2
 312 124 l 1
 312 120 l 2
 312 112 314 96 316 88 c 0
 326 50 350 26 380 24 c 0
 392 24 392 22 396 18 c 0
 400 12 396 4 392 2 c 1
 384 0 366 0 320 8 c 0
 258 16 250 16 188 8 c 0
 142 0 124 0 116 2 c 1
 112 4 108 12 112 18 c 0
 116 22 116 24 128 24 c 0
 148 24 164 36 178 56 c 0
 188 72 196 96 196 120 c 2
 196 124 l 1
 108 124 l 2
 24 124 22 124 16 128 c 1
 4 130 -2 140 -2 148 c 0
 -2 152 0 154 8 164 c 0
 58 224 94 288 116 350 c 0
 128 392 136 422 138 476 c 0
 140 490 140 492 140 494 c 1
 146 500 148 500 168 496 c 0
 198 488 204 488 224 488 c 2
 252 488 l 1
 264 492 292 498 296 500 c 0xc0
EndSplineSet
EndChar
StartChar: five
Encoding: 53 53 11
Width: 335
GlyphClass: 2
Flags: HMW
HStem: 2 22 292 28<142 204 168 176> 460 40G<41 43 327 330>
VStem: 28 30 232 116
Fore
36 498 m 1
 40 500 40 500 42 500 c 0
 44 500 54 498 68 496 c 0
 154 484 218 484 308 498 c 0
 318 500 326 500 328 500 c 0
 332 500 338 494 340 490 c 1
 340 486 338 484 328 474 c 0
 278 430 214 404 136 394 c 0
 120 392 88 390 74 390 c 0
 68 390 64 388 60 380 c 0
 58 376 58 376 58 328 c 2
 58 278 l 1
 66 284 l 2
 86 302 108 312 134 318 c 0
 144 320 148 320 168 320 c 2
 204 320 l 2
 292 308 340 262 348 180 c 0
 352 148 346 120 332 94 c 0
 324 80 316 68 304 56 c 0
 276 28 240 12 198 4 c 0
 180 0 146 0 128 2 c 0
 68 12 24 40 8 76 c 0
 2 90 0 96 0 112 c 0
 0 124 0 126 4 134 c 0
 10 152 26 168 44 176 c 0
 52 178 56 178 66 178 c 0
 76 178 80 178 86 176 c 0
 112 168 128 144 132 118 c 1
 132 104 128 100 112 86 c 0
 100 76 96 74 92 68 c 0
 88 60 92 48 98 40 c 1
 108 30 132 24 160 24 c 0
 192 24 212 42 224 84 c 0
 230 104 232 138 232 172 c 0
 230 242 212 282 176 292 c 1
 156 292 l 2
 128 292 108 286 88 276 c 0
 76 270 68 264 60 252 c 0
 54 244 52 244 48 242 c 1
 40 240 32 244 30 250 c 1
 28 252 28 272 28 370 c 2
 28 488 l 1
 32 492 l 1
 32 492 36 496 36 498 c 1
EndSplineSet
EndChar
StartChar: six
Encoding: 54 54 12
Width: 339
GlyphClass: 2
Flags: HMW
HStem: 0 42G<163 180> 256 22 476 24<175 188 188 192>
VStem: 232 108<129 152 129 160>
Fore
174 500 m 2
 188 500 l 2
 226 500 264 488 288 470 c 0
 308 456 320 440 324 420 c 2
 328 412 328 410 328 398 c 0
 328 386 328 384 324 376 c 0
 318 356 302 340 284 334 c 0
 276 332 272 332 264 332 c 0
 252 332 248 332 242 334 c 0
 216 344 198 368 198 394 c 0
 198 404 198 404 200 408 c 1
 208 416 l 1
 212 418 218 422 222 424 c 1
 226 428 232 432 232 436 c 1
 236 440 236 440 236 446 c 0
 236 452 236 454 232 458 c 0
 228 464 224 468 216 472 c 0
 208 476 198 476 186 476 c 0
 164 476 148 468 136 450 c 0
 120 424 114 392 116 312 c 2
 116 266 l 1
 126 270 l 2
 132 272 140 274 146 276 c 0
 156 278 158 278 176 278 c 0
 204 278 228 276 250 268 c 0
 292 252 320 228 332 190 c 0
 338 172 340 164 340 140 c 0
 340 118 338 108 332 92 c 0
 326 72 318 60 304 44 c 0
 280 22 248 8 204 2 c 2
 200 0 186 0 174 0 c 0
 152 0 144 2 128 8 c 0
 60 28 16 100 2 206 c 0
 0 224 0 270 2 286 c 0
 8 338 24 382 48 418 c 0
 76 460 116 488 160 496 c 0
 166 498 172 500 174 500 c 2
184 256 m 0
 172 258 156 256 144 250 c 0
 128 242 120 224 118 192 c 0
 116 176 116 104 118 88 c 0
 120 62 124 48 134 36 c 0
 148 22 178 18 200 30 c 0
 212 36 220 48 224 68 c 0
 230 88 232 98 232 140 c 0
 232 180 230 192 224 210 c 1
 220 236 206 250 184 256 c 0
EndSplineSet
EndChar
StartChar: seven
Encoding: 55 55 13
Width: 365
GlyphClass: 2
Flags: HMW
HStem: -4 42G<36 40 194 198> 460 40G<351 358>
VStem: 0 28<258 433>
Fore
8 498 m 1
 12 500 20 500 24 496 c 1
 28 494 28 490 28 478 c 0
 28 470 28 468 32 464 c 1
 32 460 40 456 40 456 c 1
 42 456 44 458 48 460 c 1
 80 500 128 512 176 486 c 0
 188 480 196 472 208 462 c 0
 226 448 240 442 260 444 c 0
 288 444 314 460 336 488 c 0
 344 500 348 500 354 500 c 0
 362 500 368 492 368 484 c 1
 366 480 364 478 360 472 c 0
 348 452 312 398 302 384 c 0
 242 284 212 208 200 128 c 1
 200 88 l 2
 200 60 200 50 204 24 c 1
 208 12 208 8 206 6 c 1
 204 0 200 -4 196 -4 c 0
 192 -4 184 0 174 2 c 0
 144 12 136 12 116 12 c 0
 96 12 90 12 60 2 c 2
 48 0 40 -4 40 -4 c 1
 32 -4 26 4 26 8 c 0
 26 12 36 36 52 68 c 0
 90 144 134 212 216 324 c 2
 242 360 l 1
 248 368 l 1
 248 368 246 368 244 366 c 1
 236 362 220 356 212 354 c 0
 200 352 178 352 168 356 c 0
 152 360 140 366 126 380 c 0
 104 400 84 412 66 412 c 1
 52 410 40 400 36 380 c 1
 30 364 28 356 28 308 c 2
 28 258 l 1
 24 252 20 252 16 252 c 0
 8 252 4 252 2 258 c 1
 0 260 0 268 0 376 c 0
 0 490 0 492 4 494 c 1
 4 496 6 496 8 498 c 1
EndSplineSet
EndChar
StartChar: eight
Encoding: 56 56 14
Width: 365
GlyphClass: 2
Flags: HMW
HStem: 476 24<164 180>
VStem: 4 356
Fore
164 500 m 0
 178 500 212 500 226 498 c 0
 268 492 302 476 324 454 c 0
 348 432 356 404 350 372 c 0
 346 344 328 312 298 280 c 1
 288 272 l 1
 296 266 l 2
 314 256 328 244 340 230 c 0
 374 188 382 136 360 90 c 0
 336 44 288 12 220 2 c 0
 204 0 164 0 148 2 c 0
 108 8 72 24 46 44 c 0
 8 76 -8 128 4 172 c 0
 12 192 26 210 56 240 c 2
 76 260 l 1
 70 264 l 2
 54 276 36 296 28 314 c 0
 6 356 12 406 44 444 c 0
 72 474 112 494 164 500 c 0
222 474 m 0
 208 476 184 476 176 476 c 1
 160 472 148 466 136 456 c 1
 124 442 116 428 116 410 c 0
 116 392 120 376 132 364 c 0
 140 356 146 354 200 324 c 0
 230 304 256 290 258 288 c 1
 260 288 282 314 292 332 c 0
 302 348 308 366 308 384 c 0
 312 428 278 464 222 474 c 0
170 204 m 0
 136 224 108 240 106 240 c 0
 104 240 72 208 68 200 c 2
 50 178 44 156 44 134 c 0
 46 108 56 84 76 64 c 0
 96 44 120 32 152 26 c 0
 162 24 166 24 182 24 c 0
 196 24 200 24 208 26 c 0
 224 30 238 40 248 48 c 1
 280 84 276 140 240 164 c 0
 236 168 204 184 170 204 c 0
EndSplineSet
EndChar
StartChar: nine
Encoding: 57 57 15
Width: 339
GlyphClass: 2
Flags: HMW
HStem: 476 24<148 168 148 184>
VStem: 0 110<348 371>
Fore
148 500 m 0
 160 500 190 500 200 496 c 2
 224 492 248 480 268 460 c 0
 284 442 296 426 308 402 c 0
 324 370 332 336 338 294 c 0
 340 276 340 230 338 214 c 0
 332 162 316 118 292 82 c 0
 268 46 236 20 200 8 c 0
 138 -12 58 8 28 56 c 0
 22 64 18 70 16 80 c 2
 12 88 12 90 12 102 c 0
 12 114 12 116 16 124 c 0
 22 144 38 160 56 166 c 0
 64 168 68 168 78 168 c 0
 88 168 92 168 98 166 c 0
 124 156 142 132 142 106 c 0
 142 96 142 96 140 92 c 1
 132 84 l 1
 128 82 122 78 118 76 c 1
 114 72 108 68 108 64 c 1
 104 60 104 60 104 54 c 0
 104 48 104 46 108 42 c 0
 112 36 116 32 124 28 c 0
 132 24 142 24 154 24 c 0
 176 24 192 32 204 50 c 0
 220 76 226 108 224 188 c 2
 224 234 l 1
 214 230 l 2
 208 228 200 226 194 224 c 0
 184 222 182 222 164 222 c 0
 136 222 112 224 90 232 c 0
 48 248 20 272 8 310 c 0
 2 328 0 336 0 360 c 0
 0 382 2 392 8 408 c 0
 14 428 22 440 36 456 c 0
 62 480 96 494 148 500 c 0
184 476 m 1
 168 476 l 2
 140 476 122 462 116 432 c 0
 110 412 110 402 110 360 c 0
 110 320 110 308 116 290 c 0
 120 270 128 256 140 252 c 1
 162 240 192 244 206 258 c 0
 216 268 220 284 222 308 c 0
 224 324 224 396 222 412 c 0
 220 452 208 470 184 476 c 1
EndSplineSet
EndChar
StartChar: f
Encoding: 102 102 16
Width: 319
GlyphClass: 2
Flags: HMW
HStem: 244 40<70 136 70 136 104 126 264 288 288 292 292 306> 436 36<345 352 352 358>
VStem: -102 58<-127 -99>
Fore
332 472 m 2
 352 472 l 2
 370 472 382 468 396 462 c 0
 424 448 436 428 436 402 c 0
 436 392 436 378 432 368 c 0
 428 352 416 336 404 332 c 1
 382 320 352 330 344 354 c 0
 340 362 340 376 344 384 c 0
 346 388 352 392 360 396 c 0
 372 404 378 412 380 420 c 1
 380 432 376 434 358 436 c 0
 332 436 316 428 304 408 c 0
 290 388 282 364 268 308 c 1
 268 296 264 284 264 284 c 1
 292 284 l 2
 320 284 324 284 328 280 c 1
 336 276 340 268 336 256 c 1
 336 250 332 248 328 244 c 1
 288 244 l 1
 252 244 l 1
 226 156 l 2
 194 52 188 38 168 -4 c 0
 124 -92 68 -152 16 -168 c 0
 -10 -176 -36 -176 -60 -164 c 0
 -88 -150 -102 -128 -102 -104 c 0
 -102 -94 -100 -80 -96 -68 c 0
 -92 -52 -80 -36 -70 -32 c 0
 -48 -20 -18 -32 -8 -56 c 0
 -6 -64 -6 -78 -8 -84 c 1
 -12 -88 -16 -92 -24 -98 c 0
 -38 -106 -44 -112 -44 -122 c 0
 -44 -132 -40 -136 -24 -136 c 0
 -8 -136 -2 -136 8 -132 c 0
 24 -124 36 -106 44 -76 c 2
 48 -68 68 6 88 90 c 2
 126 244 l 1
 100 244 l 1
 70 244 l 1
 64 248 60 250 60 256 c 1
 56 268 60 276 70 280 c 1
 72 284 80 284 104 284 c 2
 136 284 l 1
 140 292 l 2
 150 320 170 356 192 384 c 0
 204 396 224 418 236 428 c 0
 268 452 300 468 332 472 c 2
EndSplineSet
EndChar
StartChar: m
Encoding: 109 109 17
Width: 437
GlyphClass: 2
Flags: HMW
HStem: 0 42G<166 180 180 204>
VStem: -40 492
Fore
92 298 m 1
 96 298 104 300 108 300 c 1
 116 298 118 298 124 296 c 1
 134 290 142 280 148 264 c 1
 148 256 l 1
 158 264 l 2
 182 288 212 300 232 300 c 1
 252 296 266 284 272 260 c 2
 274 254 l 1
 280 262 l 1
 308 288 340 304 364 296 c 0
 392 290 416 256 412 226 c 0
 412 222 404 184 394 140 c 0
 384 98 376 60 376 60 c 1
 376 56 378 52 382 52 c 0
 390 52 406 64 424 78 c 0
 436 88 440 92 446 90 c 0
 452 88 456 80 452 72 c 0
 448 64 414 36 392 20 c 0
 350 -8 308 -16 292 4 c 1
 286 8 284 14 284 24 c 0
 284 34 286 40 304 120 c 0
 328 212 328 216 324 224 c 1
 322 232 318 232 310 232 c 0
 300 232 284 220 276 208 c 1
 276 206 264 172 248 112 c 0
 232 60 220 16 220 16 c 2
 218 12 212 6 208 4 c 1
 204 0 l 1
 180 0 l 2
 152 0 148 0 144 6 c 1
 144 12 l 2
 144 14 156 60 172 112 c 0
 190 180 198 208 200 214 c 1
 200 232 190 238 172 228 c 0
 164 224 152 216 148 206 c 0
 146 202 132 160 114 108 c 0
 96 60 82 16 80 14 c 2
 78 8 72 4 66 2 c 0
 60 0 16 0 12 2 c 0
 8 4 4 8 4 12 c 0
 4 14 20 58 38 112 c 0
 72 216 72 216 68 224 c 1
 68 232 64 232 56 232 c 0
 36 232 14 204 -4 156 c 0
 -12 140 -14 136 -22 132 c 0
 -28 128 -36 128 -40 132 c 0
 -46 136 -44 142 -32 170 c 0
 -4 240 44 288 92 298 c 1
EndSplineSet
EndChar
StartChar: p
Encoding: 112 112 18
Width: 363
GlyphClass: 2
Flags: W
Fore
68 292 m 1
 76 292 92 292 104 288 c 0
 120 284 132 272 140 256 c 2
 144 252 144 246 146 244 c 1
 146 240 148 240 150 244 c 1
 154 248 168 260 180 268 c 0
 196 278 208 284 228 288 c 0
 240 292 264 292 278 288 c 0
 296 284 312 276 324 264 c 0
 340 248 348 232 354 208 c 0
 356 200 356 194 356 178 c 0
 356 152 352 134 344 110 c 0
 328 62 278 12 228 -4 c 0
 216 -8 204 -8 190 -8 c 0
 168 -8 152 -4 132 6 c 2
 124 8 118 12 116 12 c 0
 110 12 104 10 100 8 c 1
 98 4 70 -80 68 -84 c 1
 68 -96 76 -106 86 -112 c 0
 92 -116 96 -116 112 -118 c 0
 124 -120 128 -132 120 -140 c 0
 116 -146 116 -146 100 -144 c 0
 64 -142 44 -142 -4 -142 c 0
 -52 -142 -70 -142 -106 -144 c 0
 -122 -146 -124 -146 -128 -140 c 1
 -134 -136 -132 -124 -126 -120 c 0
 -124 -118 -122 -118 -98 -116 c 0
 -72 -114 -56 -112 -48 -108 c 0
 -42 -104 -36 -100 -32 -96 c 1
 -32 -92 70 204 72 216 c 1
 76 228 76 240 68 242 c 1
 64 244 56 244 48 240 c 0
 30 230 8 200 -12 152 c 2
 -20 136 l 1
 -32 128 -46 126 -52 136 c 0
 -56 142 -54 146 -36 180 c 0
 -4 248 28 282 68 292 c 1
244 240 m 0
 236 244 228 244 220 240 c 1
 184 232 152 176 136 104 c 0
 128 74 130 52 138 40 c 0
 152 24 188 30 208 56 c 0
 220 72 238 114 248 160 c 0
 260 200 260 216 252 232 c 1
 252 236 248 238 244 240 c 0
EndSplineSet
EndChar
StartChar: r
Encoding: 114 114 19
Width: 217
GlyphClass: 2
Flags: HMW
HStem: 0 42G<25 49> 220 86
Fore
214 306 m 0
 220 308 244 306 252 304 c 0
 272 298 286 286 288 268 c 0
 288 250 276 230 260 222 c 1
 252 220 252 220 244 220 c 0
 226 220 218 224 212 244 c 0
 208 256 204 260 200 262 c 0
 184 270 148 250 136 228 c 0
 134 224 124 188 108 120 c 0
 92 64 80 16 80 16 c 1
 76 8 72 4 66 2 c 0
 62 0 60 0 38 0 c 0
 12 0 10 0 6 4 c 1
 4 12 2 10 34 132 c 0
 60 236 64 246 64 254 c 0
 64 264 62 268 56 272 c 0
 52 276 44 274 36 272 c 1
 24 264 6 242 0 222 c 0
 -4 212 -18 204 -28 212 c 0
 -32 216 -32 220 -28 232 c 0
 -16 262 0 282 26 296 c 0
 64 316 112 308 132 276 c 1
 136 272 l 1
 140 276 l 1
 164 292 188 302 214 306 c 0
EndSplineSet
EndChar
StartChar: s
Encoding: 115 115 20
Width: 205
GlyphClass: 2
Flags: HMW
HStem: 0 42G<95 116> 252 40G<148 168 168 176>
VStem: 24 216
Fore
148 292 m 1
 168 292 l 2
 184 292 194 288 208 282 c 0
 228 272 242 250 240 228 c 0
 240 212 232 200 220 196 c 0
 206 192 188 200 182 210 c 1
 180 216 180 220 184 224 c 1
 194 240 192 260 180 266 c 0
 174 268 168 268 160 266 c 0
 144 264 130 250 126 236 c 0
 120 216 128 202 152 188 c 0
 196 164 212 148 220 124 c 2
 224 120 224 116 224 104 c 0
 224 88 222 80 216 68 c 0
 208 46 188 26 164 14 c 0
 144 4 128 0 104 0 c 0
 86 0 76 2 62 10 c 0
 42 20 28 36 24 56 c 0
 18 78 28 104 44 110 c 0
 64 116 84 100 86 82 c 0
 86 74 84 72 76 64 c 1
 68 58 64 54 64 48 c 0
 64 34 88 24 112 28 c 0
 140 36 156 48 162 68 c 0
 168 88 156 108 132 126 c 0
 128 128 118 136 110 140 c 0
 84 156 76 164 68 178 c 2
 64 184 l 1
 64 198 l 2
 64 208 64 214 68 220 c 2
 70 230 76 244 84 252 c 1
 98 272 122 288 148 292 c 1
EndSplineSet
EndChar
StartChar: z
Encoding: 122 122 21
Width: 285
GlyphClass: 2
Flags: HMW
HStem: 12 54<49 103>
Fore
88 264 m 0
 96 266 110 266 120 264 c 1
 124 262 136 258 146 256 c 2
 172 244 178 244 200 244 c 0
 226 242 232 244 246 254 c 0
 248 256 252 256 254 256 c 0
 260 256 268 252 268 244 c 1
 270 236 274 240 178 150 c 2
 90 68 l 1
 96 66 l 1
 110 66 128 64 156 60 c 0
 214 52 228 52 240 64 c 0
 250 72 254 88 250 104 c 0
 248 112 248 116 250 120 c 0
 256 128 264 128 270 124 c 0
 274 122 276 116 280 100 c 0
 284 84 286 72 286 60 c 0
 284 12 244 -26 192 -28 c 0
 172 -30 160 -26 128 -8 c 0
 96 8 90 12 60 12 c 0
 38 12 34 12 28 8 c 0
 20 0 16 0 12 0 c 0
 8 0 4 4 2 8 c 0
 0 12 0 16 4 22 c 2
 4 24 44 64 92 108 c 2
 184 196 l 1
 188 200 l 1
 178 196 l 1
 144 196 l 2
 104 192 100 192 64 184 c 0
 48 180 40 180 34 184 c 0
 28 188 28 204 36 220 c 0
 44 240 68 260 88 264 c 0
EndSplineSet
EndChar
StartChar: uniE0F8
Encoding: 57592 57592 22
Width: 539
GlyphClass: 2
Flags: HMW
VStem: 294 34<116 748 979 992 992 998>
Fore
294 874 m 1
 294 998 l 1
 312 998 l 1
 328 998 l 1
 328 992 l 2
 328 966 336 930 344 900 c 0
 360 854 380 818 428 738 c 0
 466 678 480 654 494 626 c 0
 514 584 528 548 532 512 c 0
 544 450 532 370 508 290 c 0
 500 266 496 256 492 254 c 1
 488 250 480 246 476 246 c 0
 472 246 462 250 460 254 c 2
 456 256 452 264 452 268 c 0
 452 270 454 276 456 282 c 0
 476 326 488 378 492 424 c 0
 496 442 496 470 494 482 c 0
 486 554 440 630 344 732 c 2
 328 748 l 1
 328 70 l 1
 294 116 l 1
 294 874 l 1
200 136 m 0
 212 138 240 136 250 136 c 1
 290 126 316 104 326 72 c 0
 328 60 328 36 328 24 c 1
 318 -16 290 -56 250 -88 c 0
 216 -112 176 -128 140 -136 c 0
 124 -138 94 -138 82 -136 c 0
 40 -128 12 -104 4 -70 c 1
 0 -60 0 -36 2 -24 c 0
 12 16 40 56 80 88 c 0
 116 116 158 132 200 136 c 0
EndSplineSet
EndChar
StartChar: uniE0F9
Encoding: 57593 57593 23
Width: 539
GlyphClass: 2
Flags: HMW
VStem: 290 34<118 500 500 536 536 574 777 782 782 788 988 1000> 484 44<532 540 524 558 524 558> 490 40
Fore
290 750 m 1xa0
 290 1000 l 1
 308 1000 l 1
 324 1000 l 1
 324 988 l 2
 328 948 338 910 360 868 c 0
 376 840 388 820 426 764 c 2
 462 712 l 2
 504 644 524 592 528 540 c 0xc0
 528 508 522 476 508 448 c 1
 508 442 504 436 504 436 c 1
 504 432 508 426 510 420 c 0
 520 396 528 364 532 336 c 0
 534 322 532 292 530 272 c 0
 526 232 514 188 496 144 c 0
 490 132 488 128 480 124 c 0
 474 122 470 122 464 124 c 0
 456 128 452 132 450 136 c 1
 448 144 448 148 454 160 c 0
 474 204 486 248 490 292 c 0
 492 334 488 364 468 402 c 0
 454 432 436 458 404 494 c 0
 392 508 344 556 332 568 c 1
 324 574 l 1
 324 536 l 1
 324 500 l 1
 324 70 l 1
 290 118 l 1
 290 750 l 1xa0
392 716 m 2
 388 724 368 744 352 760 c 2
 324 788 l 1
 324 782 l 2
 324 772 326 756 328 742 c 0
 332 716 342 694 356 666 c 0
 372 636 388 612 432 548 c 0
 444 528 460 504 468 496 c 1
 476 482 l 1
 480 488 l 1
 484 504 484 512 484 532 c 2
 484 558 l 1
 472 608 446 656 392 716 c 2
200 136 m 0
 212 138 240 136 250 136 c 1
 290 126 316 104 326 72 c 0
 328 60 328 36 328 24 c 1
 318 -16 290 -56 250 -88 c 0
 216 -112 176 -128 140 -136 c 0
 124 -138 94 -138 82 -136 c 0
 40 -128 12 -104 4 -70 c 1
 0 -60 0 -36 2 -24 c 0
 12 16 40 56 80 88 c 0
 116 116 158 132 200 136 c 0
EndSplineSet
EndChar
StartChar: uniE0FA
Encoding: 57594 57594 24
Width: 539
GlyphClass: 2
Flags: HMW
VStem: 296 34<112 250 250 302 302 352 547 562 562 570 774 781 988 1000> 478 44<492 560> 482 40<520 537> 496 42
Fore
296 624 m 1xc0
 296 1000 l 1
 314 1000 l 1
 330 1000 l 1
 330 988 l 2
 334 932 354 880 398 806 c 2
 428 760 l 2
 462 708 478 684 490 656 c 0
 506 620 516 592 522 560 c 1xa0
 522 496 l 1xc0
 518 482 514 468 510 456 c 2
 506 444 l 1
 510 432 l 1
 522 408 526 388 530 364 c 0
 534 348 534 312 530 296 c 0
 526 274 520 252 514 236 c 1
 510 232 510 228 510 228 c 1
 516 216 l 2
 534 178 540 144 538 104 c 0
 538 52 526 0 502 -50 c 0
 494 -64 494 -68 486 -72 c 0
 480 -74 476 -74 470 -72 c 0
 462 -68 458 -64 456 -60 c 1
 454 -52 454 -48 458 -36 c 1
 480 4 492 48 496 92 c 0x90
 498 128 494 156 478 188 c 0
 462 222 438 252 402 288 c 2
 342 344 l 1
 330 352 l 1
 330 302 l 1
 330 250 l 1
 330 72 l 1
 296 112 l 1
 296 624 l 1xc0
346 770 m 1
 338 776 334 784 332 786 c 0
 330 788 330 788 330 774 c 0
 332 730 346 688 378 636 c 0
 386 620 402 596 434 556 c 2
 468 506 l 2
 472 500 476 492 478 492 c 1xc0
 478 494 480 510 482 520 c 1
 482 554 470 596 446 638 c 0
 426 676 394 716 346 770 c 1
350 552 m 0
 342 560 334 568 332 568 c 1
 330 570 l 1
 330 562 l 2
 330 532 340 494 358 460 c 0
 374 424 390 400 438 336 c 0
 458 310 470 292 478 280 c 0xc0
 482 274 482 272 486 292 c 0
 494 322 492 352 482 380 c 0xa0
 474 404 454 440 434 464 c 0
 414 490 382 524 350 552 c 0
200 136 m 0
 212 138 240 136 250 136 c 1
 290 126 316 104 326 72 c 0
 328 60 328 36 328 24 c 1
 318 -16 290 -56 250 -88 c 0
 216 -112 176 -128 140 -136 c 0
 124 -138 94 -138 82 -136 c 0
 40 -128 12 -104 4 -70 c 1
 0 -60 0 -36 2 -24 c 0
 12 16 40 56 80 88 c 0
 116 116 158 132 200 136 c 0
EndSplineSet
EndChar
StartChar: uniE0FB
Encoding: 57595 57595 25
Width: 539
GlyphClass: 2
Flags: HMW
VStem: 292 34<42 98 98 154 345 368 368 378 565 594 594 604 798 818 818 830 1030 1042>
Fore
292 542 m 1
 292 1042 l 1
 310 1042 l 1
 326 1042 l 1
 326 1030 l 2
 330 974 350 922 394 850 c 0
 398 842 410 822 422 804 c 2
 466 730 l 2
 494 680 510 638 518 594 c 1
 518 578 518 542 516 526 c 0
 514 512 510 494 504 482 c 2
 500 474 l 1
 504 464 l 2
 510 450 518 430 522 416 c 0
 534 362 530 314 506 262 c 1
 502 246 l 1
 506 236 l 2
 516 214 522 190 526 166 c 0
 530 152 530 130 528 118 c 0
 526 94 514 70 500 50 c 1
 494 44 l 1
 502 30 l 2
 530 -26 540 -74 532 -134 c 0
 528 -176 514 -222 498 -260 c 0
 490 -274 490 -276 482 -280 c 0
 476 -282 472 -282 466 -280 c 0
 458 -278 454 -274 452 -268 c 0
 450 -262 450 -258 454 -246 c 1
 466 -226 478 -192 482 -170 c 0
 494 -130 494 -90 490 -62 c 0
 482 -22 458 18 418 66 c 0
 402 82 370 118 346 138 c 2
 326 154 l 1
 326 98 l 1
 326 42 l 1
 310 42 l 1
 292 42 l 1
 292 542 l 1
354 798 m 0
 346 806 336 818 334 822 c 1
 326 830 l 1
 326 818 l 2
 326 778 336 740 358 698 c 0
 372 668 390 642 430 582 c 2
 462 538 l 2
 466 530 472 524 472 526 c 1
 474 526 476 542 478 554 c 1
 478 586 468 626 448 666 c 0
 428 706 398 746 354 798 c 0
356 576 m 0
 344 586 334 598 330 600 c 1
 326 604 l 1
 326 594 l 2
 326 536 346 482 394 412 c 2
 424 366 l 2
 436 350 452 328 460 316 c 2
 474 294 l 1
 474 294 476 298 478 304 c 0
 486 326 488 354 486 374 c 0
 478 434 438 496 356 576 c 0
366 342 m 0
 352 354 338 370 334 374 c 1
 326 378 l 1
 326 368 l 2
 326 322 342 274 372 222 c 0
 386 198 398 182 432 136 c 0
 442 122 454 106 460 96 c 0
 466 88 470 82 472 82 c 0
 474 82 482 102 484 110 c 0
 494 146 482 192 452 238 c 0
 430 272 410 298 366 342 c 0
200 136 m 0
 212 138 240 136 250 136 c 1
 290 126 316 104 326 72 c 0
 328 60 328 36 328 24 c 1
 318 -16 290 -56 250 -88 c 0
 216 -112 176 -128 140 -136 c 0
 124 -138 94 -138 82 -136 c 0
 40 -128 12 -104 4 -70 c 1
 0 -60 0 -36 2 -24 c 0
 12 16 40 56 80 88 c 0
 116 116 158 132 200 136 c 0
EndSplineSet
EndChar
StartChar: uniE0FC
Encoding: 57596 57596 26
Width: 327
GlyphClass: 2
Flags: HMWO
VStem: 294 34<116 874 874 992 992 998>
Fore
328 70 m 1
 294 116 l 1
 294 874 l 1
 294 998 l 1
 328 998 l 1
 328 992 l 1
 328 70 l 1
200 136 m 0
 212 138 240 136 250 136 c 1
 290 126 316 104 326 72 c 0
 328 60 328 36 328 24 c 1
 318 -16 290 -56 250 -88 c 0
 216 -112 176 -128 140 -136 c 0
 124 -138 94 -138 82 -136 c 0
 40 -128 12 -104 4 -70 c 1
 0 -60 0 -36 2 -24 c 0
 12 16 40 56 80 88 c 0
 116 116 158 132 200 136 c 0
EndSplineSet
EndChar
StartChar: uniE0FD
Encoding: 57597 57597 27
Width: 327
GlyphClass: 2
Flags: HMW
VStem: 0 36<-402 78 -402 130 -402 78> 294 34<314 506 506 800 800 800>
Fore
0 130 m 1
 0 -402 l 1
 36 -402 l 1
 36 78 l 1
 0 130 l 1
328 268 m 1
 294 314 l 1
 294 506 l 1
 294 800 l 1
 328 800 l 1
 328 992 l 1
 328 268 l 1
200 334 m 0
 212 336 240 334 250 334 c 1
 290 324 316 302 326 270 c 0
 328 258 328 234 328 222 c 1
 318 182 290 142 250 110 c 0
 216 86 176 70 140 62 c 0
 124 60 94 60 82 62 c 0
 40 70 12 94 4 128 c 1
 0 138 0 162 2 174 c 0
 12 214 40 254 80 286 c 0
 116 314 158 330 200 334 c 0
EndSplineSet
EndChar
StartChar: uniE0FE
Encoding: 57598 57598 28
Width: 111
GlyphClass: 2
Flags: HMW
HStem: -56 112
Fore
226 56 m 0
 232 58 248 56 256 54 c 0
 272 48 284 36 290 20 c 0
 292 12 292 12 292 0 c 0
 292 -10 292 -12 290 -18 c 0
 284 -36 272 -48 254 -52 c 2
 248 -56 244 -56 236 -56 c 0
 228 -56 224 -56 220 -52 c 2
 200 -48 190 -36 184 -18 c 1
 180 -12 180 -10 180 0 c 0
 180 10 180 12 184 18 c 1
 184 26 192 36 196 40 c 0
 202 48 216 54 226 56 c 0
46 56 m 0
 52 58 68 56 76 54 c 0
 92 48 104 36 110 20 c 0
 112 12 112 12 112 0 c 0
 112 -10 112 -12 110 -18 c 0
 104 -36 92 -48 74 -52 c 2
 68 -56 64 -56 56 -56 c 0
 48 -56 44 -56 40 -52 c 2
 20 -48 10 -36 4 -18 c 1
 0 -12 0 -10 0 0 c 0
 0 10 0 12 4 18 c 1
 4 26 12 36 16 40 c 0
 22 48 36 54 46 56 c 0
EndSplineSet
EndChar
StartChar: rests.0
Encoding: 57600 57600 29
Width: 373
GlyphClass: 2
Flags: HMW
HStem: -156 156<6 188 6 188 4 188 188 368>
Fore
4 -4 m 1
 6 0 l 1
 188 0 l 1
 370 0 l 1
 372 -4 l 1
 376 -4 l 1
 376 -78 l 1
 376 -150 l 1
 372 -152 l 1
 368 -156 l 1
 188 -156 l 1
 4 -156 l 1
 4 -152 l 1
 0 -152 l 1
 0 -78 l 1
 0 -6 l 1
 4 -4 l 1
EndSplineSet
EndChar
StartChar: rests.1
Encoding: 57601 57601 30
Width: 373
GlyphClass: 2
Flags: HMW
HStem: 0 156<6 188 6 188 4 188 188 368>
Fore
4 152 m 1
 6 156 l 1
 188 156 l 1
 370 156 l 1
 372 152 l 1
 376 152 l 1
 376 78 l 1
 376 6 l 1
 372 4 l 1
 368 0 l 1
 188 0 l 1
 4 0 l 1
 4 4 l 1
 0 4 l 1
 0 78 l 1
 0 150 l 1
 4 152 l 1
EndSplineSet
EndChar
StartChar: rests.0o
Encoding: 57602 57602 31
Width: 373
GlyphClass: 2
Flags: HMW
HStem: -24 48<-142 -68 -142 -140>
Fore
-140 24 m 1
 -136 26 -80 26 188 26 c 0
 456 26 512 26 516 24 c 1
 520 24 526 20 528 12 c 2
 532 8 532 8 532 0 c 0
 532 -6 532 -8 528 -12 c 2
 526 -18 520 -22 516 -24 c 1
 444 -24 l 1
 376 -24 l 1
 376 -88 l 1
 376 -150 l 1
 372 -152 l 1
 368 -156 l 1
 188 -156 l 1
 4 -156 l 1
 4 -152 l 1
 0 -152 l 1
 0 -88 l 1
 0 -24 l 1
 -68 -24 l 1
 -140 -24 l 1
 -144 -22 -150 -18 -152 -12 c 2
 -156 -8 -156 -6 -156 0 c 0
 -156 8 -156 8 -152 12 c 2
 -150 20 -144 24 -140 24 c 1
EndSplineSet
EndChar
StartChar: rests.1o
Encoding: 57603 57603 32
Width: 373
GlyphClass: 2
Flags: HMW
HStem: -24 50<-68 0 376 444 444 471>
Fore
4 152 m 1
 6 156 l 1
 188 156 l 1
 370 156 l 1
 372 152 l 1
 376 152 l 1
 376 88 l 1
 376 26 l 1
 444 26 l 2
 498 26 512 26 516 24 c 1
 520 24 526 20 528 12 c 2
 532 8 532 8 532 0 c 0
 532 -6 532 -8 528 -12 c 2
 526 -18 520 -22 516 -24 c 0
 510 -26 -134 -26 -140 -24 c 0
 -144 -22 -150 -18 -152 -12 c 2
 -156 -8 -156 -6 -156 0 c 0
 -156 8 -156 8 -152 12 c 2
 -150 20 -144 24 -140 24 c 1
 -136 26 -122 26 -68 26 c 2
 0 26 l 1
 0 88 l 1
 0 150 l 1
 4 152 l 1
EndSplineSet
EndChar
StartChar: rests.M3
Encoding: 57604 57604 33
Width: 449
GlyphClass: 2
Flags: HMW
VStem: 0 150<-244 0 0 244> 300 150<-244 0 0 244>
Fore
4 248 m 1
 6 250 l 1
 76 250 l 1
 144 250 l 1
 148 248 l 1
 150 244 l 1
 150 0 l 1
 150 -244 l 1
 148 -248 l 1
 144 -250 l 1
 76 -250 l 1
 4 -248 l 1
 0 -244 l 1
 0 0 l 1
 0 244 l 1
 4 248 l 1
304 248 m 1
 306 250 l 1
 376 250 l 1
 444 250 l 1
 448 248 l 1
 450 244 l 1
 450 0 l 1
 450 -244 l 1
 448 -248 l 1
 444 -250 l 1
 376 -250 l 1
 304 -248 l 1
 300 -244 l 1
 300 0 l 1
 300 244 l 1
 304 248 l 1
EndSplineSet
EndChar
StartChar: rests.M2
Encoding: 57605 57605 34
Width: 149
GlyphClass: 2
Flags: HMW
VStem: 0 150<-244 0 0 244>
Fore
4 248 m 1
 6 250 l 1
 76 250 l 1
 144 250 l 1
 148 248 l 1
 150 244 l 1
 150 0 l 1
 150 -244 l 1
 148 -248 l 1
 144 -250 l 1
 76 -250 l 1
 4 -248 l 1
 0 -244 l 1
 0 0 l 1
 0 244 l 1
 4 248 l 1
EndSplineSet
EndChar
StartChar: rests.M1
Encoding: 57606 57606 35
Width: 149
GlyphClass: 2
Flags: HMW
HStem: 0 42G<4 76 4 4 76 144>
VStem: 0 150<6 124 6 124 124 244 6 244>
Fore
4 248 m 1
 6 250 l 1
 76 250 l 1
 144 250 l 1
 148 248 l 1
 150 244 l 1
 150 124 l 1
 150 6 l 1
 148 4 l 1
 144 0 l 1
 76 0 l 1
 4 0 l 1
 4 4 l 1
 0 4 l 1
 0 124 l 1
 0 244 l 1
 4 248 l 1
EndSplineSet
EndChar
StartChar: rests.2
Encoding: 57607 57607 36
Width: 235
GlyphClass: 2
Flags: HMW
VStem: -18 258
Fore
64 396 m 1
 76 396 l 2
 80 396 100 372 156 304 c 0
 196 256 232 212 234 210 c 0
 244 200 244 188 240 174 c 0
 236 158 220 140 184 110 c 0
 172 100 158 90 156 86 c 2
 132 64 118 30 120 -2 c 0
 120 -28 128 -48 148 -68 c 1
 154 -76 204 -136 222 -156 c 0
 232 -168 232 -172 228 -180 c 1
 226 -188 216 -192 208 -188 c 1
 200 -180 l 2
 174 -154 110 -138 80 -152 c 0
 70 -156 64 -164 60 -180 c 0
 48 -212 56 -274 78 -304 c 0
 84 -312 84 -314 80 -318 c 0
 78 -320 74 -320 72 -318 c 1
 68 -316 52 -296 44 -280 c 2
 20 -248 0 -204 -12 -172 c 0
 -24 -134 -26 -108 -18 -92 c 1
 -16 -84 -12 -80 -4 -78 c 1
 16 -68 80 -80 134 -102 c 2
 138 -104 l 1
 136 -100 l 1
 132 -98 92 -52 36 16 c 0
 -4 64 -6 64 -4 80 c 2
 -4 92 l 1
 4 108 20 124 54 156 c 1
 66 164 80 176 82 180 c 1
 116 212 128 264 108 304 c 1
 104 316 100 324 76 348 c 1
 66 362 56 374 56 376 c 1
 52 382 56 392 64 396 c 1
EndSplineSet
EndChar
StartChar: rests.2classical
Encoding: 57608 57608 37
Width: 250
GlyphClass: 2
Flags: HMW
HStem: -260 464<146 196>
VStem: 0 252<127 170>
Fore
168 204 m 1
 196 204 l 1
 220 198 240 180 250 156 c 0
 252 148 252 144 252 134 c 0
 252 120 252 112 244 100 c 0
 234 80 212 64 190 56 c 0
 164 50 122 56 74 72 c 2
 62 76 l 1
 120 -88 l 1
 180 -250 l 1
 180 -250 176 -252 174 -252 c 1
 168 -256 158 -260 152 -260 c 0
 140 -260 124 -252 122 -248 c 1
 122 -244 94 -150 60 -36 c 2
 0 170 l 1
 2 172 l 1
 8 180 16 180 24 176 c 1
 24 174 28 170 30 168 c 0
 40 152 62 124 74 116 c 1
 84 106 92 104 100 108 c 0
 110 114 112 120 120 146 c 0
 124 166 128 176 136 184 c 0
 144 194 156 200 168 204 c 1
EndSplineSet
EndChar
StartChar: rests.3
Encoding: 57609 57609 38
Width: 250
GlyphClass: 2
Flags: HMW
HStem: -260 464
VStem: -2 252<127 170>
Fore
56 204 m 0
 72 208 88 204 104 196 c 1
 118 184 124 172 132 146 c 1
 136 120 140 114 148 108 c 1
 160 104 164 106 176 116 c 0
 188 124 212 152 220 168 c 1
 222 170 224 174 228 176 c 1
 232 180 244 180 248 172 c 1
 250 170 l 1
 190 -36 l 2
 156 -150 128 -244 128 -248 c 1
 126 -252 112 -260 100 -260 c 0
 92 -260 82 -256 76 -252 c 1
 72 -252 72 -250 72 -250 c 1
 128 -88 l 1
 188 76 l 1
 176 72 l 2
 128 56 86 50 60 56 c 0
 36 64 16 80 6 100 c 0
 0 112 -2 120 -2 134 c 0
 -2 144 -2 148 0 156 c 0
 8 180 28 198 56 204 c 0
EndSplineSet
EndChar
StartChar: rests.4
Encoding: 57610 57610 39
Width: 299
GlyphClass: 2
Flags: HMW
VStem: -24 324<-116 170 -96 170>
Fore
110 204 m 0
 126 208 144 204 158 196 c 1
 172 184 180 172 186 146 c 0
 192 120 196 114 204 108 c 1
 214 104 220 108 232 116 c 1
 240 124 252 140 264 156 c 0
 276 176 276 176 280 176 c 1
 286 180 294 180 298 172 c 1
 300 170 l 1
 212 -164 l 2
 162 -346 122 -496 120 -498 c 2
 120 -500 112 -506 104 -508 c 0
 92 -512 80 -510 70 -504 c 1
 68 -500 64 -500 64 -500 c 1
 68 -494 164 -176 164 -176 c 2
 164 -174 158 -176 150 -180 c 1
 132 -184 112 -190 96 -192 c 0
 76 -196 48 -196 38 -192 c 1
 14 -188 -8 -172 -16 -152 c 1
 -24 -140 -24 -132 -24 -116 c 2
 -24 -96 l 1
 -16 -80 -8 -66 6 -56 c 0
 34 -40 70 -42 92 -64 c 0
 100 -72 104 -84 108 -104 c 0
 114 -132 116 -136 126 -140 c 1
 136 -146 144 -144 158 -128 c 0
 172 -114 190 -90 196 -76 c 1
 196 -72 242 74 242 76 c 1
 242 76 236 74 228 72 c 0
 180 56 140 50 116 56 c 0
 92 64 72 80 60 100 c 0
 54 112 52 120 52 134 c 0
 52 144 52 148 56 156 c 0
 64 180 84 198 110 204 c 0
EndSplineSet
EndChar
StartChar: rests.5
Encoding: 57611 57611 40
Width: 323
GlyphClass: 2
Flags: W
Fore
140 452 m 0
 156 456 174 454 188 444 c 1
 204 436 210 424 216 396 c 0
 222 368 224 364 234 360 c 0
 242 356 248 356 252 360 c 0
 262 368 278 388 292 412 c 0
 300 424 302 428 308 428 c 0
 316 428 320 426 324 422 c 1
 324 420 324 418 218 -38 c 0
 158 -290 110 -496 108 -498 c 1
 108 -504 92 -510 80 -510 c 0
 70 -510 52 -502 52 -498 c 1
 54 -496 138 -180 140 -176 c 1
 140 -172 l 1
 126 -178 l 2
 104 -184 86 -190 68 -192 c 2
 56 -196 50 -196 34 -196 c 0
 12 -196 6 -194 -10 -186 c 0
 -32 -176 -46 -160 -52 -136 c 2
 -56 -132 -56 -128 -56 -116 c 0
 -56 -104 -56 -104 -52 -96 c 2
 -48 -80 -36 -66 -24 -56 c 1
 4 -40 40 -42 60 -64 c 0
 68 -72 72 -84 78 -104 c 0
 84 -132 88 -136 96 -140 c 0
 108 -144 114 -144 128 -130 c 0
 140 -118 156 -96 164 -80 c 1
 164 -76 204 76 204 76 c 1
 204 76 198 74 188 72 c 1
 170 64 152 60 136 56 c 1
 116 54 88 54 76 56 c 1
 52 64 32 80 22 100 c 0
 16 112 14 120 14 134 c 0
 14 144 14 148 16 156 c 0
 22 170 32 184 44 192 c 0
 72 212 108 208 130 184 c 0
 138 176 142 166 148 146 c 0
 152 120 156 114 164 108 c 1
 176 104 180 108 192 116 c 1
 202 126 220 148 228 164 c 1
 228 170 236 188 250 248 c 0
 262 290 272 324 270 324 c 2
 270 324 264 324 254 320 c 0
 220 308 196 304 172 304 c 0
 150 304 144 306 128 314 c 0
 106 324 92 340 84 364 c 1
 84 384 l 1
 84 404 l 1
 94 430 114 448 140 452 c 0
EndSplineSet
EndChar
StartChar: rests.6
Encoding: 57612 57612 41
Width: 349
GlyphClass: 2
Flags: HMW
VStem: -66 414
Fore
168 452 m 0
 184 456 204 454 216 444 c 1
 232 436 240 424 244 396 c 0
 252 368 254 364 264 360 c 0
 272 356 276 356 280 360 c 0
 290 368 304 384 316 410 c 0
 324 428 328 428 336 428 c 0
 342 428 346 428 348 422 c 1
 350 420 336 354 234 -160 c 0
 168 -480 116 -742 116 -744 c 0
 116 -750 114 -752 110 -752 c 1
 104 -756 94 -760 88 -760 c 0
 80 -760 70 -756 64 -752 c 1
 60 -752 60 -750 60 -748 c 0
 62 -738 132 -424 132 -424 c 1
 132 -424 128 -424 122 -426 c 0
 72 -444 24 -450 -4 -444 c 0
 -28 -436 -48 -420 -58 -400 c 0
 -64 -388 -66 -380 -66 -366 c 0
 -66 -356 -66 -352 -64 -344 c 0
 -58 -330 -48 -316 -36 -308 c 0
 -8 -288 28 -292 50 -316 c 0
 58 -324 62 -334 68 -354 c 0
 72 -380 76 -386 84 -392 c 1
 96 -396 102 -392 112 -384 c 0
 124 -372 142 -348 150 -332 c 1
 156 -324 156 -318 172 -248 c 0
 180 -208 188 -174 188 -172 c 1
 188 -172 180 -176 174 -178 c 0
 124 -194 82 -200 56 -192 c 0
 32 -188 12 -172 0 -152 c 0
 -6 -140 -8 -132 -8 -116 c 0
 -8 -104 -8 -104 -4 -96 c 2
 0 -80 12 -66 24 -56 c 1
 52 -40 88 -42 108 -64 c 0
 116 -72 120 -84 126 -104 c 0
 132 -132 136 -136 144 -140 c 0
 156 -144 160 -144 174 -132 c 1
 186 -118 202 -92 208 -80 c 0
 210 -76 244 76 244 76 c 1
 228 72 l 2
 208 64 190 60 174 56 c 0
 156 54 128 54 116 56 c 1
 92 64 72 80 60 100 c 0
 54 112 52 120 52 134 c 0
 52 144 52 148 56 156 c 0
 60 170 72 184 84 192 c 0
 112 212 148 208 168 184 c 0
 176 176 180 166 186 146 c 0
 192 120 196 114 204 108 c 1
 212 106 216 106 222 110 c 0
 232 116 248 140 260 162 c 0
 264 172 266 176 282 244 c 0
 292 284 298 320 300 322 c 1
 300 326 l 1
 288 322 l 2
 272 316 250 310 234 308 c 2
 222 304 216 304 200 304 c 0
 180 304 172 306 156 314 c 0
 136 324 120 340 114 364 c 1
 112 368 112 372 112 384 c 0
 112 396 112 396 114 404 c 0
 124 430 144 448 168 452 c 0
EndSplineSet
EndChar
StartChar: rests.7
Encoding: 57613 57613 42
Width: 373
GlyphClass: 2
Flags: HMW
VStem: -60 436
Fore
200 704 m 0
 216 708 232 704 248 696 c 1
 262 684 268 672 276 646 c 1
 280 620 284 614 292 608 c 1
 300 608 304 606 310 608 c 1
 316 612 328 632 340 658 c 0
 348 676 352 678 360 680 c 1
 364 680 370 676 372 672 c 1
 376 670 l 1
 256 -36 l 2
 192 -426 140 -746 138 -748 c 1
 136 -752 122 -760 110 -760 c 0
 104 -760 92 -756 88 -752 c 2
 82 -750 82 -750 82 -748 c 1
 84 -746 96 -672 112 -584 c 0
 128 -498 142 -424 144 -424 c 1
 144 -420 l 1
 126 -428 l 2
 74 -444 28 -450 4 -444 c 0
 -20 -436 -42 -420 -52 -400 c 0
 -60 -388 -60 -380 -60 -366 c 0
 -60 -356 -60 -352 -58 -344 c 0
 -52 -330 -42 -316 -28 -308 c 0
 0 -288 36 -292 56 -316 c 0
 64 -324 68 -334 72 -354 c 0
 80 -380 82 -386 92 -392 c 0
 100 -396 108 -392 120 -384 c 1
 132 -372 148 -350 156 -332 c 2
 160 -322 l 1
 176 -248 l 1
 188 -172 l 1
 188 -172 182 -176 172 -178 c 0
 124 -194 80 -200 54 -192 c 0
 30 -188 8 -172 0 -152 c 1
 -8 -140 -8 -132 -8 -116 c 2
 -8 -96 l 1
 0 -80 8 -66 22 -56 c 0
 50 -40 86 -42 108 -64 c 0
 116 -72 120 -84 124 -104 c 0
 130 -132 132 -136 142 -140 c 1
 148 -144 154 -144 160 -140 c 1
 170 -136 184 -116 196 -96 c 0
 208 -78 208 -80 220 0 c 0
 228 40 236 76 236 76 c 1
 236 76 230 76 222 72 c 0
 200 66 182 60 164 56 c 1
 130 56 l 2
 108 56 102 56 86 64 c 0
 64 74 50 92 44 112 c 0
 40 120 40 124 40 134 c 0
 40 144 40 148 44 156 c 0
 48 170 60 184 72 192 c 0
 100 212 136 208 156 184 c 0
 164 176 168 166 174 146 c 0
 180 120 184 114 192 108 c 1
 204 104 212 108 228 128 c 0
 236 136 242 148 248 164 c 2
 252 172 l 1
 268 248 l 1
 282 326 l 1
 280 326 276 324 268 322 c 0
 220 306 180 300 156 308 c 1
 132 312 110 328 100 348 c 0
 92 360 92 368 92 384 c 0
 92 396 92 396 94 404 c 0
 100 420 110 434 124 444 c 0
 152 460 188 458 208 436 c 0
 216 428 220 416 224 396 c 0
 232 368 234 364 244 360 c 1
 250 356 256 356 260 360 c 0
 272 368 288 392 296 412 c 0
 300 420 300 430 314 498 c 0
 320 540 328 576 328 576 c 1
 328 576 320 572 312 570 c 0
 278 560 256 556 232 556 c 0
 208 556 204 556 188 564 c 0
 164 574 152 592 144 612 c 0
 142 620 142 624 142 634 c 0
 142 644 142 648 144 656 c 0
 152 680 172 698 200 704 c 0
EndSplineSet
EndChar
StartChar: accidentals.2
Encoding: 57614 57614 43
Width: 273
GlyphClass: 2
Flags: HMW
VStem: 0 96<-364 -163> 58 38<-319 -280 -280 -269 -55 -34 -34 -16 -16 -12 242 268> 178 38<-242 -232 -232 -166 -166 -166 14 18 18 36 36 96 96 96 270 280 280 288 288 314> 178 98<-242 -64 -166 -64 -99 18 -99 96>
Fore
190 372 m 1x20
 200 378 212 372 216 364 c 1
 216 288 l 2x20
 216 252 216 220 218 220 c 1
 234 226 l 2
 242 228 252 232 254 232 c 0
 262 234 270 228 272 222 c 1
 276 218 276 214 276 184 c 0x10
 276 144 276 144 268 138 c 2
 268 136 258 132 242 124 c 2
 216 114 l 1
 216 36 l 2x20
 216 -8 216 -44 218 -44 c 1
 234 -36 l 1
 242 -34 252 -30 254 -30 c 0
 262 -28 270 -34 272 -40 c 1
 276 -44 276 -48 276 -80 c 0x10
 276 -118 276 -120 268 -124 c 2
 268 -128 258 -132 242 -140 c 1
 216 -148 l 1
 216 -232 l 1
 216 -320 l 1
 208 -334 188 -336 180 -320 c 1
 180 -318 178 -310 178 -242 c 2
 178 -166 l 1
 136 -184 l 1
 96 -200 l 1xa0
 96 -280 l 1
 96 -364 l 1
 88 -380 66 -380 60 -364 c 0
 58 -360 58 -350 58 -288 c 0x40
 58 -250 58 -218 56 -218 c 1
 40 -224 l 2
 32 -228 24 -232 20 -232 c 0
 12 -232 4 -228 2 -220 c 1
 0 -216 0 -212 0 -182 c 0x80
 0 -144 0 -144 6 -136 c 1
 8 -136 16 -130 32 -124 c 2
 58 -112 l 1
 58 -34 l 2x40
 58 10 58 44 56 44 c 1
 40 38 l 2
 32 36 24 32 20 32 c 1
 12 30 4 36 2 42 c 0
 0 46 0 50 0 80 c 0x80
 0 120 0 120 6 126 c 0
 8 128 16 132 32 140 c 2
 58 150 l 1
 58 232 l 2
 58 304 58 316 60 320 c 0
 66 334 88 336 96 320 c 1
 96 242 l 1
 98 168 l 1
 138 184 l 1
 178 202 l 1x50
 178 280 l 2
 178 348 178 360 180 364 c 0
 182 368 184 372 190 372 c 1x20
178 18 m 1
 178 96 l 1
 136 80 l 1
 96 64 l 1xa0
 96 -16 l 2
 96 -94 96 -96 100 -96 c 1
 140 -78 l 1
 178 -60 l 1x50
 178 18 l 1
EndSplineSet
EndChar
StartChar: accidentals.1
Encoding: 57615 57615 44
Width: 173
GlyphClass: 2
Flags: HMW
VStem: 68 40<-260 -248 -248 -200 -200 -200 -60 -14 -14 16 16 62 62 62 202 248 248 262> 68 108<-260 -64 -200 -64 -90 -64 -98 -14 -98 62 172 199>
Fore
80 336 m 1x80
 88 340 100 336 104 326 c 1
 108 322 108 318 108 262 c 2
 108 202 l 1x80
 128 216 l 2
 148 232 152 234 160 232 c 1
 164 232 172 228 172 222 c 2
 176 218 176 216 176 182 c 0x40
 176 148 176 148 172 144 c 2
 172 140 166 136 140 116 c 2
 108 92 l 1
 108 16 l 1
 108 -60 l 1x80
 128 -46 l 2
 148 -30 152 -28 160 -30 c 1
 164 -32 172 -36 172 -40 c 2
 176 -44 176 -48 176 -80 c 0x40
 176 -116 176 -116 172 -120 c 2
 172 -124 166 -128 140 -148 c 2
 108 -172 l 1
 108 -248 l 2
 108 -312 108 -322 104 -324 c 1
 100 -340 76 -340 70 -324 c 1
 68 -322 68 -318 68 -260 c 2
 68 -200 l 1x80
 48 -216 l 2
 28 -232 24 -232 16 -232 c 0
 12 -232 4 -226 2 -220 c 0
 0 -216 0 -214 0 -180 c 0
 0 -148 0 -146 2 -142 c 0
 4 -138 8 -134 36 -114 c 2
 68 -90 l 1x40
 68 -14 l 1
 68 62 l 1x80
 48 48 l 2
 28 32 24 30 16 32 c 1
 12 32 4 36 2 42 c 0
 0 46 0 48 0 82 c 0
 0 116 0 116 2 120 c 0
 4 124 8 128 36 148 c 2
 68 172 l 1x40
 68 248 l 2
 68 312 68 322 70 324 c 2
 72 330 76 332 80 336 c 1x80
EndSplineSet
EndChar
StartChar: accidentals.3
Encoding: 57616 57616 45
Width: 399
GlyphClass: 2
Flags: HMW
HStem: -144 42G<333 335>
VStem: 68 40<-288 -284 -284 -220 -220 -220 -106 -36 -36 -26 -26 44 44 44 156 224 224 232> 180 40<-260 -256 -256 -188 -188 -188 -32 -4 -4 6 6 76 76 76 226 256 256 291> 294 38<-230 -224 -306 -156 -44 28 28 38 220 284 284 290 290 317>
Fore
306 372 m 1
 316 378 328 372 332 364 c 1
 332 290 l 1
 332 220 l 1
 356 228 l 1
 368 230 380 232 382 232 c 0
 388 232 396 228 400 222 c 1
 400 184 l 1
 400 144 l 1
 398 140 396 136 392 136 c 1
 388 132 336 118 334 118 c 0
 332 118 332 82 332 38 c 2
 332 -44 l 1
 356 -36 l 2
 368 -32 380 -30 382 -30 c 0
 388 -30 396 -36 400 -40 c 1
 400 -80 l 1
 400 -120 l 1
 398 -124 396 -128 392 -128 c 1
 388 -130 336 -144 334 -144 c 0
 332 -144 332 -180 332 -224 c 2
 332 -306 l 1
 324 -320 304 -322 296 -308 c 1
 296 -304 294 -296 294 -230 c 2
 294 -156 l 1
 256 -168 l 1
 220 -176 l 1
 220 -256 l 2
 220 -324 220 -332 218 -336 c 0
 210 -350 190 -348 184 -334 c 1
 180 -332 180 -326 180 -260 c 2
 180 -188 l 1
 178 -188 162 -192 142 -200 c 1
 108 -208 l 1
 108 -284 l 2
 108 -348 108 -360 104 -364 c 1
 100 -380 76 -380 70 -364 c 0
 68 -360 68 -350 68 -288 c 2
 68 -220 l 1
 44 -226 l 2
 32 -228 20 -232 20 -232 c 1
 12 -232 4 -228 2 -220 c 1
 0 -216 0 -212 0 -182 c 0
 0 -152 0 -146 2 -144 c 1
 4 -140 6 -136 10 -134 c 2
 12 -132 66 -116 68 -116 c 1
 68 -36 l 1
 68 44 l 1
 44 36 l 1
 20 32 l 2
 12 32 4 36 2 44 c 2
 0 46 0 50 0 80 c 0
 0 110 0 116 2 120 c 0
 4 124 6 128 10 128 c 1
 12 132 66 146 68 146 c 1
 68 224 l 2
 68 292 68 304 70 306 c 1
 76 320 96 322 104 308 c 0
 106 304 108 296 108 232 c 2
 108 156 l 1
 144 168 l 1
 180 178 l 1
 180 256 l 2
 180 326 182 334 184 336 c 1
 192 352 212 350 218 336 c 0
 220 332 220 328 220 260 c 0
 220 192 220 188 222 188 c 1
 224 190 240 194 260 200 c 2
 294 208 l 1
 294 284 l 2
 294 350 294 360 296 364 c 0
 298 368 300 372 306 372 c 1
294 28 m 1
 294 108 l 1
 294 108 276 102 256 96 c 2
 220 86 l 1
 220 6 l 2
 220 -70 220 -74 222 -74 c 1
 224 -72 240 -68 260 -64 c 2
 294 -54 l 1
 294 28 l 1
180 -4 m 1
 180 76 l 1
 144 64 l 1
 108 56 l 1
 108 -26 l 1
 108 -106 l 1
 114 -104 l 1
 116 -104 134 -98 152 -94 c 2
 180 -84 l 1
 180 -4 l 1
EndSplineSet
EndChar
StartChar: accidentals.0
Encoding: 57617 57617 46
Width: 165
GlyphClass: 2
Flags: HMW
VStem: -8 52<356 376 343 376> -4 46 124 50<-376 -356 -376 -350 -376 -258> 128 42<-96 -68>
Fore
6 380 m 2x40
 16 384 28 382 38 378 c 2
 44 376 l 1
 44 350 l 2x80
 44 336 44 294 42 258 c 0
 40 222 40 192 40 192 c 1
 42 192 66 196 96 202 c 0
 132 208 150 212 152 212 c 0
 158 212 162 208 164 202 c 1
 168 198 l 1
 170 -68 l 2x50
 172 -216 174 -344 174 -356 c 2
 174 -376 l 1x20
 168 -378 l 1
 156 -384 142 -384 128 -378 c 2x10
 124 -376 l 1
 124 -350 l 1
 124 -258 l 2
 126 -222 126 -192 126 -192 c 1
 124 -192 100 -196 72 -202 c 0
 36 -208 16 -212 16 -212 c 2
 8 -212 4 -208 2 -202 c 2
 0 -196 l 1
 -4 68 l 2x60
 -4 216 -8 344 -8 356 c 2
 -8 376 l 1x80
 -4 376 l 1
 0 378 4 380 6 380 c 2x40
130 110 m 0
 130 112 130 112 128 112 c 2
 40 96 l 1
 40 94 36 -112 36 -112 c 1
 38 -112 126 -96 128 -96 c 1x10
 128 -94 130 66 130 110 c 0
EndSplineSet
EndChar
StartChar: accidentals.M2
Encoding: 57618 57618 47
Width: 199
GlyphClass: 2
Flags: HMW
VStem: -20 40<112 136 112 112>
Fore
-12 464 m 1
 0 464 14 464 24 460 c 1
 28 456 l 1
 28 456 22 172 20 136 c 2
 20 112 l 1
 26 116 l 2
 48 132 76 144 104 146 c 0
 132 148 152 140 168 120 c 1
 178 112 184 104 188 92 c 1
 204 62 204 28 190 0 c 0
 184 -14 174 -26 160 -40 c 0
 146 -54 132 -64 100 -88 c 0
 56 -120 52 -126 40 -140 c 0
 34 -148 28 -154 28 -156 c 1
 22 -160 14 -164 8 -164 c 0
 4 -164 -4 -160 -8 -154 c 1
 -16 -148 -16 -166 -20 134 c 0
 -24 284 -26 420 -28 432 c 1
 -28 456 l 1
 -22 460 l 1
 -20 460 -16 462 -12 464 c 1
96 100 m 2
 92 104 88 104 82 104 c 0
 72 104 68 104 60 100 c 0
 44 92 32 72 30 52 c 0
 30 48 28 24 28 -2 c 0
 28 -46 28 -72 32 -94 c 1
 32 -100 l 1
 44 -90 l 2
 60 -76 84 -54 92 -42 c 0
 104 -24 116 -4 120 12 c 0
 122 20 122 24 122 38 c 0
 122 52 122 56 120 64 c 0
 116 84 108 94 96 100 c 2
EndSplineSet
EndChar
StartChar: accidentals.M1
Encoding: 57619 57619 48
Width: 199
GlyphClass: 2
Flags: HMW
VStem: 140 44<-144 -94> 148 44
Fore
156 462 m 1x40
 168 464 184 464 192 460 c 0
 196 458 196 456 196 456 c 1
 196 456 194 322 192 158 c 0x40
 186 -92 184 -140 184 -144 c 1x80
 180 -160 164 -168 152 -160 c 0
 144 -156 140 -154 132 -140 c 1
 120 -126 114 -120 70 -88 c 0
 36 -64 24 -54 10 -40 c 0
 -4 -26 -12 -14 -20 0 c 0
 -32 28 -32 62 -20 92 c 0
 -14 104 -8 112 0 120 c 0
 20 140 40 148 64 146 c 0
 94 144 124 132 144 116 c 2
 148 112 l 1
 148 136 l 2
 148 172 142 456 142 456 c 1
 144 458 152 460 156 462 c 1x40
108 100 m 0
 100 104 100 104 92 104 c 0
 72 104 58 92 50 64 c 0
 48 56 48 52 48 38 c 0
 48 24 48 20 50 12 c 0
 54 -4 64 -24 78 -42 c 0
 88 -54 108 -76 126 -90 c 2
 140 -100 l 1
 140 -94 l 2
 142 -72 142 -46 142 -2 c 0
 140 24 140 48 140 52 c 0x80
 138 68 128 84 120 92 c 1
 116 94 112 98 108 100 c 0
EndSplineSet
EndChar
StartChar: accidentals.M4
Encoding: 57620 57620 49
Width: 361
GlyphClass: 2
Flags: HMW
VStem: -20 40<-84 56 -84 -84 112 136 112 112> 138 46 146 46
Fore
-12 464 m 1xa0
 0 464 14 464 24 460 c 1
 28 456 l 1
 28 456 22 174 20 136 c 2
 20 112 l 1
 28 120 l 2
 48 138 70 148 96 146 c 0
 110 144 124 140 136 132 c 1
 142 126 l 1
 142 126 140 200 138 288 c 0
 136 376 136 448 136 452 c 2
 136 456 l 1
 140 460 l 1
 152 464 164 464 176 462 c 1
 180 460 188 458 190 456 c 1
 190 456 184 172 184 136 c 2
 184 112 l 1xc0
 188 116 l 2
 204 132 232 142 256 144 c 0
 276 148 292 144 312 136 c 0
 346 118 368 72 360 28 c 0
 356 4 344 -16 322 -40 c 0
 308 -56 294 -66 260 -90 c 2
 212 -126 l 1
 212 -128 206 -136 200 -140 c 1
 196 -148 192 -154 188 -156 c 2
 184 -160 176 -164 172 -164 c 0
 164 -164 156 -160 152 -154 c 0
 148 -148 148 -146 146 -88 c 0
 144 -58 144 -32 144 -32 c 1
 140 -40 l 1
 130 -50 114 -64 84 -92 c 0
 48 -124 44 -128 36 -140 c 0
 32 -146 28 -152 26 -156 c 1
 22 -160 14 -164 8 -164 c 0
 4 -164 -4 -160 -8 -154 c 1
 -16 -148 -16 -166 -20 134 c 0
 -24 284 -26 420 -28 432 c 1
 -28 456 l 1
 -22 460 l 1
 -20 460 -16 462 -12 464 c 1xa0
72 100 m 0
 64 106 48 104 40 96 c 1
 32 90 24 72 20 56 c 1
 20 -84 l 1
 22 -92 24 -100 24 -102 c 0
 24 -104 28 -100 34 -92 c 0
 64 -58 80 -28 88 8 c 2
 92 16 92 22 92 40 c 0
 92 52 92 64 90 68 c 2
 88 84 80 96 72 100 c 0
254 100 m 1
 244 106 228 104 216 96 c 0
 206 90 198 76 194 62 c 0
 192 56 192 52 192 8 c 0
 190 -40 190 -66 192 -94 c 2
 192 -100 l 1xa0
 200 -96 l 1
 224 -74 244 -52 256 -36 c 0
 266 -20 272 -8 276 12 c 2
 280 20 280 22 280 40 c 0
 280 56 280 56 276 68 c 0
 272 84 264 96 254 100 c 1
EndSplineSet
EndChar
StartChar: accidentals.M3
Encoding: 57621 57621 50
Width: 361
GlyphClass: 2
Flags: HMW
VStem: -28 56<451 454> -24 48<250 251> -18 38 136 52<116 132> 140 44<188 216> 146 46
Fore
-12 464 m 1x80
 0 464 12 464 22 460 c 1
 28 456 l 1
 28 434 l 2x80
 26 384 24 252 24 250 c 1
 24 250 136 312 138 314 c 1
 138 316 136 344 136 382 c 2
 136 452 l 2x50
 136 456 136 456 140 460 c 1
 156 466 170 466 184 460 c 1x08
 190 456 l 1
 190 436 l 1
 188 424 188 398 188 378 c 2
 188 344 l 1
 226 364 l 2
 260 384 264 388 270 388 c 0
 280 388 288 384 296 376 c 1
 296 364 l 2
 296 356 296 352 292 346 c 0
 290 344 270 332 238 314 c 2
 188 284 l 1x10
 186 280 186 252 184 216 c 2
 184 132 l 1
 184 112 l 1x08
 188 116 l 2
 204 132 232 142 256 144 c 0
 276 148 292 144 312 136 c 0
 346 118 368 72 360 28 c 0
 356 4 344 -16 322 -40 c 0
 308 -56 294 -66 260 -90 c 2
 212 -126 l 1
 212 -128 206 -136 200 -140 c 1
 196 -148 192 -154 188 -156 c 2x10
 184 -160 176 -164 172 -164 c 0
 164 -164 156 -160 152 -154 c 0
 148 -148 148 -146 146 -88 c 0x04
 144 -58 144 -32 144 -32 c 1
 140 -40 l 1
 130 -50 114 -64 84 -92 c 0
 48 -124 44 -128 36 -140 c 0
 32 -146 28 -152 26 -156 c 1
 22 -160 14 -164 8 -164 c 0
 4 -164 -4 -160 -8 -154 c 1
 -16 -148 -16 -156 -18 8 c 0x28
 -20 92 -20 160 -20 162 c 2
 -20 166 l 1
 -66 140 l 2
 -100 120 -112 114 -116 112 c 1
 -126 112 -136 116 -140 124 c 0
 -144 130 -144 132 -144 138 c 0
 -144 144 -144 146 -142 150 c 1
 -140 152 -138 156 -136 156 c 1
 -136 158 -110 172 -80 190 c 0
 -48 208 -24 222 -24 224 c 2
 -24 336 l 2x40
 -26 396 -28 450 -28 452 c 0
 -28 456 -28 456 -22 460 c 1
 -20 460 -16 462 -12 464 c 1x80
140 252 m 2x08
 140 256 140 256 138 256 c 1
 80 224 l 1
 24 192 l 1
 24 186 l 2x48
 24 184 22 166 22 148 c 2
 20 112 l 1x20
 28 120 l 2
 48 138 70 148 96 146 c 0
 110 144 124 140 136 132 c 1x90
 142 126 l 1
 142 126 140 154 140 188 c 2
 140 252 l 2x08
72 100 m 0
 64 106 48 104 40 96 c 1
 32 90 24 72 20 56 c 1
 20 -84 l 1x20
 22 -92 24 -100 24 -102 c 0
 24 -104 28 -100 34 -92 c 0
 64 -58 80 -28 88 8 c 2
 92 16 92 22 92 40 c 0
 92 52 92 64 90 68 c 2
 88 84 80 96 72 100 c 0
254 100 m 1
 244 106 228 104 216 96 c 0
 206 90 198 76 194 62 c 0
 192 56 192 52 192 8 c 0
 190 -40 190 -66 192 -94 c 2
 192 -100 l 1x04
 200 -96 l 1
 224 -74 244 -52 256 -36 c 0
 266 -20 272 -8 276 12 c 2
 280 20 280 22 280 40 c 0
 280 56 280 56 276 68 c 0
 272 84 264 96 254 100 c 1
EndSplineSet
EndChar
StartChar: accidentals.4
Encoding: 57622 57622 51
Width: 250
GlyphClass: 2
Flags: HMW
HStem: 28 102
VStem: 152 98<-109 -32 -34 0> 152 108<-132 -86>
Fore
-6 132 m 1xa0
 -4 134 -4 136 -2 136 c 0
 0 136 20 132 44 130 c 0
 74 128 90 124 92 124 c 1
 96 122 98 118 98 100 c 0
 100 72 108 48 120 32 c 1
 124 28 l 1
 128 32 l 2
 144 48 152 72 152 100 c 0xc0
 152 118 152 122 158 124 c 1
 162 128 252 136 256 134 c 2
 256 134 258 132 260 132 c 1xa0
 260 128 260 126 256 82 c 0
 252 56 250 36 250 32 c 1xc0
 248 28 244 28 232 28 c 0
 200 26 180 20 164 8 c 1
 160 8 156 4 156 4 c 1
 152 0 l 1xa0
 156 -4 l 1
 156 -4 160 -8 164 -8 c 1
 180 -20 196 -24 228 -28 c 0
 244 -28 248 -28 250 -32 c 1xc0
 250 -36 252 -56 256 -82 c 0
 260 -126 260 -128 260 -132 c 1
 258 -132 256 -134 256 -134 c 2
 252 -136 162 -128 158 -124 c 1
 152 -122 152 -118 152 -100 c 0
 152 -72 144 -48 128 -32 c 2
 124 -28 l 1
 120 -32 l 1
 108 -48 100 -72 98 -100 c 0
 98 -118 96 -122 92 -124 c 1
 88 -128 0 -136 -4 -134 c 2
 -6 -134 -8 -132 -8 -132 c 1
 -10 -128 -10 -126 -4 -82 c 0
 -4 -56 0 -36 0 -32 c 1
 2 -28 4 -28 24 -28 c 1
 52 -24 72 -20 88 -8 c 2
 90 -8 94 -4 96 -4 c 1
 96 0 l 1
 96 4 l 1
 94 4 90 8 88 8 c 2
 70 20 50 26 18 28 c 0
 4 28 2 28 0 32 c 1
 0 36 -10 128 -10 128 c 1
 -8 130 -8 132 -6 132 c 1xa0
EndSplineSet
EndChar
StartChar: accidentals.rightparen
Encoding: 57623 57623 52
Width: 116
GlyphClass: 2
Flags: HMW
HStem: 224 40G<14.25 18.25>
VStem: 61.25 52
Fore
9.25 260 m 1
 9.25 262 13.25 264 15.25 264 c 0
 21.25 264 25.25 260 33.25 244 c 0
 77.25 176 105.25 112 113.25 42 c 0
 115.25 22 115.25 -22 113.25 -40 c 0
 105.25 -112 77.25 -176 33.25 -244 c 0
 25.25 -260 21.25 -264 15.25 -264 c 0
 9.25 -264 1.25 -256 1.25 -250 c 0
 1.25 -248 5.25 -244 7.25 -240 c 0
 41.25 -188 57.25 -134 63.25 -56 c 0
 65.25 -36 65.25 36 63.25 56 c 0
 57.25 134 41.25 188 7.25 240 c 0
 5.25 244 1.25 248 1.25 250 c 0
 1.25 254 5.25 260 9.25 260 c 1
EndSplineSet
EndChar
StartChar: accidentals.leftparen
Encoding: 57624 57624 53
Width: 116
GlyphClass: 2
Flags: HMW
VStem: 2.74967 50
Fore
94.75 260 m 1
 100.75 264 106.75 264 110.75 256 c 1
 114.75 252 114.75 248 108.75 240 c 0
 74.75 188 58.75 134 52.75 56 c 0
 50.75 36 50.75 -36 52.75 -56 c 0
 58.75 -134 74.75 -188 108.75 -240 c 0
 110.75 -244 114.75 -248 114.75 -250 c 0
 114.75 -256 106.75 -264 102.75 -264 c 0
 94.75 -264 90.75 -260 82.75 -244 c 0
 38.75 -176 10.75 -112 2.75 -40 c 0
 0.75 -22 0.75 22 2.75 42 c 0
 10.75 112 38.75 176 82.75 244 c 0
 86.75 252 92.75 260 94.75 260 c 1
EndSplineSet
EndChar
StartChar: dots.dot
Encoding: 57625 57625 54
Width: 111
GlyphClass: 2
Flags: HMW
HStem: -56 112
Fore
46 56 m 0
 52 58 68 56 76 54 c 0
 92 48 104 36 110 20 c 0
 112 12 112 12 112 0 c 0
 112 -10 112 -12 110 -18 c 0
 104 -36 92 -48 74 -52 c 2
 68 -56 64 -56 56 -56 c 0
 48 -56 44 -56 40 -52 c 2
 20 -48 10 -36 4 -18 c 1
 0 -12 0 -10 0 0 c 0
 0 10 0 12 4 18 c 1
 4 26 12 36 16 40 c 0
 22 48 36 54 46 56 c 0
EndSplineSet
EndChar
StartChar: noteheads.sM1
Encoding: 57626 57626 55
Width: 493
GlyphClass: 2
Flags: HMW
HStem: -138 276<-18 -18>
VStem: -40 50<-120 -80 -120 2 80 120> 484 52<-80 -40 -40 -40 40 80 80 80>
Fore
-24 136 m 0
 -22 136 -18 138 -16 138 c 0
 -6 138 2 132 8 124 c 1
 10 120 l 1
 10 80 l 1
 12 40 l 1
 16 48 l 2
 40 84 94 116 158 128 c 0
 216 140 280 140 336 128 c 0
 400 116 456 84 480 48 c 2
 484 40 l 1
 484 80 l 1
 486 120 l 1
 488 124 l 2
 494 134 504 140 512 138 c 0
 524 136 532 130 536 120 c 1
 536 0 l 1
 536 -120 l 1
 528 -140 500 -144 488 -124 c 2
 486 -120 l 1
 484 -80 l 1
 484 -40 l 1
 480 -48 l 2
 456 -84 400 -116 336 -128 c 0
 280 -140 216 -140 158 -128 c 0
 94 -116 40 -84 16 -48 c 2
 12 -40 l 1
 10 -80 l 1
 10 -120 l 1
 8 -124 l 1
 0 -134 -8 -140 -18 -138 c 0
 -28 -136 -36 -128 -40 -120 c 1
 -40 2 l 1
 -40 120 l 1
 -38 124 l 1
 -36 132 -30 136 -24 136 c 0
240 108 m 0
 228 112 208 112 200 112 c 1
 184 108 168 96 160 82 c 0
 146 60 142 20 152 -14 c 0
 164 -62 204 -98 258 -110 c 0
 270 -112 292 -112 300 -110 c 0
 320 -104 334 -88 342 -68 c 0
 350 -46 352 -16 344 14 c 0
 332 60 292 96 240 108 c 0
EndSplineSet
EndChar
StartChar: noteheads.s0
Encoding: 57627 57627 56
Width: 493
GlyphClass: 2
Flags: HMW
HStem: 112 24
VStem: 0 494<-10 10>
Fore
214 136 m 4
 256 140 300 136 336 128 c 4
 400 116 456 84 480 48 c 4
 492 32 494 20 494 0 c 4
 494 -20 492 -32 480 -48 c 4
 456 -84 400 -116 336 -128 c 4
 280 -140 216 -140 158 -128 c 4
 94 -116 40 -84 16 -48 c 4
 4 -32 0 -20 0 0 c 4
 0 20 4 32 16 48 c 4
 48 96 124 132 214 136 c 4
240 108 m 4
 228 112 208 112 200 112 c 5
 184 108 168 96 160 82 c 4
 146 60 142 20 152 -14 c 4
 164 -62 204 -98 258 -110 c 4
 270 -112 292 -112 300 -110 c 4
 320 -104 334 -88 342 -68 c 4
 350 -46 352 -16 344 14 c 4
 332 60 292 96 240 108 c 4
EndSplineSet
EndChar
StartChar: noteheads.s1
Encoding: 57628 57628 57
Width: 345
GlyphClass: 2
Flags: HMW
HStem: 104 32
VStem: 4 340<-88 88>
Fore
232 136 m 2
 268 136 l 2
 284 136 288 136 296 134 c 0
 310 130 320 124 328 116 c 0
 336 108 340 100 344 88 c 0
 348 76 348 54 344 38 c 0
 334 -8 316 -46 292 -72 c 0
 260 -104 200 -126 136 -132 c 0
 70 -140 40 -136 20 -116 c 0
 12 -108 8 -100 4 -88 c 0
 0 -76 0 -54 4 -38 c 0
 12 8 32 46 56 70 c 0
 68 84 80 92 104 104 c 0
 140 120 178 132 232 136 c 2
284 104 m 0
 270 108 256 104 228 90 c 0
 206 80 172 60 122 24 c 0
 68 -8 44 -30 36 -44 c 1
 32 -58 30 -72 36 -84 c 0
 46 -104 68 -112 92 -104 c 0
 116 -94 156 -72 224 -24 c 0
 278 8 302 30 310 44 c 0
 316 58 316 72 312 84 c 1
 304 96 296 100 284 104 c 0
EndSplineSet
EndChar
StartChar: noteheads.s2
Encoding: 57629 57629 58
Width: 327
GlyphClass: 2
Flags: HMW
VStem: 1 326
Fore
200 136 m 0
 211 138 240 136 250 136 c 1
 290 126 315 104 326 72 c 0
 328 60 328 36 328 24 c 1
 318 -16 290 -56 250 -88 c 0
 216 -112 176 -128 140 -136 c 0
 124 -138 94 -138 82 -136 c 0
 40 -128 12 -104 3 -70 c 1
 0 -60 0 -36 1 -24 c 0
 12 16 40 56 80 88 c 0
 116 116 158 132 200 136 c 0
EndSplineSet
EndChar
StartChar: noteheads.s0diamond
Encoding: 57630 57630 59
Width: 493
GlyphClass: 2
Flags: W
Fore
234 136 m 2
 240 138 260 136 268 136 c 1
 276 132 290 126 300 120 c 1
 304 116 316 108 326 100 c 0
 372 64 376 62 428 52 c 0
 468 44 484 36 492 20 c 1
 494 12 496 12 496 0 c 0
 496 -12 494 -12 492 -20 c 1
 484 -36 468 -44 428 -52 c 0
 376 -62 372 -64 326 -100 c 0
 306 -116 296 -124 284 -128 c 2
 268 -136 264 -136 248 -136 c 0
 232 -136 226 -136 212 -128 c 2
 200 -124 188 -116 168 -100 c 0
 124 -64 120 -62 68 -52 c 0
 26 -44 12 -36 4 -20 c 0
 0 -12 0 -12 0 0 c 0
 0 12 0 12 4 20 c 0
 12 36 26 44 68 52 c 0
 120 62 124 64 168 100 c 0
 200 124 216 134 234 136 c 2
230 72 m 1
 220 76 208 76 202 74 c 0
 192 70 188 60 184 28 c 0
 182 -12 184 -30 196 -42 c 0
 204 -50 218 -58 244 -66 c 0
 298 -84 308 -78 310 -28 c 0
 312 12 310 30 300 42 c 0
 290 52 266 64 230 72 c 1
EndSplineSet
EndChar
StartChar: noteheads.s1diamond
Encoding: 57631 57631 60
Width: 363
GlyphClass: 2
Flags: HMW
VStem: 2 362
Fore
308 136 m 0
 318 140 332 138 338 136 c 0
 352 130 364 114 364 100 c 0
 364 88 360 76 344 50 c 0
 336 40 332 32 328 28 c 1
 320 12 318 0 316 -30 c 0
 314 -56 312 -68 308 -80 c 1
 300 -92 284 -104 266 -108 c 0
 252 -112 228 -112 200 -108 c 0
 176 -104 156 -104 146 -106 c 0
 134 -108 120 -112 92 -124 c 0
 64 -136 56 -136 44 -136 c 0
 28 -136 22 -136 14 -128 c 0
 0 -116 -4 -100 2 -86 c 1
 4 -76 8 -68 20 -50 c 0
 28 -40 32 -32 36 -28 c 1
 44 -12 46 0 48 32 c 0
 50 56 52 68 56 80 c 1
 64 92 80 104 100 108 c 0
 112 112 136 112 164 108 c 0
 188 104 208 104 218 106 c 0
 230 108 244 112 270 122 c 0
 292 132 300 134 308 136 c 0
278 76 m 1
 272 80 260 82 252 80 c 0
 234 74 206 60 152 22 c 0
 92 -16 74 -34 72 -52 c 0
 72 -68 82 -80 98 -80 c 0
 116 -82 144 -68 212 -22 c 0
 258 8 282 28 288 40 c 0
 296 56 292 72 278 76 c 1
EndSplineSet
EndChar
StartChar: noteheads.s2diamond
Encoding: 57632 57632 61
Width: 367
GlyphClass: 2
Flags: HMW
VStem: 0 368<-104 104>
Fore
318 136 m 0
 322 136 328 138 332 138 c 0
 348 136 356 132 364 116 c 0
 368 108 368 108 368 100 c 0
 368 92 368 92 364 84 c 0
 360 72 354 66 324 40 c 0
 288 8 284 2 260 -52 c 0
 244 -88 236 -104 222 -118 c 0
 208 -132 200 -136 184 -136 c 0
 176 -136 166 -136 144 -132 c 0
 110 -124 104 -124 72 -132 c 0
 52 -136 48 -136 40 -136 c 2
 22 -136 l 1
 16 -132 8 -124 4 -116 c 0
 0 -108 0 -108 0 -100 c 0
 0 -92 0 -92 4 -84 c 0
 10 -72 16 -66 44 -40 c 0
 82 -8 86 -2 108 52 c 0
 124 88 132 104 148 118 c 1
 160 132 170 136 184 136 c 0
 192 136 204 136 224 132 c 0
 258 124 266 124 294 132 c 2
 304 132 314 136 318 136 c 0
EndSplineSet
EndChar
StartChar: noteheads.s0triangle
Encoding: 57633 57633 62
Width: 577
GlyphClass: 2
Flags: HMW
HStem: -220 402
Fore
28 182 m 0
 44 184 42 186 76 168 c 0
 162 128 242 100 332 82 c 0
 396 68 450 64 522 60 c 0
 552 60 556 60 560 58 c 0
 576 52 582 40 576 28 c 0
 572 20 566 16 540 8 c 0
 480 -8 436 -24 384 -48 c 0
 304 -86 236 -136 170 -200 c 0
 148 -220 148 -220 132 -220 c 0
 110 -218 94 -210 92 -198 c 0
 92 -196 92 -192 94 -186 c 0
 96 -180 96 -172 98 -164 c 0
 112 -70 92 24 40 102 c 0
 30 116 16 134 8 144 c 0
 -2 154 -4 160 0 168 c 0
 4 176 12 180 28 182 c 0
208 56 m 2
 160 72 l 1
 132 82 l 1
 140 68 l 2
 164 16 176 -36 176 -92 c 2
 176 -108 l 1
 188 -98 l 2
 246 -52 312 -12 380 14 c 2
 392 18 l 1
 384 20 l 2
 328 28 264 40 208 56 c 2
EndSplineSet
EndChar
StartChar: noteheads.d1triangle
Encoding: 57634 57634 63
Width: 417
GlyphClass: 2
Flags: HMW
VStem: 0 416
Fore
20 164 m 0
 24 166 28 166 32 166 c 1
 40 164 l 1
 58 154 l 2
 116 116 176 92 240 76 c 0
 284 64 324 60 374 58 c 0
 396 56 400 56 404 56 c 1
 416 48 422 36 416 24 c 0
 412 16 406 12 384 4 c 0
 280 -32 194 -92 124 -184 c 0
 116 -194 110 -196 100 -198 c 0
 88 -200 74 -192 68 -184 c 0
 64 -178 64 -174 68 -156 c 0
 72 -136 72 -126 72 -104 c 0
 76 -24 52 52 8 120 c 0
 4 126 0 132 0 136 c 1
 -4 148 4 158 20 164 c 0
132 56 m 0
 124 60 112 64 108 66 c 0
 104 68 102 68 102 68 c 1
 102 68 104 64 104 60 c 1
 120 22 128 -20 132 -68 c 2
 134 -86 l 1
 144 -76 l 2
 180 -44 228 -10 268 12 c 1
 272 12 276 16 276 16 c 1
 276 16 268 16 260 20 c 2
 216 28 174 40 132 56 c 0
EndSplineSet
EndChar
StartChar: noteheads.u1triangle
Encoding: 57635 57635 64
Width: 417
GlyphClass: 2
Flags: HMW
VStem: 0 416
Fore
20 164 m 0
 24 166 28 166 32 166 c 1
 40 164 l 1
 58 154 l 2
 116 116 176 92 240 76 c 0
 284 64 324 60 374 58 c 0
 396 56 400 56 404 56 c 1
 416 48 422 36 416 24 c 0
 412 16 406 12 384 4 c 0
 280 -32 194 -92 124 -184 c 0
 116 -194 110 -196 100 -198 c 0
 88 -200 74 -192 68 -184 c 0
 64 -178 64 -174 68 -156 c 0
 72 -136 72 -126 72 -104 c 0
 76 -24 52 52 8 120 c 0
 4 126 0 132 0 136 c 1
 -4 148 4 158 20 164 c 0
132 56 m 0
 124 60 112 64 108 66 c 0
 104 68 102 68 102 68 c 1
 102 68 104 64 104 60 c 1
 120 22 128 -20 132 -68 c 2
 134 -86 l 1
 144 -76 l 2
 180 -44 228 -10 268 12 c 1
 272 12 276 16 276 16 c 1
 276 16 268 16 260 20 c 2
 216 28 174 40 132 56 c 0
EndSplineSet
EndChar
StartChar: noteheads.u2triangle
Encoding: 57636 57636 65
Width: 347
GlyphClass: 2
Flags: HMW
HStem: -198 362
VStem: 0 340
Fore
16 164 m 0
 28 168 34 166 52 152 c 0
 100 114 156 88 216 72 c 0
 248 64 290 56 320 56 c 2
 332 56 l 1
 350 48 354 28 340 14 c 0
 336 10 334 8 320 4 c 0
 232 -34 160 -94 108 -176 c 0
 96 -194 90 -200 76 -198 c 0
 68 -196 56 -188 56 -178 c 2
 56 -156 l 2
 68 -68 56 18 20 96 c 0
 16 104 12 114 8 120 c 0
 4 126 0 132 0 136 c 0
 -2 148 4 160 16 164 c 0
EndSplineSet
EndChar
StartChar: noteheads.d2triangle
Encoding: 57637 57637 66
Width: 347
GlyphClass: 2
Flags: HMW
HStem: -198 362
VStem: 0 340
Fore
16 164 m 0
 28 168 34 166 52 152 c 0
 100 114 156 88 216 72 c 0
 248 64 290 56 320 56 c 2
 332 56 l 1
 350 48 354 28 340 14 c 0
 336 10 334 8 320 4 c 0
 232 -34 160 -94 108 -176 c 0
 96 -194 90 -200 76 -198 c 0
 68 -196 56 -188 56 -178 c 2
 56 -156 l 2
 68 -68 56 18 20 96 c 0
 16 104 12 114 8 120 c 0
 4 126 0 132 0 136 c 0
 -2 148 4 160 16 164 c 0
EndSplineSet
EndChar
StartChar: noteheads.s0slash
Encoding: 57638 57638 67
Width: 753
GlyphClass: 2
Flags: HMW
HStem: -262 70<117 260 260 330> 192 72<469 496 496 636>
Fore
316 262 m 1
 316 264 406 264 532 264 c 0
 744 264 748 262 752 260 c 1
 752 258 756 252 752 248 c 1
 752 244 444 -260 440 -260 c 1
 440 -262 438 -262 222 -262 c 0
 12 -262 4 -262 4 -260 c 1
 0 -258 0 -252 0 -248 c 1
 2 -248 300 242 310 256 c 0
 312 260 314 260 316 262 c 1
632 184 m 1
 636 192 l 1
 496 192 l 1
 352 192 l 1
 350 188 136 -160 122 -184 c 2
 116 -192 l 1
 260 -192 l 1
 400 -192 l 1
 512 -8 l 1
 632 184 l 1
EndSplineSet
EndChar
StartChar: noteheads.s1slash
Encoding: 57639 57639 68
Width: 585
GlyphClass: 2
Flags: HMW
HStem: -262 70<116 176 176 204> 192 72<410 412 352 512 412 468>
Fore
316 262 m 1
 316 264 372 264 448 264 c 0
 576 264 580 262 584 260 c 1
 584 258 588 252 584 248 c 1
 584 244 276 -260 272 -260 c 1
 272 -262 270 -262 138 -262 c 0
 8 -262 4 -262 4 -260 c 1
 0 -258 0 -252 0 -248 c 1
 2 -248 300 242 310 256 c 0
 312 260 314 260 316 262 c 1
464 184 m 1
 468 192 l 1
 412 192 l 1
 352 192 l 1
 350 188 136 -160 122 -184 c 2
 116 -192 l 1
 176 -192 l 1
 232 -192 l 1
 344 -8 l 1
 464 184 l 1
EndSplineSet
EndChar
StartChar: noteheads.s2slash
Encoding: 57640 57640 69
Width: 427
GlyphClass: 2
Flags: HMW
HStem: 224 40G<356 396>
VStem: 0 428
Fore
316 262 m 1
 316 264 340 264 372 264 c 0
 420 264 424 262 426 260 c 0
 428 258 430 252 428 248 c 0
 426 244 118 -260 116 -260 c 2
 114 -262 112 -262 60 -262 c 0
 8 -262 4 -262 4 -260 c 1
 0 -258 0 -252 0 -248 c 1
 2 -248 300 242 310 256 c 0
 312 260 314 260 316 262 c 1
EndSplineSet
EndChar
StartChar: noteheads.s0cross
Encoding: 57641 57641 70
Width: 427
GlyphClass: 2
Flags: HMW
VStem: 2 426<86 86>
Fore
94 148 m 2
 98 150 104 150 106 148 c 2
 108 148 132 132 162 112 c 2
 216 76 l 1
 268 112 l 2
 296 132 322 148 324 148 c 1
 332 152 332 152 380 120 c 0
 404 104 426 88 428 88 c 1
 430 84 430 72 428 68 c 1
 426 68 404 52 376 34 c 2
 328 0 l 1
 376 -34 l 2
 404 -52 426 -68 428 -68 c 1
 430 -72 430 -84 428 -88 c 1
 426 -88 404 -104 380 -120 c 0
 332 -152 332 -152 324 -148 c 1
 322 -148 296 -132 268 -112 c 2
 216 -76 l 1
 162 -112 l 2
 132 -132 108 -148 106 -148 c 1
 100 -152 98 -152 48 -120 c 0
 24 -104 4 -88 4 -88 c 2
 0 -84 0 -72 4 -68 c 2
 54 -34 l 1
 104 0 l 1
 54 34 l 1
 4 68 l 2
 0 72 0 82 2 86 c 1
 4 88 88 148 94 148 c 2
156 76 m 2
 128 96 104 112 102 114 c 0
 100 116 100 116 72 96 c 0
 58 88 46 78 46 78 c 1
 46 76 68 62 92 44 c 0
 120 26 142 10 144 8 c 1
 146 4 146 -4 144 -8 c 1
 142 -10 120 -26 92 -44 c 0
 68 -62 44 -76 44 -78 c 0
 44 -80 100 -116 100 -116 c 1
 156 -78 l 1
 210 -40 l 1
 216 -40 l 1
 220 -40 l 1
 276 -78 l 1
 330 -116 l 1
 332 -116 384 -80 384 -78 c 0
 384 -76 364 -62 336 -44 c 0
 310 -26 288 -10 288 -8 c 2
 284 -4 284 4 288 8 c 2
 288 10 310 26 336 44 c 0
 364 62 384 76 384 78 c 0
 384 80 332 116 330 116 c 1
 276 78 l 1
 220 42 l 1
 216 42 l 1
 210 42 l 1
 156 76 l 2
EndSplineSet
EndChar
StartChar: noteheads.s1cross
Encoding: 57642 57642 71
Width: 377
GlyphClass: 2
Flags: HMW
HStem: -144 288<74 76 76 84 296 304 72 296>
VStem: 2 376<-90 -74 74 90>
Fore
72 144 m 1
 84 144 l 2
 86 144 110 124 138 104 c 2
 190 64 l 1
 242 104 l 2
 272 128 296 144 296 144 c 1
 304 144 l 2
 308 144 376 94 378 90 c 1
 380 88 380 76 378 74 c 0
 376 72 354 56 328 36 c 2
 280 0 l 1
 328 -36 l 2
 354 -56 376 -72 378 -74 c 0
 380 -76 380 -88 378 -90 c 1
 376 -94 308 -144 304 -144 c 2
 296 -144 l 1
 296 -144 272 -128 242 -104 c 2
 190 -64 l 1
 138 -104 l 2
 108 -128 84 -144 84 -144 c 1
 76 -144 l 2
 72 -144 4 -94 2 -90 c 1
 0 -88 0 -76 2 -74 c 0
 4 -72 26 -56 52 -36 c 2
 100 0 l 1
 52 36 l 2
 26 56 4 72 2 74 c 0
 0 76 0 88 2 90 c 0
 4 92 68 140 72 144 c 1
132 70 m 2
 80 108 l 1
 78 108 44 84 44 82 c 1
 44 82 64 64 92 46 c 0
 116 28 140 10 140 8 c 1
 142 4 142 -4 140 -8 c 1
 140 -10 116 -28 92 -46 c 0
 64 -64 44 -80 44 -82 c 1
 44 -82 52 -88 60 -96 c 1
 80 -108 l 1
 84 -104 l 1
 138 -66 l 2
 168 -44 184 -32 188 -32 c 2
 192 -32 l 2
 196 -32 212 -44 244 -66 c 2
 296 -104 l 1
 300 -108 l 1
 320 -96 l 1
 328 -88 336 -82 336 -82 c 1
 336 -80 316 -64 288 -46 c 0
 264 -28 240 -10 240 -8 c 1
 238 -4 238 4 240 8 c 1
 240 10 264 28 288 46 c 0
 316 64 336 80 336 82 c 1
 336 82 328 88 320 96 c 1
 300 108 l 1
 296 104 l 1
 244 66 l 2
 212 44 196 32 192 32 c 2
 188 32 l 2
 184 32 166 44 132 70 c 2
EndSplineSet
EndChar
StartChar: noteheads.s2cross
Encoding: 57643 57643 72
Width: 327
GlyphClass: 2
Flags: HMW
HStem: -136 272<30 32 32 44 30 288 288 300>
VStem: 0 330<-109 -103 103 109>
Fore
30 136 m 2
 34 140 40 138 44 136 c 1
 106 84 l 1
 164 36 l 1
 224 84 l 2
 256 112 284 136 288 136 c 1
 292 138 296 140 300 136 c 1
 300 136 308 132 316 126 c 0
 328 116 330 112 330 106 c 0
 330 100 328 98 268 48 c 2
 210 0 l 1
 268 -48 l 2
 328 -98 330 -100 330 -106 c 0
 330 -112 328 -116 316 -126 c 0
 308 -132 300 -136 300 -136 c 1
 296 -140 292 -138 288 -136 c 1
 284 -136 256 -112 224 -84 c 2
 164 -36 l 1
 106 -84 l 1
 44 -136 l 1
 40 -138 36 -140 32 -136 c 1
 28 -136 22 -132 16 -126 c 0
 2 -116 0 -112 0 -106 c 0
 0 -100 0 -98 60 -48 c 2
 120 0 l 1
 60 48 l 2
 0 98 0 100 0 106 c 0
 0 112 2 116 16 126 c 0
 22 132 28 136 30 136 c 2
EndSplineSet
EndChar
StartChar: noteheads.s2xcircle
Encoding: 57644 57644 73
Width: 389
GlyphClass: 2
Flags: HMW
HStem: 136 36
VStem: 352 38<-10 0 0 10 -10 26 -10 26>
Fore
180 172 m 1
 228 172 l 1
 272 164 312 144 344 114 c 0
 360 96 376 72 384 48 c 0
 388 32 390 20 390 0 c 0
 390 -20 388 -32 384 -48 c 0
 376 -72 360 -96 344 -114 c 0
 316 -140 286 -156 250 -166 c 0
 228 -172 220 -172 196 -172 c 0
 172 -172 162 -172 142 -166 c 0
 104 -156 74 -140 48 -114 c 0
 42 -108 34 -98 32 -92 c 2
 16 -74 6 -48 2 -28 c 0
 0 -14 0 14 2 28 c 0
 6 48 16 74 32 92 c 2
 44 112 68 134 92 146 c 0
 112 158 144 168 166 172 c 1
 180 172 l 1
216 136 m 1
 188 138 158 134 134 124 c 2
 124 122 106 112 102 110 c 1
 100 108 104 104 148 68 c 0
 172 44 196 26 196 26 c 1
 244 68 l 2
 288 104 292 108 288 110 c 0
 284 112 266 122 256 124 c 2
 246 128 228 132 216 136 c 1
120 42 m 1
 72 84 l 1
 70 84 56 64 52 56 c 0
 46 46 44 38 40 26 c 0
 36 12 36 -12 40 -26 c 0
 44 -38 46 -46 52 -56 c 0
 56 -64 70 -84 72 -84 c 1
 168 0 l 1
 120 42 l 1
328 74 m 0
 324 80 320 84 320 84 c 1
 224 0 l 1
 320 -84 l 1
 320 -84 336 -64 340 -56 c 0
 344 -46 348 -38 352 -26 c 1
 352 0 l 1
 352 26 l 1
 346 44 340 60 328 74 c 0
244 -68 m 0
 220 -44 196 -26 196 -26 c 1
 196 -24 180 -40 148 -68 c 0
 104 -104 100 -108 102 -110 c 1
 104 -110 108 -112 114 -116 c 0
 164 -144 226 -144 276 -116 c 2
 288 -110 l 2
 292 -108 288 -104 244 -68 c 0
EndSplineSet
EndChar
StartChar: noteheads.s0do
Encoding: 57645 57645 74
Width: 493
GlyphClass: 2
Flags: HMW
HStem: -136 272<14 260 240 260 240 478>
Fore
240 136 m 1
 244 140 256 136 260 136 c 1
 264 132 488 -94 492 -100 c 0
 494 -104 496 -108 496 -112 c 0
 496 -120 494 -120 492 -124 c 0
 488 -132 484 -136 478 -136 c 2
 472 -140 22 -140 16 -136 c 2
 12 -136 6 -132 4 -124 c 2
 0 -120 0 -120 0 -112 c 0
 0 -108 0 -104 4 -100 c 1
 4 -96 40 -60 118 18 c 0
 228 128 232 134 240 136 c 1
372 -52 m 1
 292 30 l 1
 248 76 l 1
 186 14 l 2
 152 -20 116 -56 106 -68 c 2
 88 -88 l 1
 248 -88 l 1
 408 -88 l 1
 372 -52 l 1
EndSplineSet
EndChar
StartChar: noteheads.d1do
Encoding: 57646 57646 75
Width: 411
GlyphClass: 2
Flags: HMW
HStem: -136 272<196 196 196 396>
Fore
196 136 m 2
 206 140 216 138 224 132 c 1
 230 124 408 -96 410 -102 c 0
 412 -108 412 -108 412 -114 c 0
 412 -124 406 -132 396 -136 c 1
 392 -140 22 -140 16 -136 c 0
 8 -132 0 -124 0 -114 c 0
 0 -108 0 -108 4 -102 c 2
 6 -96 184 124 188 132 c 1
 192 132 196 136 196 136 c 2
272 -10 m 2
 238 32 210 68 208 68 c 1
 208 72 l 1
 144 -8 l 1
 80 -86 l 1
 144 -88 l 1
 272 -88 l 1
 334 -86 l 1
 272 -10 l 2
EndSplineSet
EndChar
StartChar: noteheads.s1do
Encoding: 57647 57647 76
Width: 411
GlyphClass: 2
Flags: HMW
HStem: -136 272<196 196 196 396>
Fore
196 136 m 2
 206 140 216 138 224 132 c 1
 230 124 408 -96 410 -102 c 0
 412 -108 412 -108 412 -114 c 0
 412 -124 406 -132 396 -136 c 1
 392 -140 22 -140 16 -136 c 0
 8 -132 0 -124 0 -114 c 0
 0 -108 0 -108 4 -102 c 2
 6 -96 184 124 188 132 c 1
 192 132 196 136 196 136 c 2
272 -10 m 2
 238 32 210 68 208 68 c 1
 208 72 l 1
 144 -8 l 1
 80 -86 l 1
 144 -88 l 1
 272 -88 l 1
 334 -86 l 1
 272 -10 l 2
EndSplineSet
EndChar
StartChar: noteheads.d2do
Encoding: 57648 57648 77
Width: 425
GlyphClass: 2
Flags: HMW
HStem: -136 272<206 224 206 408>
Fore
206 136 m 2
 212 140 220 136 224 136 c 1
 228 132 250 108 324 18 c 0
 384 -52 422 -100 424 -102 c 1
 426 -108 426 -108 426 -114 c 0
 424 -124 420 -132 408 -136 c 1
 404 -140 22 -140 16 -136 c 0
 8 -132 0 -124 0 -114 c 0
 0 -108 0 -108 4 -102 c 2
 6 -96 196 132 200 134 c 2
 202 136 204 136 206 136 c 2
EndSplineSet
EndChar
StartChar: noteheads.s2do
Encoding: 57649 57649 78
Width: 425
GlyphClass: 2
Flags: HMW
HStem: -136 272<206 224 206 408>
Fore
206 136 m 2
 212 140 220 136 224 136 c 1
 228 132 250 108 324 18 c 0
 384 -52 422 -100 424 -102 c 1
 426 -108 426 -108 426 -114 c 0
 424 -124 420 -132 408 -136 c 1
 404 -140 22 -140 16 -136 c 0
 8 -132 0 -124 0 -114 c 0
 0 -108 0 -108 4 -102 c 2
 6 -96 196 132 200 134 c 2
 202 136 204 136 206 136 c 2
EndSplineSet
EndChar
StartChar: noteheads.s0re
Encoding: 57650 57650 79
Width: 493
GlyphClass: 2
Flags: HMW
VStem: 0 52<72 88 47 120> 444 50<50 62 62 72 50 88 50 88>
Fore
16 136 m 2
 22 140 472 140 478 136 c 2
 484 136 488 132 492 124 c 1
 496 120 l 1
 494 72 l 2
 494 28 494 24 492 16 c 0
 484 -28 458 -64 418 -90 c 0
 380 -116 338 -130 284 -136 c 0
 270 -138 224 -138 212 -136 c 0
 156 -130 114 -116 76 -90 c 0
 36 -64 12 -28 4 16 c 2
 0 24 0 28 0 72 c 2
 0 120 l 1
 4 124 l 1
 6 132 12 136 16 136 c 2
444 62 m 1
 444 88 l 1
 248 88 l 1
 52 88 l 1
 52 62 l 2
 52 32 52 24 56 8 c 1
 76 -40 132 -76 212 -84 c 1
 226 -88 268 -88 284 -84 c 0
 374 -74 432 -32 444 28 c 1
 444 62 l 1
EndSplineSet
EndChar
StartChar: noteheads.u1re
Encoding: 57651 57651 80
Width: 411
GlyphClass: 2
Flags: HMW
HStem: -136 272<168 208 168 168 208 244>
VStem: 0 52<74 88 45 120> 362 50<62 80 80 88 88 88>
Fore
16 136 m 2
 22 140 392 140 396 136 c 2
 402 136 408 132 410 124 c 1
 412 120 l 1
 412 80 l 1
 412 28 l 2
 404 -54 336 -118 244 -136 c 1
 208 -136 l 1
 168 -136 l 1
 90 -120 30 -72 8 -6 c 0
 0 16 0 20 0 74 c 2
 0 120 l 1
 4 124 l 1
 6 132 12 136 16 136 c 2
362 62 m 2
 362 88 l 1
 208 88 l 1
 52 88 l 1
 52 62 l 2
 52 28 54 12 64 -8 c 0
 100 -80 204 -108 284 -68 c 0
 320 -52 344 -24 356 8 c 0
 360 22 362 32 362 62 c 2
EndSplineSet
EndChar
StartChar: noteheads.d1re
Encoding: 57652 57652 81
Width: 411
GlyphClass: 2
Flags: HMW
HStem: -136 272<168 208 168 168 208 244>
VStem: 0 52<74 88 45 120> 362 50<62 80 80 88 88 88>
Fore
16 136 m 2
 22 140 392 140 396 136 c 2
 402 136 408 132 410 124 c 1
 412 120 l 1
 412 80 l 1
 412 28 l 2
 404 -54 336 -118 244 -136 c 1
 208 -136 l 1
 168 -136 l 1
 90 -120 30 -72 8 -6 c 0
 0 16 0 20 0 74 c 2
 0 120 l 1
 4 124 l 1
 6 132 12 136 16 136 c 2
362 62 m 2
 362 88 l 1
 208 88 l 1
 52 88 l 1
 52 62 l 2
 52 28 54 12 64 -8 c 0
 100 -80 204 -108 284 -68 c 0
 320 -52 344 -24 356 8 c 0
 360 22 362 32 362 62 c 2
EndSplineSet
EndChar
StartChar: noteheads.u2re
Encoding: 57653 57653 82
Width: 425
GlyphClass: 2
Flags: HMW
HStem: -136 272<180 248>
Fore
16 136 m 2
 22 140 404 140 408 136 c 2
 416 136 420 132 424 124 c 2
 426 120 l 1
 426 80 l 2
 426 34 424 24 420 4 c 0
 414 -24 400 -50 376 -72 c 0
 344 -106 300 -128 248 -136 c 0
 232 -138 196 -138 180 -136 c 0
 154 -132 124 -124 106 -112 c 1
 46 -84 8 -32 0 28 c 2
 0 80 l 1
 0 120 l 1
 4 124 l 1
 6 132 12 136 16 136 c 2
EndSplineSet
EndChar
StartChar: noteheads.d2re
Encoding: 57654 57654 83
Width: 425
GlyphClass: 2
Flags: HMW
HStem: -136 272<180 248>
Fore
16 136 m 2
 22 140 404 140 408 136 c 2
 416 136 420 132 424 124 c 2
 426 120 l 1
 426 80 l 2
 426 34 424 24 420 4 c 0
 414 -24 400 -50 376 -72 c 0
 344 -106 300 -128 248 -136 c 0
 232 -138 196 -138 180 -136 c 0
 154 -132 124 -124 106 -112 c 1
 46 -84 8 -32 0 28 c 2
 0 80 l 1
 0 120 l 1
 4 124 l 1
 6 132 12 136 16 136 c 2
EndSplineSet
EndChar
StartChar: noteheads.s0mi
Encoding: 57655 57655 84
Width: 493
GlyphClass: 2
Flags: HMW
VStem: 4 492<-3 3 -3 12 -3 13>
Fore
212 124 m 0
 240 136 244 138 248 138 c 0
 252 138 256 136 284 124 c 0
 362 84 484 20 488 20 c 1
 488 18 490 14 492 12 c 1
 494 8 496 6 496 0 c 0
 496 -6 494 -8 492 -12 c 1
 490 -14 488 -18 488 -20 c 1
 484 -20 362 -84 284 -124 c 0
 256 -136 252 -138 248 -138 c 0
 244 -138 240 -136 212 -124 c 0
 132 -84 10 -20 8 -20 c 1
 8 -18 4 -14 4 -12 c 2
 0 -4 0 4 4 12 c 2
 4 14 8 18 8 20 c 1
 10 20 132 84 212 124 c 0
368 8 m 1
 286 50 l 1
 232 76 l 1
 164 42 l 1
 96 8 l 1
 96 6 260 -76 262 -76 c 0
 264 -76 398 -8 398 -8 c 1
 368 8 l 1
EndSplineSet
EndChar
StartChar: noteheads.s1mi
Encoding: 57656 57656 85
Width: 439
GlyphClass: 2
Flags: HMW
HStem: -136 274<214 221 219 221 219 224>
VStem: 0 440<-3 3>
Fore
212 136 m 0
 214 136 218 138 220 138 c 0
 222 138 226 136 228 136 c 0
 232 136 428 20 432 20 c 1
 432 16 436 14 436 12 c 1
 440 8 440 6 440 0 c 0
 440 -6 440 -8 436 -12 c 1
 436 -14 432 -16 432 -20 c 1
 330 -80 l 2
 256 -120 228 -136 224 -136 c 2
 222 -138 218 -138 216 -136 c 2
 212 -136 184 -120 110 -80 c 2
 8 -20 l 1
 8 -16 4 -14 4 -12 c 1
 0 -8 0 -6 0 0 c 0
 0 6 0 8 4 12 c 1
 4 14 8 16 8 20 c 1
 12 20 208 136 212 136 c 0
332 4 m 1
 260 44 l 1
 208 76 l 1
 148 42 l 1
 88 8 l 1
 160 -34 l 1
 232 -76 l 1
 292 -40 l 1
 352 -8 l 1
 332 4 l 1
EndSplineSet
EndChar
StartChar: noteheads.s2mi
Encoding: 57657 57657 86
Width: 453
GlyphClass: 2
Flags: W
Fore
220 136 m 1
 220 136 224 138 228 138 c 1
 228 138 232 136 236 136 c 0
 240 136 444 20 446 20 c 1
 448 16 448 14 452 12 c 1
 452 8 454 6 454 0 c 0
 454 -6 452 -8 452 -12 c 1
 448 -14 448 -16 446 -20 c 1
 444 -20 396 -48 340 -80 c 0
 268 -118 236 -136 232 -136 c 2
 228 -138 224 -138 222 -136 c 2
 220 -136 184 -118 114 -80 c 2
 8 -20 l 1
 8 -16 4 -14 4 -12 c 1
 0 -8 0 -6 0 0 c 0
 0 6 0 8 4 12 c 1
 4 14 8 16 8 20 c 1
 12 20 214 136 220 136 c 1
EndSplineSet
EndChar
StartChar: noteheads.d0fa
Encoding: 57658 57658 87
Width: 493
GlyphClass: 2
Flags: HMW
VStem: 444 52<-37 2 2 8 8 88 88 88>
Fore
16 136 m 2
 22 140 472 140 478 136 c 2
 484 136 488 132 492 124 c 1
 496 120 l 1
 496 2 l 2
 496 -76 496 -116 494 -120 c 0
 492 -124 488 -132 484 -136 c 1
 476 -138 468 -140 464 -136 c 1
 456 -136 12 90 8 92 c 1
 4 96 0 104 0 112 c 0
 0 120 0 120 4 124 c 2
 6 132 12 136 16 136 c 2
444 8 m 1
 444 88 l 1
 288 88 l 2
 160 88 132 88 136 86 c 1
 136 84 192 56 258 24 c 2
 412 -54 l 1
 444 -72 l 1
 444 8 l 1
EndSplineSet
EndChar
StartChar: noteheads.u0fa
Encoding: 57659 57659 88
Width: 493
GlyphClass: 2
Flags: HMW
VStem: 0 52<-88 -8 -8 0 0 72>
Fore
16 136 m 0
 20 136 24 138 28 138 c 1
 32 136 36 136 60 124 c 0
 264 20 484 -92 486 -92 c 1
 492 -96 496 -104 496 -112 c 0
 496 -120 494 -120 492 -124 c 0
 488 -132 484 -136 478 -136 c 2
 472 -140 22 -140 16 -136 c 2
 12 -136 6 -132 4 -124 c 1
 0 -120 l 1
 0 0 l 1
 0 120 l 1
 4 124 l 1
 6 132 12 136 16 136 c 0
238 -24 m 2
 84 54 l 1
 52 72 l 1
 52 -8 l 1
 52 -88 l 1
 208 -88 l 2
 336 -88 362 -88 360 -86 c 1
 360 -84 304 -56 238 -24 c 2
EndSplineSet
EndChar
StartChar: noteheads.d1fa
Encoding: 57660 57660 89
Width: 411
GlyphClass: 2
Flags: HMW
HStem: -136 272
VStem: 362 50<12 88 88 88>
Fore
16 136 m 2
 22 140 392 140 396 136 c 2
 402 136 408 132 410 124 c 1
 412 120 l 1
 412 2 l 1
 412 -120 l 1
 408 -134 392 -142 378 -136 c 0
 372 -132 14 88 8 92 c 0
 4 96 0 104 0 112 c 0
 0 120 0 120 4 124 c 2
 6 132 12 136 16 136 c 2
362 12 m 2
 362 88 l 1
 240 88 l 2
 168 88 116 88 116 86 c 1
 118 84 360 -66 360 -66 c 1
 362 -66 362 -32 362 12 c 2
EndSplineSet
EndChar
StartChar: noteheads.u1fa
Encoding: 57661 57661 90
Width: 411
GlyphClass: 2
Flags: HMW
VStem: 0 52<-88 -10 -10 0 0 66>
Fore
16 136 m 1
 24 140 30 138 36 136 c 1
 40 132 400 -88 404 -92 c 0
 410 -96 412 -104 412 -112 c 0
 412 -120 412 -120 410 -124 c 1
 408 -132 402 -136 396 -136 c 2
 392 -140 22 -140 16 -136 c 2
 12 -136 6 -132 4 -124 c 1
 0 -120 l 1
 0 0 l 1
 0 120 l 1
 4 124 l 1
 6 132 12 136 16 136 c 1
174 -10 m 1
 52 66 l 1
 52 -10 l 1
 52 -88 l 1
 174 -88 l 2
 244 -88 296 -88 296 -86 c 1
 174 -10 l 1
EndSplineSet
EndChar
StartChar: noteheads.u2fa
Encoding: 57662 57662 91
Width: 425
GlyphClass: 2
Flags: HMW
HStem: -136 272
Fore
16 136 m 2
 22 140 404 140 408 136 c 2
 416 136 420 132 424 124 c 2
 426 120 l 1
 426 2 l 2
 426 -76 426 -116 424 -120 c 0
 420 -134 404 -142 392 -136 c 0
 384 -132 14 88 8 92 c 0
 4 96 0 104 0 112 c 0
 0 120 0 120 4 124 c 2
 6 132 12 136 16 136 c 2
EndSplineSet
EndChar
StartChar: noteheads.d2fa
Encoding: 57663 57663 92
Width: 425
GlyphClass: 2
Flags: W
Fore
16 136 m 1
 24 140 30 138 36 136 c 1
 42 132 412 -88 416 -92 c 1
 424 -96 426 -104 426 -112 c 0
 426 -120 424 -120 424 -124 c 1
 420 -132 416 -136 408 -136 c 2
 404 -140 22 -140 16 -136 c 2
 12 -136 6 -132 4 -124 c 1
 0 -120 l 1
 0 0 l 1
 0 120 l 1
 4 124 l 1
 6 132 12 136 16 136 c 1
EndSplineSet
EndChar
StartChar: noteheads.s0la
Encoding: 57664 57664 93
Width: 493
GlyphClass: 2
Flags: HMW
VStem: 0 52<-88 0 -88 0 0 88> 444 52<-88 0 0 88 88 88>
Fore
16 136 m 2
 22 140 472 140 478 136 c 2
 484 136 488 132 492 124 c 1
 496 120 l 1
 496 0 l 1
 496 -120 l 1
 492 -124 l 1
 488 -132 484 -136 478 -136 c 2
 472 -140 22 -140 16 -136 c 2
 12 -136 6 -132 4 -124 c 1
 0 -120 l 1
 0 0 l 1
 0 120 l 1
 4 124 l 1
 6 132 12 136 16 136 c 2
444 0 m 1
 444 88 l 1
 248 88 l 1
 52 88 l 1
 52 0 l 1
 52 -88 l 1
 248 -88 l 1
 444 -88 l 1
 444 0 l 1
EndSplineSet
EndChar
StartChar: noteheads.s1la
Encoding: 57665 57665 94
Width: 411
GlyphClass: 2
Flags: HMW
VStem: 0 52<-88 0 -88 0 0 88> 362 50<-88 0 0 88 88 88>
Fore
16 136 m 2
 22 140 392 140 396 136 c 2
 402 136 408 132 410 124 c 1
 412 120 l 1
 412 0 l 1
 412 -120 l 1
 410 -124 l 1
 408 -132 402 -136 396 -136 c 2
 392 -140 22 -140 16 -136 c 2
 12 -136 6 -132 4 -124 c 1
 0 -120 l 1
 0 0 l 1
 0 120 l 1
 4 124 l 1
 6 132 12 136 16 136 c 2
362 0 m 1
 362 88 l 1
 208 88 l 1
 52 88 l 1
 52 0 l 1
 52 -88 l 1
 208 -88 l 1
 362 -88 l 1
 362 0 l 1
EndSplineSet
EndChar
StartChar: noteheads.s2la
Encoding: 57666 57666 95
Width: 425
GlyphClass: 2
Flags: HMW
HStem: -136 272<14 408 16 408>
Fore
16 136 m 2
 22 140 404 140 408 136 c 2
 416 136 420 132 424 124 c 2
 426 120 l 1
 426 0 l 1
 426 -120 l 1
 424 -124 l 2
 420 -132 416 -136 408 -136 c 2
 404 -140 22 -140 16 -136 c 2
 12 -136 6 -132 4 -124 c 1
 0 -120 l 1
 0 0 l 1
 0 120 l 1
 4 124 l 1
 6 132 12 136 16 136 c 2
EndSplineSet
EndChar
StartChar: noteheads.s0ti
Encoding: 57667 57667 96
Width: 493
GlyphClass: 2
Flags: HMW
HStem: -136 272<236 260>
VStem: 0 494<38 38>
Fore
224 136 m 0
 236 138 280 136 294 136 c 1
 362 126 424 100 476 60 c 0
 488 50 492 44 494 38 c 0
 496 28 494 20 488 12 c 1
 484 10 266 -132 260 -136 c 1
 250 -140 244 -140 236 -136 c 0
 228 -132 12 10 8 12 c 1
 0 20 0 28 0 38 c 1
 4 44 8 50 20 60 c 0
 76 104 146 132 224 136 c 0
272 86 m 0
 208 92 140 76 84 40 c 2
 72 36 70 32 72 32 c 1
 74 30 246 -80 248 -80 c 1
 248 -80 420 30 424 32 c 1
 424 32 422 36 412 40 c 2
 368 68 324 82 272 86 c 0
EndSplineSet
EndChar
StartChar: noteheads.u1ti
Encoding: 57668 57668 97
Width: 411
GlyphClass: 2
Flags: W
Fore
186 136 m 0
 196 138 232 136 246 136 c 1
 304 126 354 100 396 60 c 0
 408 48 412 40 412 32 c 0
 412 26 412 24 410 20 c 0
 408 16 402 12 314 -60 c 0
 256 -104 220 -136 216 -136 c 2
 210 -140 204 -140 196 -136 c 2
 194 -136 156 -104 100 -60 c 0
 12 12 4 16 4 20 c 1
 0 24 0 26 0 32 c 0
 0 40 4 48 18 60 c 0
 64 104 120 132 186 136 c 0
228 86 m 0
 216 88 196 88 184 86 c 0
 152 82 116 70 88 52 c 0
 76 44 64 36 64 34 c 0
 64 32 208 -80 208 -80 c 1
 252 -44 348 32 348 34 c 1
 342 40 l 1
 308 64 268 82 228 86 c 0
EndSplineSet
EndChar
StartChar: noteheads.d1ti
Encoding: 57669 57669 98
Width: 411
GlyphClass: 2
Flags: W
Fore
186 136 m 0
 196 138 232 136 246 136 c 1
 304 126 354 100 396 60 c 0
 408 48 412 40 412 32 c 0
 412 26 412 24 410 20 c 0
 408 16 402 12 314 -60 c 0
 256 -104 220 -136 216 -136 c 2
 210 -140 204 -140 196 -136 c 2
 194 -136 156 -104 100 -60 c 0
 12 12 4 16 4 20 c 1
 0 24 0 26 0 32 c 0
 0 40 4 48 18 60 c 0
 64 104 120 132 186 136 c 0
228 86 m 0
 216 88 196 88 184 86 c 0
 152 82 116 70 88 52 c 0
 76 44 64 36 64 34 c 0
 64 32 208 -80 208 -80 c 1
 252 -44 348 32 348 34 c 1
 342 40 l 1
 308 64 268 82 228 86 c 0
EndSplineSet
EndChar
StartChar: noteheads.u2ti
Encoding: 57670 57670 99
Width: 425
GlyphClass: 2
Flags: HMW
HStem: -136 272<202 224>
Fore
192 136 m 0
 204 138 240 136 252 136 c 1
 312 126 368 100 410 56 c 0
 422 44 424 40 426 32 c 1
 426 26 426 24 424 20 c 1
 420 16 416 12 324 -60 c 0
 272 -100 228 -134 224 -136 c 0
 220 -138 208 -138 202 -136 c 1
 200 -134 154 -100 102 -60 c 0
 8 12 4 16 4 20 c 1
 0 24 0 26 0 32 c 0
 0 40 4 44 16 56 c 0
 62 104 124 132 192 136 c 0
EndSplineSet
EndChar
StartChar: noteheads.d2ti
Encoding: 57671 57671 100
Width: 425
GlyphClass: 2
Flags: HMW
HStem: -136 272<202 224>
Fore
192 136 m 0
 204 138 240 136 252 136 c 1
 312 126 368 100 410 56 c 0
 422 44 424 40 426 32 c 1
 426 26 426 24 424 20 c 1
 420 16 416 12 324 -60 c 0
 272 -100 228 -134 224 -136 c 0
 220 -138 208 -138 202 -136 c 1
 200 -134 154 -100 102 -60 c 0
 8 12 4 16 4 20 c 1
 0 24 0 26 0 32 c 0
 0 40 4 44 16 56 c 0
 62 104 124 132 192 136 c 0
EndSplineSet
EndChar
StartChar: scripts.ufermata
Encoding: 57672 57672 101
Width: 329
GlyphClass: 2
Flags: HMW
HStem: -16 378
Fore
-20 362 m 0
 -12 364 28 362 36 360 c 0
 98 352 152 324 200 276 c 0
 254 220 296 144 320 54 c 0
 328 28 332 0 332 -4 c 0
 330 -16 316 -20 306 -16 c 0
 298 -12 296 -8 292 8 c 0
 276 88 236 152 180 198 c 0
 148 222 112 240 76 252 c 0
 20 268 -42 264 -98 244 c 0
 -112 240 -140 224 -156 216 c 0
 -226 168 -272 96 -292 8 c 0
 -296 -8 -298 -12 -306 -16 c 0
 -314 -20 -324 -16 -328 -12 c 0
 -332 -8 -332 -4 -328 16 c 0
 -312 96 -280 172 -240 228 c 0
 -180 310 -108 354 -20 362 c 0
-16 112 m 0
 14 120 46 106 60 80 c 1
 68 58 68 38 60 16 c 0
 40 -24 -16 -32 -48 0 c 0
 -64 16 -70 40 -64 62 c 0
 -60 88 -40 108 -16 112 c 0
EndSplineSet
EndChar
StartChar: scripts.dfermata
Encoding: 57673 57673 102
Width: 329
GlyphClass: 2
Flags: W
Fore
-16 16 m 0
 14 24 46 10 60 -16 c 1
 68 -38 68 -58 60 -80 c 0
 40 -120 -16 -128 -48 -96 c 0
 -64 -80 -70 -56 -64 -34 c 0
 -60 -8 -40 12 -16 16 c 0
-324 16 m 0
 -318 18 -312 20 -306 16 c 0
 -298 12 -296 8 -292 -8 c 0
 -272 -96 -226 -168 -156 -216 c 0
 -140 -224 -112 -240 -98 -244 c 0
 -50 -262 0 -266 50 -256 c 0
 76 -252 98 -246 124 -232 c 0
 212 -190 272 -110 292 -8 c 0
 296 8 298 12 306 16 c 0
 314 20 324 16 328 12 c 0
 332 8 332 4 328 -16 c 0
 312 -96 280 -172 240 -228 c 0
 184 -304 116 -348 36 -360 c 0
 20 -364 -20 -364 -36 -360 c 0
 -100 -352 -152 -324 -200 -276 c 0
 -254 -220 -296 -144 -320 -54 c 0
 -328 -28 -332 0 -332 4 c 0
 -332 10 -328 14 -324 16 c 0
EndSplineSet
EndChar
StartChar: scripts.ushortfermata
Encoding: 57674 57674 103
Width: 250
GlyphClass: 2
Flags: HMW
HStem: 0 42G<-237 -229 192 220>
Fore
-8 548 m 0
 -4 548 -2 550 0 550 c 0
 4 550 12 548 14 544 c 0
 18 538 248 24 250 20 c 1
 252 12 246 4 240 2 c 0
 236 0 232 0 208 0 c 0
 176 0 172 0 168 8 c 2
 166 8 122 104 70 220 c 0
 18 336 -24 428 -26 428 c 1
 -120 220 l 1
 -216 8 l 1
 -220 4 -226 0 -232 0 c 0
 -242 0 -252 12 -250 20 c 1
 -248 24 -18 538 -14 544 c 1
 -12 544 -10 548 -8 548 c 0
-40 132 m 0
 -12 140 20 124 34 98 c 0
 44 76 44 56 34 36 c 0
 16 -4 -40 -12 -72 20 c 0
 -80 28 -88 40 -90 52 c 0
 -98 88 -76 124 -40 132 c 0
EndSplineSet
EndChar
StartChar: scripts.dshortfermata
Encoding: 57675 57675 104
Width: 250
GlyphClass: 2
Flags: HMW
HStem: -40 40G<-219 -191 229 237>
Fore
-240 -2 m 0
 -236 0 -232 0 -206 0 c 0
 -176 0 -172 0 -168 -8 c 2
 -166 -8 -122 -104 -70 -220 c 0
 -18 -336 24 -428 26 -428 c 1
 120 -220 l 1
 216 -8 l 1
 220 -4 226 0 232 0 c 0
 242 0 252 -12 250 -20 c 1
 248 -24 18 -538 14 -544 c 0
 12 -548 4 -550 0 -550 c 0
 -4 -550 -12 -548 -14 -544 c 0
 -18 -538 -248 -24 -250 -20 c 1
 -252 -12 -246 -4 -240 -2 c 0
8 -2 m 0
 40 4 72 -8 84 -36 c 0
 94 -56 94 -76 84 -98 c 0
 64 -138 8 -146 -24 -114 c 0
 -32 -106 -38 -92 -40 -80 c 0
 -48 -44 -26 -12 8 -2 c 0
EndSplineSet
EndChar
StartChar: scripts.ulongfermata
Encoding: 57676 57676 105
Width: 311
GlyphClass: 2
Flags: HMW
HStem: 0 42G<290 296> 276 100<-274 0 -274 -274 0 274>
VStem: -312 38<192 276> 274 38<144 194 194 276 276 276>
Fore
-308 372 m 1
 -306 376 l 1
 0 376 l 1
 308 376 l 1
 308 372 l 1
 312 370 l 1
 312 194 l 1
 312 14 l 1
 308 6 300 0 292 0 c 0
 288 0 282 4 280 6 c 0
 274 12 274 4 274 144 c 2
 274 276 l 1
 0 276 l 1
 -274 276 l 1
 -274 144 l 2
 -274 20 -274 16 -276 12 c 0
 -284 -4 -304 -4 -310 12 c 0
 -312 16 -312 36 -312 192 c 2
 -312 368 l 1
 -308 372 l 1
-16 132 m 0
 14 140 46 124 60 98 c 1
 68 76 68 56 60 36 c 0
 40 -4 -16 -12 -48 20 c 0
 -56 28 -64 40 -64 52 c 1
 -72 88 -52 124 -16 132 c 0
EndSplineSet
EndChar
StartChar: scripts.dlongfermata
Encoding: 57677 57677 106
Width: 311
GlyphClass: 2
Flags: HMW
HStem: -376 100<-274 0 -274 0 -306 0> -40 40G<290 296>
VStem: -312 38<-276 -192 -192 -144 -276 -114> 274 38<-276 -194 -194 -144 -144 -74>
Fore
-300 -2 m 0
 -292 2 -280 -2 -276 -12 c 0
 -274 -16 -274 -20 -274 -144 c 2
 -274 -276 l 1
 0 -276 l 1
 274 -276 l 1
 274 -144 l 2
 274 -4 274 -12 280 -6 c 0
 282 -4 288 0 292 0 c 0
 300 0 308 -6 312 -14 c 1
 312 -194 l 1
 312 -370 l 1
 308 -372 l 1
 308 -374 l 1
 0 -376 l 1
 -306 -376 l 1
 -308 -372 l 1
 -312 -368 l 1
 -312 -192 l 2
 -312 -36 -312 -16 -310 -12 c 0
 -308 -8 -304 -4 -300 -2 c 0
-16 -2 m 0
 14 4 46 -8 60 -36 c 0
 68 -56 68 -76 60 -98 c 0
 40 -138 -16 -146 -48 -114 c 0
 -56 -106 -64 -92 -64 -80 c 1
 -72 -44 -52 -12 -16 -2 c 0
EndSplineSet
EndChar
StartChar: scripts.uverylongfermata
Encoding: 57678 57678 107
Width: 373
GlyphClass: 2
Flags: HMW
HStem: 0 42G<-6 6 230 236 354 360> 150 74<-212 0 -212 -212 0 212> 276 124<-336 0 -336 -336 0 336>
VStem: -376 40<204 276> -250 38<118 150> 212 38<84 120 120 150 150 150> 336 40<144 206 206 276 276 276>
Fore
-372 396 m 1
 -368 400 l 1
 0 400 l 1
 370 400 l 1
 372 396 l 1
 376 396 l 1
 376 206 l 2
 376 74 376 16 374 14 c 2
 372 6 364 0 356 0 c 0
 352 0 344 4 342 6 c 0
 336 12 336 4 336 144 c 2
 336 276 l 1
 0 276 l 1
 -336 276 l 1
 -336 144 l 2
 -336 32 -336 16 -340 12 c 1
 -344 -4 -368 -4 -372 12 c 1
 -376 16 -376 36 -376 204 c 2
 -376 394 l 1
 -372 396 l 1
-248 222 m 1
 -244 224 l 1
 0 224 l 1
 244 224 l 1
 248 222 l 1
 250 220 l 1
 250 120 l 2
 250 48 250 16 248 14 c 2
 248 6 240 0 232 0 c 0
 228 0 220 4 216 6 c 1
 212 12 212 12 212 84 c 2
 212 150 l 1
 0 150 l 1
 -212 150 l 1
 -212 84 l 2
 -212 24 -212 16 -214 12 c 0
 -220 -4 -242 -4 -248 12 c 0
 -250 16 -250 28 -250 118 c 2
 -250 220 l 1
 -248 222 l 1
-12 120 m 0
 -4 122 12 120 20 118 c 0
 44 108 60 86 60 60 c 0
 60 36 44 12 20 4 c 0
 12 0 12 0 0 0 c 0
 -12 0 -12 0 -20 4 c 0
 -48 14 -66 44 -60 74 c 0
 -54 96 -36 116 -12 120 c 0
EndSplineSet
EndChar
StartChar: scripts.dverylongfermata
Encoding: 57679 57679 108
Width: 373
GlyphClass: 2
Flags: HMW
HStem: -400 124<-336 0 -336 0 -368 0 0 336> -224 74<-212 0 -212 0 -244 0 0 212> -40 40G<-12 -8 230 236 354 360>
VStem: -376 40<-276 -204 -204 -144 -276 -120> -250 38<-150 -118 -118 -84 -150 -73> 212 38<-150 -120 -220 -84 -220 -48> 336 40<-276 -206 -396 -144>
Fore
-364 -2 m 0
 -354 2 -344 -2 -340 -12 c 1
 -336 -16 -336 -20 -336 -144 c 2
 -336 -276 l 1
 0 -276 l 1
 336 -276 l 1
 336 -144 l 2
 336 -4 336 -12 342 -6 c 0
 344 -4 352 0 356 0 c 0
 364 0 372 -6 374 -14 c 2
 376 -16 376 -74 376 -206 c 2
 376 -396 l 1
 372 -396 l 1
 370 -400 l 1
 0 -400 l 1
 -368 -400 l 1
 -372 -396 l 1
 -376 -394 l 1
 -376 -204 l 2
 -376 -36 -376 -16 -372 -12 c 2
 -372 -8 -368 -4 -364 -2 c 0
-238 -2 m 0
 -228 2 -218 -2 -214 -12 c 0
 -212 -16 -212 -20 -212 -84 c 2
 -212 -150 l 1
 0 -150 l 1
 212 -150 l 1
 212 -84 l 2
 212 -12 212 -12 216 -6 c 1
 220 -4 228 0 232 0 c 0
 240 0 248 -6 248 -14 c 2
 250 -16 250 -48 250 -120 c 2
 250 -220 l 1
 248 -222 l 1
 244 -224 l 1
 0 -224 l 1
 -244 -224 l 1
 -248 -222 l 1
 -250 -220 l 1
 -250 -118 l 2
 -250 -28 -250 -16 -248 -12 c 0
 -246 -8 -244 -4 -238 -2 c 0
-12 0 m 1
 -4 0 12 0 20 -4 c 0
 44 -12 60 -36 60 -60 c 0
 60 -86 44 -108 20 -118 c 0
 12 -120 12 -120 0 -120 c 0
 -12 -120 -12 -120 -20 -118 c 0
 -48 -108 -66 -76 -60 -48 c 0
 -54 -24 -36 -6 -12 0 c 1
EndSplineSet
EndChar
StartChar: scripts.thumb
Encoding: 57680 57680 109
Width: 99
GlyphClass: 2
Flags: HMW
HStem: 96 28<-11 0 0 2>
VStem: -24 48<-169 -158> -20 40<-128 -126>
Fore
-18 124 m 1xa0
 0 124 l 2
 48 124 84 88 96 30 c 0
 100 14 100 -14 96 -30 c 0
 90 -66 72 -96 48 -112 c 0
 40 -116 26 -122 22 -122 c 0
 20 -122 20 -124 20 -128 c 1xa0
 22 -132 22 -146 24 -158 c 1
 24 -180 24 -180 22 -186 c 0
 18 -196 12 -200 0 -200 c 0
 -12 -200 -18 -196 -22 -186 c 0
 -24 -180 -24 -180 -24 -158 c 1xc0
 -22 -146 -22 -132 -20 -128 c 1
 -20 -124 -20 -122 -22 -122 c 0
 -26 -122 -40 -116 -48 -112 c 0
 -72 -96 -90 -66 -96 -30 c 0
 -100 -14 -100 14 -96 30 c 0
 -92 58 -80 80 -64 98 c 0
 -50 112 -36 120 -18 124 c 1xa0
16 92 m 0
 12 94 8 94 2 96 c 1
 -24 96 -38 78 -44 36 c 0
 -48 20 -48 -24 -44 -40 c 0
 -40 -68 -32 -84 -16 -92 c 0
 -10 -94 -8 -94 0 -94 c 0
 8 -94 10 -94 16 -92 c 0
 32 -84 40 -68 44 -40 c 0
 46 -30 46 -24 46 0 c 0
 46 24 46 30 44 40 c 0
 40 68 32 84 16 92 c 0
EndSplineSet
EndChar
StartChar: scripts.sforzato
Encoding: 57681 57681 110
Width: 223
GlyphClass: 2
Flags: HMW
VStem: -224 440<-16 114>
Fore
-214 124 m 1
 -206 124 l 2
 -204 124 -110 100 2 72 c 2
 208 20 l 2
 210 20 214 18 216 16 c 1
 228 12 228 -12 216 -16 c 1
 214 -18 210 -20 208 -20 c 2
 2 -72 l 1
 -204 -124 l 2
 -220 -126 -228 -112 -224 -98 c 1
 -220 -94 -218 -92 -212 -88 c 1
 -208 -88 -152 -72 -84 -56 c 2
 40 -24 l 1
 108 -12 l 2
 146 -6 176 0 176 0 c 1
 176 0 146 6 108 12 c 2
 40 24 l 1
 -84 56 l 2
 -152 72 -208 88 -212 88 c 1
 -218 92 -220 94 -224 98 c 1
 -224 104 -226 108 -224 114 c 1
 -220 120 -220 120 -214 124 c 1
EndSplineSet
EndChar
StartChar: scripts.espr
Encoding: 57682 57682 111
Width: 473
GlyphClass: 2
Flags: W
Fore
-56 124 m 0
 -48 126 -40 124 -36 120 c 2
 -32 116 l 1
 -28 104 -32 96 -40 90 c 0
 -42 88 -100 74 -168 56 c 2
 -292 24 l 1
 -362 12 l 2
 -400 6 -430 0 -430 0 c 1
 -430 0 -400 -6 -362 -12 c 2
 -292 -24 l 1
 -168 -56 l 2
 -100 -74 -42 -88 -40 -90 c 2
 -36 -92 -34 -96 -32 -100 c 0
 -26 -112 -36 -126 -50 -124 c 0
 -52 -124 -144 -100 -256 -72 c 0
 -364 -44 -456 -20 -460 -20 c 1
 -460 -20 -464 -18 -466 -16 c 1
 -478 -12 -478 12 -466 16 c 1
 -464 18 -460 20 -460 20 c 1
 -456 20 -62 122 -56 124 c 0
40 124 m 1
 48 124 l 2
 52 124 144 100 256 72 c 0
 364 44 456 20 460 20 c 1
 460 20 464 18 466 16 c 1
 478 12 478 -12 466 -16 c 1
 464 -18 460 -20 460 -20 c 1
 456 -20 364 -44 256 -72 c 0
 144 -100 52 -124 50 -124 c 0
 36 -126 26 -112 32 -100 c 0
 34 -96 36 -92 40 -90 c 2
 42 -88 100 -74 168 -56 c 2
 294 -24 l 1
 362 -12 l 2
 400 -6 430 0 430 0 c 1
 430 0 400 6 362 12 c 2
 294 24 l 1
 168 56 l 2
 100 74 42 88 40 90 c 0
 38 92 36 92 36 94 c 2
 30 100 28 108 32 114 c 1
 34 120 36 120 40 124 c 1
EndSplineSet
EndChar
StartChar: scripts.staccato
Encoding: 57683 57683 112
Width: 49
GlyphClass: 2
Flags: HMW
HStem: -48 96<-10 -10>
VStem: -48 98
Fore
-12 48 m 0
 20 56 50 32 50 0 c 0
 50 -32 20 -56 -10 -48 c 0
 -28 -44 -44 -30 -48 -12 c 0
 -56 14 -40 42 -12 48 c 0
EndSplineSet
EndChar
StartChar: scripts.ustaccatissimo
Encoding: 57684 57684 113
Width: 49
GlyphClass: 2
Flags: HMW
HStem: -12 262
VStem: -48 96<224 224>
Fore
-14 250 m 0
 12 256 38 244 48 224 c 0
 54 212 56 216 32 100 c 0
 20 44 12 -4 10 -6 c 2
 8 -10 4 -12 0 -12 c 0
 -4 -12 -8 -10 -10 -6 c 2
 -12 -4 -20 44 -32 100 c 0
 -56 216 -54 212 -48 224 c 0
 -42 236 -28 246 -14 250 c 0
EndSplineSet
EndChar
StartChar: scripts.dstaccatissimo
Encoding: 57685 57685 114
Width: 49
GlyphClass: 2
Flags: HMW
HStem: -244 256
VStem: -48 100
Fore
-6 12 m 1
 0 12 l 2
 4 12 8 10 10 6 c 2
 12 4 20 -44 32 -100 c 0
 50 -192 52 -204 52 -210 c 0
 48 -244 8 -260 -28 -244 c 0
 -36 -240 -44 -232 -48 -224 c 0
 -54 -212 -56 -216 -32 -100 c 0
 -20 -44 -12 4 -10 6 c 2
 -10 8 -8 10 -6 12 c 1
EndSplineSet
EndChar
StartChar: scripts.tenuto
Encoding: 57686 57686 115
Width: 149
GlyphClass: 2
Flags: HMW
HStem: -20 40<-136 0 -136 2 0 2 2 136>
Fore
-136 20 m 2
 2 20 l 1
 136 20 l 1
 140 18 l 1
 146 12 150 8 150 0 c 0
 150 -8 146 -12 140 -16 c 2
 136 -20 l 1
 0 -20 l 1
 -136 -20 l 1
 -140 -16 l 1
 -148 -12 -152 -2 -148 8 c 1
 -148 12 -140 20 -136 20 c 2
EndSplineSet
EndChar
StartChar: scripts.uportato
Encoding: 57687 57687 116
Width: 149
GlyphClass: 2
Flags: HMW
HStem: -18 36<-136 0 -136 0 0 136>
VStem: -148 288
Fore
-12 204 m 0
 8 212 32 200 40 176 c 0
 48 146 20 116 -12 126 c 0
 -34 132 -46 156 -40 176 c 0
 -36 190 -24 200 -12 204 c 0
-140 16 m 1
 -136 18 l 1
 0 18 l 1
 136 18 l 1
 140 16 l 2
 152 8 152 -8 140 -16 c 2
 136 -18 l 1
 0 -18 l 1
 -136 -18 l 1
 -140 -16 l 2
 -150 -12 -152 0 -148 10 c 1
 -144 12 -142 16 -140 16 c 1
EndSplineSet
EndChar
StartChar: scripts.dportato
Encoding: 57688 57688 117
Width: 149
GlyphClass: 2
Flags: HMW
HStem: -18 36<-136 0 -136 0 0 136>
VStem: -148 288
Fore
-140 16 m 2
 -136 18 l 1
 0 18 l 1
 136 18 l 1
 140 16 l 2
 152 8 152 -8 140 -16 c 2
 136 -18 l 1
 0 -18 l 1
 -136 -18 l 1
 -140 -16 l 1
 -142 -16 -144 -12 -148 -10 c 1
 -152 0 -150 12 -140 16 c 2
-12 -126 m 0
 8 -120 32 -132 40 -152 c 0
 48 -184 20 -214 -12 -204 c 0
 -34 -196 -46 -176 -40 -152 c 0
 -36 -140 -24 -130 -12 -126 c 0
EndSplineSet
EndChar
StartChar: scripts.umarcato
Encoding: 57689 57689 118
Width: 123
GlyphClass: 2
Flags: HMW
HStem: 0 42G<-116 -112 62 96> 236 40G<-1 1>
VStem: -124 248<10 13 10 13>
Fore
-8 272 m 1
 -4 274 -2 276 0 276 c 0
 2 276 4 274 8 272 c 1
 10 272 16 258 68 144 c 0
 100 72 124 14 124 12 c 0
 124 8 122 4 120 2 c 1
 116 0 112 0 80 0 c 0
 44 0 42 0 40 2 c 1
 36 4 32 12 0 80 c 2
 -32 156 l 1
 -36 152 l 1
 -70 76 l 2
 -100 12 -104 4 -106 2 c 0
 -108 0 -112 0 -112 0 c 1
 -120 0 -124 6 -124 12 c 0
 -124 14 -100 68 -68 144 c 0
 -16 258 -10 272 -8 272 c 1
EndSplineSet
EndChar
StartChar: scripts.dmarcato
Encoding: 57690 57690 119
Width: 123
GlyphClass: 2
Flags: HMW
HStem: -272 272<-96 -8 -96 8>
VStem: -124 248<-13 -10>
Fore
-120 -2 m 1
 -116 0 -112 0 -80 0 c 0
 -44 0 -42 0 -40 -2 c 1
 -36 -4 -32 -12 0 -80 c 2
 34 -156 l 1
 36 -152 l 1
 70 -76 l 2
 100 -12 104 -4 106 -2 c 0
 108 0 112 0 112 0 c 1
 120 0 124 -6 124 -12 c 0
 124 -14 100 -68 68 -144 c 0
 16 -258 10 -272 8 -272 c 1
 4 -276 -4 -276 -8 -272 c 1
 -10 -272 -16 -258 -68 -144 c 0
 -100 -72 -124 -14 -124 -12 c 0
 -124 -8 -122 -4 -120 -2 c 1
EndSplineSet
EndChar
StartChar: scripts.open
Encoding: 57691 57691 120
Width: 99
GlyphClass: 2
Flags: HMW
HStem: -124 28<-10 6 -10 24>
VStem: -96 192<-30 30>
Fore
-18 124 m 1
 0 124 l 2
 48 124 84 88 96 30 c 0
 100 14 100 -14 96 -30 c 0
 86 -88 48 -124 0 -124 c 0
 -48 -124 -86 -88 -96 -30 c 0
 -100 -14 -100 14 -96 30 c 0
 -92 58 -80 80 -64 98 c 0
 -50 112 -36 120 -18 124 c 1
12 92 m 1
 -4 98 -22 92 -34 80 c 0
 -60 52 -64 -20 -44 -64 c 0
 -34 -84 -20 -96 0 -96 c 0
 12 -96 24 -90 34 -80 c 0
 60 -52 64 20 44 64 c 0
 36 80 24 90 12 92 c 1
EndSplineSet
EndChar
StartChar: scripts.stopped
Encoding: 57692 57692 121
Width: 137
GlyphClass: 2
Flags: HMW
HStem: -24 50<-120 -24 -120 -24 -72 -24 26 72 72 90>
VStem: -24 50<-90 -72 -90 -72 -72 -24 -90 -24 26 72>
Fore
-8 138 m 0
 0 140 16 136 20 128 c 1
 26 124 26 122 26 72 c 2
 26 26 l 1
 72 26 l 2
 108 26 120 26 122 24 c 2
 128 24 132 20 136 12 c 0
 138 8 140 8 140 0 c 0
 140 -6 138 -8 136 -12 c 0
 132 -18 128 -22 122 -24 c 1
 72 -24 l 1
 26 -24 l 1
 26 -72 l 2
 26 -108 26 -118 24 -120 c 2
 24 -128 20 -132 12 -136 c 1
 0 -136 l 1
 -12 -136 l 1
 -18 -132 -22 -128 -24 -120 c 1
 -24 -72 l 1
 -24 -24 l 1
 -72 -24 l 1
 -120 -24 l 1
 -128 -22 -132 -18 -136 -12 c 1
 -136 0 l 1
 -136 12 l 1
 -132 20 -128 24 -120 24 c 2
 -118 26 -108 26 -72 26 c 2
 -24 26 l 1
 -24 74 l 1
 -24 122 l 1
 -22 126 l 2
 -20 132 -14 136 -8 138 c 0
EndSplineSet
EndChar
StartChar: scripts.upbow
Encoding: 57693 57693 122
Width: 161
GlyphClass: 2
Flags: HMW
HStem: 0 42G<-4 4>
VStem: -164 328<502 504 501 505>
Fore
-152 518 m 1
 -152 520 -148 520 -146 520 c 0
 -142 520 -134 516 -132 512 c 2
 -84 360 l 1
 -40 212 l 1
 -20 132 l 1
 0 52 l 1
 20 132 l 1
 40 212 l 1
 84 360 l 1
 132 512 l 2
 134 516 140 520 146 520 c 0
 148 520 156 516 158 514 c 0
 160 512 164 506 164 502 c 0
 164 500 132 392 92 262 c 0
 52 132 20 20 18 16 c 0
 16 12 16 8 14 4 c 1
 12 2 8 0 0 0 c 0
 -8 0 -12 2 -14 4 c 1
 -16 8 -16 12 -18 16 c 0
 -20 20 -52 132 -92 262 c 0
 -132 392 -164 500 -164 504 c 0
 -164 506 -160 512 -156 516 c 1
 -156 516 -154 516 -152 518 c 1
EndSplineSet
EndChar
StartChar: scripts.downbow
Encoding: 57694 57694 123
Width: 187
GlyphClass: 2
Flags: HMW
HStem: 0 42G<-176 -168 168 176> 200 132<-156 0 -156 -156 0 156>
VStem: -188 32<168 200> 156 32<106 170 170 200 200 200>
Fore
-184 330 m 1
 -180 332 l 1
 0 332 l 1
 182 332 l 1
 184 330 l 1
 188 328 l 1
 188 170 l 2
 188 20 188 12 184 8 c 1
 182 4 180 0 172 0 c 0
 164 0 162 4 160 8 c 1
 156 12 156 18 156 106 c 2
 156 200 l 1
 0 200 l 1
 -156 200 l 1
 -156 106 l 2
 -156 18 -156 12 -160 8 c 1
 -162 4 -164 0 -172 0 c 0
 -180 0 -182 4 -184 8 c 1
 -188 12 -188 20 -188 168 c 2
 -188 328 l 1
 -184 330 l 1
EndSplineSet
EndChar
StartChar: scripts.reverseturn
Encoding: 57695 57695 124
Width: 271
GlyphClass: 2
Flags: HMW
HStem: -132 264
VStem: -272 28<-24 4> 244 28<-4 24>
Fore
-176 132 m 0
 -150 136 -122 128 -106 112 c 0
 -90 96 -88 76 -96 54 c 0
 -100 46 -110 36 -118 32 c 0
 -128 28 -144 24 -156 28 c 1
 -172 30 -184 40 -190 52 c 0
 -194 58 -196 58 -204 56 c 0
 -228 46 -240 28 -244 4 c 1
 -244 -20 -228 -44 -200 -52 c 1
 -180 -52 l 1
 -156 -52 l 1
 -132 -44 -112 -34 -88 -16 c 0
 -76 -6 -72 -2 -42 26 c 0
 14 80 38 100 68 114 c 0
 112 136 156 138 198 118 c 0
 236 100 262 66 272 24 c 1
 272 12 272 -16 270 -28 c 0
 256 -88 216 -128 164 -132 c 0
 142 -132 120 -126 106 -112 c 0
 90 -96 88 -76 96 -54 c 0
 100 -46 110 -36 118 -32 c 0
 128 -28 144 -24 156 -28 c 1
 172 -30 184 -40 190 -52 c 0
 194 -58 196 -58 204 -56 c 0
 228 -46 240 -28 244 -4 c 1
 244 20 228 44 200 52 c 1
 180 52 l 1
 156 52 l 1
 132 44 112 34 88 16 c 0
 76 6 72 2 44 -26 c 0
 -14 -80 -38 -100 -68 -114 c 0
 -112 -136 -156 -138 -198 -118 c 0
 -236 -100 -262 -66 -272 -24 c 1
 -272 -12 -272 16 -270 28 c 0
 -258 84 -224 122 -176 132 c 0
EndSplineSet
EndChar
StartChar: scripts.turn
Encoding: 57696 57696 125
Width: 271
GlyphClass: 2
Flags: HMW
HStem: -132 262<-158 144>
Fore
-158 130 m 0
 -148 132 -124 132 -112 130 c 0
 -84 124 -52 108 -20 82 c 2
 44 26 l 2
 72 -2 76 -6 88 -16 c 0
 112 -34 132 -44 156 -52 c 1
 180 -52 l 1
 200 -52 l 1
 240 -40 254 -2 234 32 c 0
 228 42 216 50 204 56 c 1
 196 58 194 58 190 52 c 0
 184 40 172 30 156 28 c 1
 144 24 128 28 118 32 c 0
 110 36 100 46 96 54 c 0
 88 76 90 96 106 112 c 0
 124 130 154 136 184 128 c 0
 228 118 260 80 270 28 c 0
 272 16 272 -12 272 -24 c 1
 262 -66 236 -100 198 -118 c 0
 176 -128 156 -132 132 -132 c 0
 110 -132 92 -124 68 -114 c 0
 38 -100 14 -80 -42 -26 c 0
 -72 2 -76 6 -88 16 c 0
 -112 34 -132 44 -156 52 c 1
 -180 52 l 1
 -200 52 l 1
 -240 40 -254 2 -234 -32 c 0
 -228 -42 -216 -50 -204 -56 c 1
 -196 -58 -194 -58 -190 -52 c 0
 -184 -40 -172 -30 -156 -28 c 1
 -144 -24 -128 -28 -118 -32 c 0
 -110 -36 -100 -46 -96 -54 c 0
 -88 -76 -90 -96 -106 -112 c 0
 -124 -130 -154 -136 -184 -128 c 0
 -228 -118 -260 -80 -270 -28 c 0
 -272 -16 -272 12 -272 24 c 1
 -262 66 -236 100 -198 118 c 0
 -184 124 -172 128 -158 130 c 0
EndSplineSet
EndChar
StartChar: scripts.trill
Encoding: 57697 57697 126
Width: 211
GlyphClass: 2
Flags: HMW
HStem: 2 42G<44 59> 236 40G
VStem: -180 80<72 79 63 82>
Fore
-16 534 m 1
 -12 536 -10 540 -10 540 c 1
 -36 406 l 1
 -64 272 l 1
 -60 276 l 1
 -48 282 2 310 10 312 c 2
 20 320 36 324 48 328 c 1
 64 330 88 330 100 328 c 0
 114 324 124 318 132 310 c 1
 140 304 l 1
 144 308 l 1
 156 316 166 324 180 328 c 0
 196 332 214 332 228 330 c 0
 252 324 268 308 274 284 c 0
 278 270 276 244 272 228 c 0
 260 192 236 172 208 172 c 1
 186 176 172 196 174 226 c 0
 176 244 180 256 192 268 c 0
 200 276 216 284 230 284 c 1
 238 286 l 1
 232 292 l 2
 228 296 224 300 220 300 c 2
 202 310 176 304 160 288 c 0
 148 276 148 286 118 132 c 0
 104 56 92 -8 90 -8 c 1
 90 -8 88 -6 84 -4 c 0
 72 0 66 2 52 2 c 0
 36 2 28 0 16 -4 c 1
 8 -8 l 1
 8 -6 20 56 36 130 c 0
 64 278 64 272 60 280 c 0
 52 292 34 298 20 292 c 1
 16 292 -4 280 -28 268 c 2
 -70 244 l 1
 -72 228 l 1
 -76 212 l 1
 -68 202 l 2
 -40 168 -28 140 -26 110 c 0
 -24 90 -28 72 -38 52 c 0
 -46 36 -64 16 -76 6 c 0
 -84 0 -98 -6 -104 -8 c 0
 -114 -10 -128 -10 -134 -8 c 0
 -160 -4 -178 26 -180 72 c 0
 -180 92 -180 104 -168 152 c 0
 -164 176 -160 196 -160 196 c 1
 -160 196 -164 196 -172 192 c 0
 -192 184 -216 178 -236 174 c 0
 -250 172 -276 172 -284 174 c 0
 -304 180 -318 192 -320 212 c 1
 -324 228 -320 246 -312 262 c 1
 -304 272 -292 284 -282 288 c 0
 -254 304 -216 308 -180 296 c 0
 -172 292 -152 284 -148 280 c 1
 -144 278 l 1
 -122 392 l 2
 -108 456 -100 508 -98 508 c 2
 -92 508 l 1
 -84 504 -82 504 -76 504 c 0
 -60 506 -48 512 -32 520 c 1
 -28 524 -20 530 -16 534 c 1
-202 274 m 0
 -212 276 -216 276 -228 278 c 0
 -236 278 -244 276 -248 276 c 0
 -262 276 -276 268 -284 258 c 0
 -296 244 -300 226 -294 212 c 0
 -290 204 -284 200 -272 198 c 0
 -256 196 -226 200 -196 208 c 0
 -186 212 -160 224 -156 224 c 1
 -152 236 l 1
 -150 248 l 1
 -154 252 l 1
 -168 262 -184 270 -202 274 c 0
-74 164 m 0
 -84 180 -82 184 -90 144 c 0
 -100 96 -100 88 -100 70 c 0
 -100 56 -100 52 -98 48 c 1
 -96 40 -86 36 -76 42 c 1
 -68 44 -64 50 -60 60 c 0
 -44 92 -48 130 -74 164 c 0
EndSplineSet
EndChar
StartChar: scripts.upedalheel
Encoding: 57698 57698 127
Width: 123
GlyphClass: 2
Flags: HMW
HStem: -120 284
VStem: -124 36<34 72 72 156> 88 36<70 72 72 152 152 152>
Fore
-112 164 m 1
 -104 168 -92 164 -88 156 c 1
 -88 72 l 2
 -88 -4 -88 -8 -84 -18 c 2
 -84 -28 -78 -40 -72 -48 c 0
 -68 -56 -56 -68 -48 -72 c 0
 -22 -90 12 -92 40 -76 c 0
 64 -64 80 -42 86 -16 c 1
 88 -12 88 20 88 70 c 2
 88 152 l 1
 92 164 104 170 112 164 c 1
 118 164 120 160 124 156 c 1
 124 72 l 2
 124 -16 124 -20 120 -38 c 0
 108 -72 84 -96 54 -112 c 0
 26 -126 -4 -128 -36 -120 c 0
 -46 -116 -64 -108 -76 -100 c 0
 -92 -88 -104 -72 -112 -52 c 2
 -120 -40 -120 -32 -124 -18 c 0
 -126 -4 -126 148 -124 156 c 1
 -120 160 -118 164 -112 164 c 1
EndSplineSet
EndChar
StartChar: scripts.dpedalheel
Encoding: 57699 57699 128
Width: 123
GlyphClass: 2
Flags: HMW
HStem: -168 292
VStem: -124 36<-156 -72 -156 18> 88 36<-115 -70 -70 -45>
Fore
-18 124 m 0
 -2 126 18 124 36 120 c 1
 44 116 64 108 72 102 c 0
 94 86 112 64 120 38 c 0
 124 20 124 16 124 -72 c 0
 124 -158 124 -156 120 -160 c 0
 116 -164 110 -168 106 -168 c 0
 98 -168 90 -160 88 -152 c 1
 88 -70 l 2
 88 -20 88 12 86 16 c 1
 80 42 64 64 40 76 c 0
 4 94 -36 88 -62 62 c 0
 -74 48 -82 36 -84 18 c 2
 -88 8 -88 4 -88 -72 c 2
 -88 -156 l 1
 -96 -172 -116 -172 -124 -156 c 1
 -126 -148 -126 4 -124 18 c 0
 -120 32 -120 40 -112 56 c 0
 -100 80 -80 100 -52 112 c 0
 -42 118 -32 122 -18 124 c 0
EndSplineSet
EndChar
StartChar: scripts.upedaltoe
Encoding: 57700 57700 129
Width: 123
GlyphClass: 2
Flags: HMW
HStem: 8 364<-112 16 -112 -16>
Fore
-112 372 m 1
 -108 376 -104 376 -100 372 c 2
 -96 372 -92 368 -90 364 c 1
 -88 364 -74 316 -56 260 c 2
 -24 156 l 1
 -12 104 l 2
 -6 78 0 56 0 56 c 1
 0 56 6 78 12 104 c 2
 24 156 l 1
 56 260 l 2
 74 316 88 364 90 364 c 1
 92 368 96 372 100 372 c 1
 108 376 120 372 124 364 c 1
 124 356 l 1
 72 186 l 2
 44 94 20 18 20 16 c 1
 16 8 l 1
 12 -4 -12 -4 -16 8 c 1
 -20 16 l 1
 -20 18 -44 94 -72 186 c 2
 -124 356 l 1
 -124 360 -122 366 -120 368 c 0
 -118 370 -116 372 -112 372 c 1
EndSplineSet
EndChar
StartChar: scripts.dpedaltoe
Encoding: 57701 57701 130
Width: 123
GlyphClass: 2
Flags: HMW
HStem: -372 372<-100 4>
Fore
-10 -2 m 2
 -8 0 -4 0 0 0 c 0
 8 0 14 -4 16 -8 c 2
 20 -16 l 1
 20 -18 44 -94 72 -186 c 2
 124 -356 l 1
 124 -364 l 1
 116 -378 96 -380 90 -364 c 2
 88 -364 74 -316 56 -258 c 2
 24 -156 l 1
 12 -104 l 2
 6 -78 0 -56 0 -56 c 1
 0 -56 -6 -78 -12 -104 c 2
 -24 -156 l 1
 -56 -258 l 2
 -74 -316 -88 -364 -90 -364 c 1
 -92 -368 -96 -372 -100 -372 c 1
 -108 -376 -120 -372 -124 -364 c 1
 -124 -356 l 1
 -72 -186 l 2
 -44 -94 -20 -18 -20 -16 c 0
 -20 -12 -16 -4 -10 -2 c 2
EndSplineSet
EndChar
StartChar: scripts.flageolet
Encoding: 57702 57702 131
Width: 131
GlyphClass: 2
Flags: HMW
HStem: 112 20
VStem: -132 20<-9 9 -9 26 -9 26>
Fore
-14 132 m 1
 28 132 l 1
 52 124 76 112 94 94 c 0
 112 76 124 52 132 26 c 1
 132 -26 l 1
 124 -52 112 -76 94 -94 c 0
 76 -112 52 -124 26 -132 c 1
 -26 -132 l 1
 -52 -124 -76 -112 -94 -94 c 0
 -112 -76 -124 -52 -132 -26 c 1
 -132 26 l 1
 -124 52 -112 76 -94 94 c 0
 -76 112 -48 128 -24 132 c 1
 -14 132 l 1
16 112 m 0
 -4 114 -28 112 -44 104 c 0
 -70 92 -92 68 -104 44 c 1
 -108 28 -112 18 -112 0 c 0
 -112 -18 -108 -28 -104 -44 c 0
 -92 -74 -62 -100 -30 -108 c 0
 12 -118 52 -108 80 -78 c 0
 96 -64 104 -46 108 -24 c 1
 112 -12 112 12 108 24 c 1
 104 46 96 64 80 78 c 0
 60 96 40 108 16 112 c 0
EndSplineSet
EndChar
StartChar: scripts.segno
Encoding: 57703 57703 132
Width: 250
GlyphClass: 2
Flags: W
Fore
-124 374 m 0
 -112 376 -88 374 -76 372 c 0
 -50 366 -28 354 -8 334 c 0
 12 312 26 288 32 256 c 0
 36 244 36 218 32 208 c 1
 28 186 14 172 -4 168 c 0
 -44 162 -74 184 -76 224 c 0
 -80 254 -64 280 -44 292 c 1
 -40 292 -38 294 -38 294 c 1
 -36 296 -44 308 -48 314 c 0
 -62 336 -90 348 -116 344 c 0
 -124 342 -140 336 -146 328 c 1
 -156 320 -164 306 -168 292 c 0
 -172 280 -172 256 -168 240 c 0
 -158 180 -118 128 -46 80 c 0
 -32 70 -2 52 0 52 c 1
 94 212 l 1
 188 372 l 2
 190 376 192 376 220 376 c 2
 250 376 l 1
 148 200 l 1
 46 28 l 1
 46 28 48 24 50 24 c 1
 64 16 92 0 106 -10 c 0
 190 -64 236 -122 248 -186 c 1
 248 -220 l 1
 248 -252 l 1
 244 -260 244 -268 240 -274 c 1
 218 -338 162 -378 100 -376 c 0
 64 -372 34 -360 8 -334 c 0
 -12 -312 -26 -288 -32 -256 c 0
 -36 -244 -36 -218 -32 -208 c 1
 -28 -186 -14 -172 4 -168 c 0
 44 -162 74 -184 76 -224 c 0
 80 -254 64 -280 44 -292 c 1
 40 -292 38 -294 38 -294 c 1
 36 -296 44 -308 48 -314 c 0
 62 -336 90 -348 116 -344 c 0
 124 -342 140 -336 146 -328 c 1
 156 -320 164 -306 168 -292 c 0
 172 -280 172 -256 168 -240 c 0
 158 -180 118 -128 46 -80 c 0
 32 -70 2 -52 0 -52 c 1
 -94 -212 l 1
 -188 -372 l 2
 -190 -376 -192 -376 -220 -376 c 2
 -250 -374 l 1
 -148 -200 l 1
 -46 -28 l 1
 -46 -28 -48 -24 -50 -24 c 1
 -64 -16 -92 0 -104 10 c 0
 -190 64 -236 122 -248 188 c 1
 -248 220 l 1
 -248 252 l 1
 -242 276 -236 292 -222 312 c 0
 -214 324 -200 340 -188 348 c 0
 -168 360 -146 372 -124 374 c 0
162 78 m 0
 176 84 192 76 200 64 c 1
 202 56 204 44 200 36 c 1
 196 32 192 28 186 24 c 0
 180 20 180 20 172 20 c 0
 164 20 164 20 160 24 c 1
 144 32 136 52 148 66 c 1
 150 72 156 76 162 78 c 0
-182 -22 m 0
 -168 -16 -152 -24 -144 -36 c 1
 -142 -44 -140 -56 -144 -64 c 1
 -148 -68 -152 -72 -158 -76 c 0
 -164 -80 -164 -80 -172 -80 c 0
 -180 -80 -180 -80 -184 -76 c 1
 -200 -68 -208 -48 -196 -34 c 1
 -194 -28 -188 -24 -182 -22 c 0
EndSplineSet
EndChar
StartChar: scripts.coda
Encoding: 57704 57704 133
Width: 253
GlyphClass: 2
Flags: HMW
HStem: -16 32<-237 -168 -212 -168 -92 -54 -54 -16 16 54 54 92 168 212> 216 32<26 26>
VStem: -164 72<-40 -34 36 40 -40 51> -16 32<-296 -248 -220 -116 -116 -16 16 116 116 220 248 296> 92 72<-40 -34 -50 -16 -50 -16 36 40 40 51>
CounterMasks: 1 00
Fore
-8 352 m 1
 -4 354 4 352 8 350 c 0
 16 346 16 346 16 296 c 2
 16 248 l 1
 24 248 l 1
 76 238 118 198 144 134 c 0
 156 104 164 66 164 36 c 1
 166 30 166 24 168 20 c 1
 168 16 l 1
 212 16 l 2
 252 16 258 16 260 12 c 1
 266 10 268 8 268 0 c 0
 268 -8 266 -10 260 -12 c 1
 258 -16 252 -16 212 -16 c 2
 168 -16 l 1
 168 -20 l 1
 166 -24 166 -30 164 -34 c 1
 164 -66 156 -104 144 -134 c 0
 118 -198 76 -238 24 -248 c 1
 16 -248 l 1
 16 -296 l 2
 16 -336 16 -342 12 -344 c 1
 10 -350 8 -352 0 -352 c 0
 -8 -352 -10 -350 -12 -344 c 1
 -16 -342 -16 -336 -16 -296 c 2
 -16 -248 l 1
 -24 -248 l 1
 -76 -238 -118 -198 -144 -134 c 0
 -156 -104 -164 -66 -164 -34 c 1
 -166 -30 -166 -24 -168 -20 c 1
 -168 -16 l 1
 -212 -16 l 2
 -262 -16 -262 -16 -266 -8 c 0
 -268 -4 -268 4 -266 8 c 0
 -262 16 -262 16 -212 16 c 2
 -168 16 l 1
 -168 20 l 1
 -166 24 -166 30 -164 36 c 1
 -164 66 -156 104 -144 134 c 0
 -118 198 -76 238 -24 248 c 1
 -16 248 l 1
 -16 296 l 2
 -16 344 -14 344 -12 348 c 1
 -12 348 -8 350 -8 352 c 1
-16 116 m 1
 -16 220 l 1
 -20 220 -32 214 -36 212 c 0
 -74 192 -90 142 -92 40 c 2
 -92 16 l 1
 -54 16 l 1
 -16 16 l 1
 -16 116 l 1
26 216 m 1
 22 216 18 218 16 220 c 1
 16 116 l 1
 16 16 l 1
 54 16 l 1
 92 16 l 1
 92 40 l 2
 92 88 88 118 80 144 c 0
 72 184 52 208 26 216 c 1
-16 -116 m 1
 -16 -16 l 1
 -54 -16 l 1
 -92 -16 l 1
 -92 -40 l 2
 -90 -118 -82 -160 -62 -188 c 0
 -52 -204 -40 -212 -16 -220 c 1
 -16 -116 l 1
92 -40 m 2
 92 -16 l 1
 54 -16 l 1
 16 -16 l 1
 16 -116 l 1
 16 -220 l 1
 40 -212 52 -204 62 -188 c 0
 82 -160 90 -118 92 -40 c 2
EndSplineSet
EndChar
StartChar: scripts.varcoda
Encoding: 57705 57705 134
Width: 253
GlyphClass: 2
Flags: HMW
HStem: -250 30<-80 -48 -48 -16 -88 -48 16 48 48 80> -16 32<-237 -168 -212 -168 -80 -48 -48 -16 16 48 48 80 168 212> 220 30<-80 -48 -80 -80 -48 -16 16 48 48 80>
VStem: -168 88<-130 -116 -116 -16 16 118 118 130 130 220> -16 32<-296 -250 -220 -116 -116 -16 16 118 118 220 250 296> 80 88<-220 -130 -130 -116 -116 -16 16 118 118 130 130 220 220 220>
CounterMasks: 1 00
Fore
-8 352 m 1
 -4 354 4 352 8 350 c 0
 16 346 16 346 16 296 c 2
 16 250 l 1
 88 250 l 1
 162 250 l 1
 164 248 l 1
 168 244 l 1
 168 130 l 1
 168 16 l 1
 212 16 l 2
 252 16 258 16 260 12 c 1
 266 10 268 8 268 0 c 0
 268 -8 266 -10 260 -12 c 1
 258 -16 252 -16 212 -16 c 2
 168 -16 l 1
 168 -130 l 1
 168 -244 l 1
 164 -248 l 1
 160 -250 l 1
 88 -250 l 1
 16 -250 l 1
 16 -296 l 2
 16 -336 16 -342 12 -344 c 1
 10 -350 8 -352 0 -352 c 0
 -8 -352 -10 -350 -12 -344 c 1
 -16 -342 -16 -336 -16 -296 c 2
 -16 -250 l 1
 -88 -250 l 1
 -162 -248 l 1
 -164 -248 l 1
 -166 -244 l 1
 -168 -130 l 1
 -168 -16 l 1
 -212 -16 l 2
 -262 -16 -262 -16 -266 -8 c 0
 -268 -4 -268 4 -266 8 c 0
 -262 16 -262 16 -212 16 c 2
 -168 16 l 1
 -168 130 l 1
 -168 244 l 1
 -164 248 l 1
 -160 250 l 1
 -88 250 l 1
 -16 250 l 1
 -16 296 l 2
 -16 344 -14 344 -12 348 c 1
 -12 348 -8 350 -8 352 c 1
-16 118 m 1
 -16 220 l 1
 -48 220 l 1
 -80 220 l 1
 -80 118 l 1
 -80 16 l 1
 -48 16 l 1
 -16 16 l 1
 -16 118 l 1
80 118 m 1
 80 220 l 1
 48 220 l 1
 16 220 l 1
 16 118 l 1
 16 16 l 1
 48 16 l 1
 80 16 l 1
 80 118 l 1
-16 -116 m 1
 -16 -16 l 1
 -48 -16 l 1
 -80 -16 l 1
 -80 -116 l 1
 -80 -220 l 1
 -48 -220 l 1
 -16 -220 l 1
 -16 -116 l 1
80 -116 m 1
 80 -16 l 1
 48 -16 l 1
 16 -16 l 1
 16 -116 l 1
 16 -220 l 1
 48 -220 l 1
 80 -220 l 1
 80 -116 l 1
EndSplineSet
EndChar
StartChar: scripts.rcomma
Encoding: 57706 57706 135
Width: 123
GlyphClass: 2
Flags: HMW
HStem: -152 308
VStem: -2 114
Fore
48 156 m 1
 52 156 64 156 70 154 c 0
 92 146 112 100 112 60 c 0
 112 8 88 -52 36 -128 c 0
 30 -140 22 -148 20 -150 c 1
 16 -152 8 -154 4 -152 c 1
 0 -148 -4 -144 -2 -138 c 1
 -2 -132 -2 -132 6 -120 c 0
 22 -96 36 -62 44 -36 c 0
 56 14 50 58 26 96 c 0
 20 106 18 112 18 122 c 0
 20 138 32 152 48 156 c 1
EndSplineSet
EndChar
StartChar: scripts.lcomma
Encoding: 57707 57707 136
Width: 0
GlyphClass: 2
Flags: HMW
HStem: -156 308<-62 -18>
VStem: -108 112
Fore
-20 152 m 1
 -16 152 -8 152 -4 150 c 0
 0 148 4 142 4 136 c 1
 2 132 0 130 -6 120 c 0
 -22 96 -36 62 -44 36 c 0
 -56 -14 -50 -58 -26 -96 c 0
 -20 -106 -18 -112 -18 -122 c 1
 -20 -136 -28 -148 -40 -154 c 0
 -46 -156 -48 -156 -56 -156 c 0
 -68 -156 -74 -154 -82 -146 c 0
 -92 -136 -102 -116 -108 -98 c 0
 -124 -40 -102 28 -42 120 c 0
 -26 144 -22 150 -20 152 c 1
EndSplineSet
EndChar
StartChar: scripts.rvarcomma
Encoding: 57708 57708 137
Width: 61
GlyphClass: 2
Flags: HMW
HStem: -162 350
VStem: -74 174
Fore
52 188 m 1
 64 188 l 2
 78 188 90 180 96 166 c 0
 100 160 100 160 100 152 c 2
 100 142 l 1
 72 88 l 2
 -24 -108 -50 -160 -54 -162 c 1
 -60 -168 -70 -164 -74 -160 c 0
 -80 -152 -80 -160 -24 10 c 0
 4 96 28 168 30 172 c 0
 36 180 44 184 52 188 c 1
EndSplineSet
EndChar
StartChar: scripts.lvarcomma
Encoding: 57709 57709 138
Width: 61
GlyphClass: 2
Flags: HMW
HStem: -188 352<-65 56>
VStem: -100 174
Fore
56 164 m 1
 62 166 70 164 74 160 c 0
 80 152 80 160 24 -10 c 0
 -4 -96 -28 -168 -30 -172 c 1
 -34 -176 -40 -182 -46 -184 c 2
 -52 -188 -52 -188 -60 -188 c 0
 -70 -188 -72 -188 -76 -184 c 1
 -80 -184 -86 -180 -88 -176 c 2
 -96 -168 -102 -154 -100 -144 c 1
 -98 -140 48 154 52 160 c 2
 56 164 l 1
EndSplineSet
EndChar
StartChar: scripts.arpeggio
Encoding: 57710 57710 139
Width: 199
GlyphClass: 2
Flags: HMW
HStem: -56 360<44 152>
VStem: -2 202
Fore
44 304 m 0
 50 308 56 306 60 304 c 1
 62 300 94 276 130 244 c 0
 204 184 202 186 200 174 c 1
 200 160 l 1
 192 148 184 140 156 116 c 0
 132 96 124 88 120 76 c 1
 108 56 108 32 120 10 c 0
 124 0 128 -2 144 -16 c 0
 164 -32 164 -34 164 -42 c 0
 164 -48 156 -56 148 -56 c 0
 146 -56 144 -56 140 -52 c 1
 138 -52 106 -26 70 4 c 0
 0 64 0 64 -2 74 c 0
 -4 88 6 100 44 132 c 0
 56 144 68 156 72 158 c 1
 78 166 86 180 88 192 c 0
 92 208 88 224 80 240 c 0
 76 250 72 252 56 268 c 1
 44 276 38 280 36 284 c 1
 34 292 38 300 44 304 c 0
EndSplineSet
EndChar
StartChar: scripts.trill_element
Encoding: 57711 57711 140
Width: 250
GlyphClass: 3
Flags: HMW
VStem: -54 360
Fore
68 200 m 2
 72 204 82 202 88 200 c 1
 100 192 110 184 132 156 c 0
 154 132 160 124 172 120 c 1
 196 108 218 108 240 120 c 0
 250 124 252 128 268 144 c 1
 282 164 284 164 292 164 c 0
 300 164 306 156 306 148 c 0
 306 146 304 144 304 140 c 1
 300 138 276 106 244 70 c 0
 186 0 186 0 176 -2 c 0
 162 -4 150 6 116 44 c 0
 106 56 96 68 92 72 c 0
 84 78 68 86 58 88 c 0
 42 92 24 88 10 80 c 0
 0 76 -2 72 -16 56 c 0
 -28 44 -32 38 -34 36 c 1
 -48 32 -60 48 -54 60 c 0
 -52 64 60 196 62 196 c 1
 64 198 66 200 68 200 c 2
EndSplineSet
EndChar
StartChar: scripts.arpeggio.arrow.M1
Encoding: 57712 57712 141
Width: 199
GlyphClass: 2
Flags: HMW
HStem: 0 42G<98 102>
VStem: -60 320<196 202>
Fore
44 304 m 1
 48 308 54 308 58 306 c 1
 60 304 152 208 156 200 c 2
 168 176 l 1
 168 168 l 1
 182 174 l 1
 224 196 l 2
 252 208 252 208 256 208 c 1
 260 204 260 200 260 196 c 1
 256 192 240 176 208 140 c 0
 172 104 164 94 150 78 c 0
 132 56 116 28 108 8 c 0
 104 0 104 0 100 0 c 0
 96 0 96 0 92 12 c 0
 74 52 54 78 -12 144 c 0
 -36 170 -54 190 -58 196 c 1
 -60 196 -60 200 -60 200 c 1
 -60 204 -56 208 -52 208 c 1
 -52 208 -32 200 -8 188 c 2
 40 164 l 1
 44 162 l 1
 58 178 l 2
 74 196 80 204 84 212 c 0
 88 220 88 228 86 236 c 1
 84 240 70 256 52 270 c 0
 44 276 40 282 38 284 c 1
 34 292 38 302 44 304 c 1
EndSplineSet
EndChar
StartChar: scripts.arpeggio.arrow.1
Encoding: 57713 57713 142
Width: 199
GlyphClass: 2
Flags: HMW
VStem: -60 320<47 52>
Fore
96 248 m 1
 96 250 100 250 100 250 c 1
 104 250 104 248 108 238 c 0
 126 198 146 172 212 106 c 0
 236 80 254 60 258 54 c 0
 260 52 260 52 260 48 c 0
 260 46 256 42 252 42 c 1
 208 64 l 2
 184 74 164 84 160 86 c 2
 156 88 l 1
 142 72 l 2
 126 54 120 46 116 36 c 1
 112 30 112 20 114 16 c 1
 116 8 130 -6 148 -20 c 0
 160 -32 164 -36 164 -40 c 0
 164 -52 152 -60 144 -56 c 1
 140 -56 50 42 44 50 c 0
 40 56 36 64 32 76 c 1
 32 82 l 1
 18 76 l 1
 -24 56 l 2
 -52 42 -52 42 -56 44 c 1
 -60 44 -60 48 -60 52 c 1
 -56 58 -40 76 -8 110 c 0
 28 144 36 156 50 172 c 0
 68 194 84 220 92 240 c 1
 92 244 96 248 96 248 c 1
EndSplineSet
EndChar
StartChar: scripts.trilelement
Encoding: 57714 57714 143
Width: 103
GlyphClass: 2
Flags: HMW
HStem: -124 248<-42 36>
VStem: -120 240<-12 12>
Fore
-42 124 m 2
 -34 124 l 2
 -24 124 -24 126 28 60 c 2
 80 0 l 1
 84 4 l 1
 88 12 l 1
 90 8 l 1
 120 -12 l 1
 120 -12 48 -118 48 -120 c 1
 44 -124 38 -124 34 -124 c 0
 24 -124 24 -126 -28 -60 c 2
 -80 0 l 1
 -84 -4 l 1
 -88 -12 l 1
 -90 -8 l 1
 -120 12 l 1
 -120 12 -48 118 -48 120 c 1
 -46 120 -44 124 -42 124 c 2
EndSplineSet
EndChar
StartChar: scripts.prall
Encoding: 57715 57715 144
Width: 207
GlyphClass: 2
Flags: HMW
HStem: -124 248<-146 -67>
Fore
-146 124 m 1
 -138 124 l 2
 -128 124 -128 126 -76 60 c 2
 -24 0 l 1
 16 58 l 2
 36 92 56 118 56 120 c 1
 58 122 64 124 70 124 c 0
 80 124 80 126 132 60 c 2
 184 0 l 1
 198 20 l 1
 204 32 212 44 216 48 c 0
 224 60 244 56 248 44 c 1
 252 38 252 32 250 28 c 0
 248 24 156 -116 152 -120 c 0
 150 -122 144 -124 138 -124 c 0
 128 -124 128 -126 76 -60 c 2
 24 0 l 1
 -16 -58 l 2
 -36 -92 -56 -118 -56 -120 c 1
 -58 -122 -64 -124 -70 -124 c 0
 -80 -124 -80 -126 -132 -60 c 2
 -184 0 l 1
 -198 -20 l 1
 -204 -32 -212 -44 -216 -46 c 1
 -222 -56 -236 -58 -244 -50 c 0
 -250 -44 -252 -36 -250 -28 c 1
 -248 -24 -156 116 -152 120 c 2
 -152 120 -148 122 -146 124 c 1
EndSplineSet
EndChar
StartChar: scripts.mordent
Encoding: 57716 57716 145
Width: 207
GlyphClass: 2
Flags: HMW
HStem: -166 330
VStem: -20 40<-152 -110 -110 -78 -152 -68 -152 -68 68 76 76 110 110 152>
Fore
-8 164 m 0
 0 168 12 166 18 156 c 2
 20 152 l 1
 20 110 l 1
 20 68 l 1
 38 92 l 1
 56 120 l 1
 60 124 66 124 70 124 c 0
 80 124 80 126 132 60 c 2
 184 0 l 1
 198 20 l 1
 204 32 212 44 216 48 c 0
 222 56 236 58 244 50 c 0
 250 44 252 36 250 28 c 1
 248 24 156 -116 152 -120 c 0
 150 -122 144 -124 138 -124 c 0
 128 -124 128 -126 76 -60 c 2
 24 0 l 1
 22 -4 20 -12 20 -78 c 2
 20 -152 l 1
 18 -156 l 1
 12 -164 8 -166 0 -166 c 0
 -8 -166 -12 -164 -16 -156 c 1
 -20 -152 l 1
 -20 -110 l 1
 -20 -68 l 1
 -36 -92 l 1
 -56 -120 l 2
 -60 -124 -64 -124 -70 -124 c 0
 -80 -124 -80 -126 -132 -60 c 2
 -184 0 l 1
 -198 -20 l 1
 -204 -32 -212 -44 -216 -46 c 1
 -222 -56 -236 -58 -244 -50 c 0
 -250 -44 -252 -36 -250 -28 c 1
 -248 -24 -156 116 -152 120 c 0
 -150 122 -144 124 -138 124 c 0
 -128 124 -128 126 -76 60 c 2
 -24 0 l 1
 -22 4 l 1
 -20 6 l 1
 -20 76 l 1
 -20 152 l 1
 -18 156 -12 162 -8 164 c 0
EndSplineSet
EndChar
StartChar: scripts.prallprall
Encoding: 57717 57717 146
Width: 311
GlyphClass: 2
Flags: HMW
HStem: -124 248<-250 -171>
Fore
-250 124 m 1
 -242 124 l 2
 -232 124 -232 126 -180 60 c 2
 -128 0 l 1
 -88 58 l 2
 -68 92 -48 118 -48 120 c 1
 -46 122 -40 124 -34 124 c 0
 -24 124 -24 126 28 60 c 2
 80 0 l 1
 120 58 l 2
 140 92 160 118 160 120 c 1
 162 122 168 124 174 124 c 0
 184 124 184 126 236 60 c 2
 288 0 l 1
 302 20 l 1
 308 32 316 44 320 48 c 0
 328 60 348 56 352 44 c 1
 356 38 356 32 354 28 c 0
 352 24 260 -116 256 -120 c 0
 254 -122 248 -124 242 -124 c 0
 232 -124 232 -126 180 -60 c 2
 128 0 l 1
 88 -58 l 2
 68 -92 48 -118 48 -120 c 1
 46 -122 40 -124 34 -124 c 0
 24 -124 24 -126 -28 -60 c 2
 -80 0 l 1
 -120 -58 l 2
 -140 -92 -160 -118 -160 -120 c 1
 -162 -122 -168 -124 -174 -124 c 0
 -184 -124 -184 -126 -236 -60 c 2
 -288 0 l 1
 -302 -20 l 1
 -308 -32 -316 -44 -320 -46 c 1
 -326 -56 -340 -58 -348 -50 c 0
 -354 -44 -356 -36 -354 -28 c 1
 -352 -24 -260 116 -256 120 c 2
 -256 120 -252 122 -250 124 c 1
EndSplineSet
EndChar
StartChar: scripts.prallmordent
Encoding: 57718 57718 147
Width: 311
GlyphClass: 2
Flags: HMW
HStem: -166 330
VStem: 84 40<-152 -110 -110 -78 -152 -68 -152 -68 68 76 76 110 110 152>
Fore
96 164 m 0
 104 168 116 166 122 156 c 2
 124 152 l 1
 124 110 l 1
 124 68 l 1
 142 92 l 1
 160 120 l 1
 164 124 170 124 174 124 c 0
 184 124 184 126 236 60 c 2
 288 0 l 1
 302 20 l 1
 308 32 316 44 320 48 c 0
 326 56 340 58 348 50 c 0
 354 44 356 36 354 28 c 1
 352 24 260 -116 256 -120 c 0
 254 -122 248 -124 242 -124 c 0
 232 -124 232 -126 180 -60 c 2
 128 0 l 1
 126 -4 124 -12 124 -78 c 2
 124 -152 l 1
 122 -156 l 1
 116 -164 112 -166 104 -166 c 0
 96 -166 92 -164 88 -156 c 1
 84 -152 l 1
 84 -110 l 1
 84 -68 l 1
 68 -92 l 1
 48 -120 l 2
 44 -124 40 -124 34 -124 c 0
 24 -124 24 -126 -28 -60 c 2
 -80 0 l 1
 -120 -58 l 2
 -140 -92 -160 -118 -160 -120 c 1
 -162 -122 -168 -124 -174 -124 c 0
 -184 -124 -184 -126 -236 -60 c 2
 -288 0 l 1
 -302 -20 l 1
 -308 -32 -316 -44 -320 -46 c 1
 -328 -60 -348 -56 -352 -44 c 1
 -356 -38 -356 -32 -354 -28 c 0
 -352 -24 -260 116 -256 120 c 0
 -254 122 -248 124 -242 124 c 0
 -232 124 -232 126 -180 60 c 2
 -128 0 l 1
 -88 58 l 2
 -68 92 -48 118 -48 120 c 1
 -46 122 -40 124 -34 124 c 0
 -24 124 -24 126 28 60 c 2
 80 0 l 1
 82 4 l 1
 84 6 l 1
 84 76 l 1
 84 152 l 1
 86 156 92 162 96 164 c 0
EndSplineSet
EndChar
StartChar: scripts.upprall
Encoding: 57719 57719 148
Width: 311
GlyphClass: 2
Flags: HMW
HStem: -304 428<-339 -242>
VStem: -392 40<-190 -147>
Fore
-250 124 m 1
 -242 124 l 2
 -232 124 -232 126 -180 60 c 2
 -128 0 l 1
 -88 58 l 2
 -68 92 -48 118 -48 120 c 1
 -46 122 -40 124 -34 124 c 0
 -24 124 -24 126 28 60 c 2
 80 0 l 1
 120 58 l 2
 140 92 160 118 160 120 c 1
 162 122 168 124 174 124 c 0
 184 124 184 126 236 60 c 2
 288 0 l 1
 302 20 l 1
 308 32 316 44 320 48 c 0
 328 60 348 56 352 44 c 1
 356 38 356 32 354 28 c 0
 352 24 260 -116 256 -120 c 0
 254 -122 248 -124 242 -124 c 0
 232 -124 232 -126 180 -60 c 2
 128 0 l 1
 88 -58 l 2
 68 -92 48 -118 48 -120 c 1
 46 -122 40 -124 34 -124 c 0
 24 -124 24 -126 -28 -60 c 2
 -80 0 l 1
 -120 -58 l 2
 -140 -92 -160 -118 -160 -120 c 1
 -162 -122 -168 -124 -174 -124 c 0
 -184 -124 -184 -126 -236 -60 c 2
 -288 0 l 1
 -292 -8 l 1
 -296 -12 -304 -26 -312 -36 c 0
 -328 -60 -332 -68 -336 -80 c 2
 -344 -96 -348 -110 -350 -126 c 0
 -352 -142 -352 -176 -352 -190 c 1
 -346 -220 -336 -242 -320 -268 c 0
 -316 -276 -316 -280 -314 -284 c 1
 -314 -292 -316 -296 -324 -300 c 1
 -328 -304 -328 -304 -334 -304 c 0
 -344 -304 -348 -302 -356 -290 c 0
 -368 -272 -380 -244 -386 -220 c 0
 -392 -198 -392 -184 -392 -160 c 0
 -392 -134 -392 -122 -384 -98 c 0
 -376 -64 -368 -48 -326 16 c 2
 -276 92 l 2
 -266 104 -258 118 -256 120 c 2
 -256 120 -252 122 -250 124 c 1
EndSplineSet
EndChar
StartChar: scripts.upmordent
Encoding: 57720 57720 149
Width: 311
GlyphClass: 2
Flags: HMW
HStem: -304 468
VStem: -392 40<-190 -147> 84 40<-152 -110 -110 -78 -152 -68 -152 -68 68 76 76 110 110 152>
Fore
96 164 m 0
 104 168 116 166 122 156 c 2
 124 152 l 1
 124 110 l 1
 124 68 l 1
 142 92 l 1
 160 120 l 1
 164 124 170 124 174 124 c 0
 184 124 184 126 236 60 c 2
 288 0 l 1
 302 20 l 1
 308 32 316 44 320 48 c 0
 326 56 340 58 348 50 c 0
 354 44 356 36 354 28 c 1
 352 24 260 -116 256 -120 c 0
 254 -122 248 -124 242 -124 c 0
 232 -124 232 -126 180 -60 c 2
 128 0 l 1
 126 -4 124 -12 124 -78 c 2
 124 -152 l 1
 122 -156 l 1
 116 -164 112 -166 104 -166 c 0
 96 -166 92 -164 88 -156 c 1
 84 -152 l 1
 84 -110 l 1
 84 -68 l 1
 68 -92 l 1
 48 -120 l 2
 44 -124 40 -124 34 -124 c 0
 24 -124 24 -126 -28 -60 c 2
 -80 0 l 1
 -120 -58 l 2
 -140 -92 -160 -118 -160 -120 c 1
 -162 -122 -168 -124 -174 -124 c 0
 -184 -124 -184 -126 -236 -60 c 2
 -288 0 l 1
 -292 -8 l 1
 -296 -12 -304 -26 -312 -36 c 0
 -328 -60 -332 -68 -336 -80 c 2
 -344 -96 -348 -110 -350 -126 c 0
 -352 -142 -352 -176 -352 -190 c 1
 -346 -220 -336 -242 -320 -268 c 0
 -316 -276 -316 -280 -314 -284 c 1
 -314 -292 -316 -296 -324 -300 c 1
 -328 -304 -328 -304 -334 -304 c 0
 -344 -304 -348 -302 -356 -290 c 0
 -368 -272 -380 -244 -386 -220 c 0
 -392 -198 -392 -184 -392 -160 c 0
 -392 -134 -392 -122 -384 -98 c 0
 -376 -64 -368 -48 -326 16 c 0
 -308 44 -284 78 -276 92 c 2
 -256 120 l 2
 -252 124 -246 124 -242 124 c 0
 -232 124 -232 126 -180 60 c 2
 -128 0 l 1
 -88 58 l 2
 -68 92 -48 118 -48 120 c 1
 -46 122 -40 124 -34 124 c 0
 -24 124 -24 126 28 60 c 2
 80 0 l 1
 82 4 l 1
 84 6 l 1
 84 76 l 1
 84 152 l 1
 86 156 92 162 96 164 c 0
EndSplineSet
EndChar
StartChar: scripts.pralldown
Encoding: 57721 57721 150
Width: 311
GlyphClass: 2
Flags: HMW
VStem: 352 40<-190 -147>
Fore
-184 124 m 1
 -176 126 -164 124 -160 120 c 1
 -160 118 -140 92 -120 58 c 2
 -80 0 l 1
 -28 60 l 2
 24 126 24 124 34 124 c 0
 40 124 46 122 48 120 c 1
 48 118 68 92 88 58 c 2
 128 0 l 1
 180 60 l 2
 232 126 232 124 242 124 c 0
 246 124 252 124 256 120 c 2
 276 92 l 2
 284 78 308 44 326 16 c 0
 368 -48 376 -64 384 -98 c 0
 392 -122 392 -134 392 -160 c 0
 392 -184 392 -198 386 -220 c 0
 380 -244 368 -272 356 -290 c 0
 348 -302 344 -304 334 -304 c 0
 328 -304 328 -304 324 -300 c 1
 316 -296 314 -292 314 -284 c 1
 316 -280 316 -276 320 -268 c 0
 336 -242 346 -220 352 -190 c 1
 352 -176 352 -142 350 -126 c 0
 348 -110 344 -96 336 -80 c 2
 332 -68 328 -60 312 -36 c 0
 304 -26 296 -12 292 -8 c 1
 288 0 l 1
 236 -60 l 2
 184 -126 184 -124 174 -124 c 0
 168 -124 162 -122 160 -120 c 1
 160 -118 140 -92 120 -58 c 2
 80 0 l 1
 28 -60 l 2
 -24 -126 -24 -124 -34 -124 c 0
 -40 -124 -46 -122 -48 -120 c 1
 -48 -118 -68 -92 -88 -58 c 2
 -128 0 l 1
 -180 -60 l 2
 -232 -126 -232 -124 -242 -124 c 0
 -248 -124 -254 -122 -256 -120 c 0
 -260 -116 -352 24 -354 28 c 0
 -356 32 -356 38 -352 44 c 1
 -348 56 -328 60 -320 48 c 0
 -316 44 -308 32 -302 20 c 1
 -288 0 l 1
 -236 60 l 2
 -196 112 -186 122 -184 124 c 1
EndSplineSet
EndChar
StartChar: scripts.downprall
Encoding: 57722 57722 151
Width: 311
GlyphClass: 2
Flags: HMW
HStem: -124 358
Fore
-344 234 m 0
 -334 240 -320 236 -316 224 c 0
 -312 216 -312 212 -320 200 c 0
 -324 192 -330 184 -332 180 c 0
 -352 140 -358 92 -348 48 c 0
 -344 30 -336 4 -332 4 c 1
 -296 62 l 2
 -274 92 -256 120 -256 120 c 2
 -252 124 -246 124 -242 124 c 0
 -232 124 -232 126 -180 60 c 2
 -128 0 l 1
 -88 58 l 2
 -68 92 -48 118 -48 120 c 1
 -46 122 -40 124 -34 124 c 0
 -24 124 -24 126 28 60 c 2
 80 0 l 1
 120 58 l 2
 140 92 160 118 160 120 c 1
 162 122 168 124 174 124 c 0
 184 124 184 126 236 60 c 2
 288 0 l 1
 302 20 l 1
 308 32 316 44 320 48 c 0
 326 56 340 58 348 50 c 0
 354 44 356 36 354 28 c 1
 352 24 260 -116 256 -120 c 0
 254 -122 248 -124 242 -124 c 0
 232 -124 232 -126 180 -60 c 2
 128 0 l 1
 88 -58 l 2
 68 -92 48 -118 48 -120 c 1
 46 -122 40 -124 34 -124 c 0
 24 -124 24 -126 -28 -60 c 2
 -80 0 l 1
 -120 -58 l 2
 -140 -92 -160 -118 -160 -120 c 1
 -162 -122 -168 -124 -174 -124 c 0
 -184 -124 -184 -126 -236 -60 c 2
 -288 0 l 1
 -302 -20 l 2
 -320 -48 -320 -50 -326 -52 c 0
 -334 -56 -344 -56 -350 -48 c 0
 -352 -44 -362 -28 -368 -16 c 0
 -404 56 -400 142 -360 212 c 0
 -352 224 -348 232 -344 234 c 0
EndSplineSet
EndChar
StartChar: scripts.downmordent
Encoding: 57723 57723 152
Width: 311
GlyphClass: 2
Flags: HMW
VStem: 84 40<-152 -110 -110 -78 -152 -68 -152 -68 68 80 80 110 110 152>
Fore
-344 234 m 0
 -334 240 -320 236 -316 224 c 0
 -312 216 -312 212 -320 200 c 0
 -324 192 -330 184 -332 180 c 0
 -352 140 -358 92 -348 48 c 0
 -344 30 -336 4 -332 4 c 1
 -296 62 l 2
 -274 92 -256 120 -256 120 c 2
 -252 124 -246 124 -242 124 c 0
 -232 124 -232 126 -180 60 c 2
 -128 0 l 1
 -88 58 l 2
 -68 92 -48 118 -48 120 c 1
 -46 122 -40 124 -34 124 c 0
 -24 124 -24 126 28 60 c 2
 80 0 l 1
 82 2 l 1
 84 6 l 1
 84 80 l 1
 84 152 l 1
 88 156 l 1
 92 164 96 168 104 168 c 0
 112 168 116 164 122 156 c 1
 124 152 l 1
 124 110 l 1
 124 68 l 1
 142 92 l 1
 160 120 l 1
 164 124 170 124 174 124 c 0
 184 124 184 126 236 60 c 2
 288 0 l 1
 302 20 l 1
 308 32 316 44 320 48 c 0
 326 56 340 58 348 50 c 0
 354 44 356 36 354 28 c 1
 352 24 260 -116 256 -120 c 0
 254 -122 248 -124 242 -124 c 0
 232 -124 232 -126 180 -60 c 2
 128 0 l 1
 126 -4 124 -12 124 -78 c 2
 124 -152 l 1
 122 -156 l 1
 116 -164 112 -166 104 -166 c 0
 96 -166 92 -164 88 -156 c 1
 84 -152 l 1
 84 -110 l 1
 84 -68 l 1
 68 -92 l 1
 48 -120 l 2
 44 -124 40 -124 34 -124 c 0
 24 -124 24 -126 -28 -60 c 2
 -80 0 l 1
 -120 -58 l 2
 -140 -92 -160 -118 -160 -120 c 1
 -162 -122 -168 -124 -174 -124 c 0
 -184 -124 -184 -126 -236 -60 c 2
 -288 0 l 1
 -302 -20 l 2
 -320 -48 -320 -50 -326 -52 c 0
 -334 -56 -344 -56 -350 -48 c 0
 -352 -44 -362 -28 -368 -16 c 0
 -404 56 -400 142 -360 212 c 0
 -352 224 -348 232 -344 234 c 0
EndSplineSet
EndChar
StartChar: scripts.prallup
Encoding: 57724 57724 153
Width: 311
GlyphClass: 2
Flags: HMW
HStem: -124 360
Fore
328 236 m 1
 336 238 344 236 352 228 c 1
 360 214 372 190 380 168 c 0
 400 108 396 42 368 -16 c 0
 362 -28 352 -44 350 -48 c 0
 344 -56 334 -56 326 -52 c 0
 320 -50 320 -48 302 -20 c 2
 288 0 l 1
 236 -60 l 2
 184 -126 184 -124 174 -124 c 0
 168 -124 162 -122 160 -120 c 1
 160 -118 140 -92 120 -58 c 2
 80 0 l 1
 28 -60 l 2
 -24 -126 -24 -124 -34 -124 c 0
 -40 -124 -46 -122 -48 -120 c 1
 -48 -118 -68 -92 -88 -58 c 2
 -128 0 l 1
 -180 -60 l 2
 -232 -126 -232 -124 -242 -124 c 0
 -248 -124 -254 -122 -256 -120 c 0
 -260 -116 -352 24 -354 28 c 0
 -356 32 -356 38 -352 44 c 1
 -348 56 -328 60 -320 48 c 0
 -316 44 -308 32 -302 20 c 1
 -288 0 l 1
 -236 60 l 2
 -184 126 -184 124 -174 124 c 0
 -168 124 -162 122 -160 120 c 1
 -160 118 -140 92 -120 58 c 2
 -80 0 l 1
 -28 60 l 2
 24 126 24 124 34 124 c 0
 40 124 46 122 48 120 c 1
 48 118 68 92 88 58 c 2
 128 0 l 1
 180 60 l 2
 232 126 232 124 242 124 c 0
 246 124 252 124 256 120 c 2
 256 120 274 92 296 62 c 2
 332 4 l 1
 336 4 344 30 348 48 c 0
 360 100 350 152 320 200 c 0
 314 212 312 216 316 224 c 0
 318 228 324 234 328 236 c 1
EndSplineSet
EndChar
StartChar: scripts.lineprall
Encoding: 57725 57725 154
Width: 311
GlyphClass: 2
Flags: HMW
VStem: -356 42<252 295>
Fore
-344 484 m 1
 -334 488 -324 484 -316 476 c 1
 -314 472 l 1
 -314 252 l 1
 -312 34 l 1
 -286 76 l 2
 -272 98 -258 118 -256 120 c 0
 -254 122 -248 124 -242 124 c 0
 -232 124 -232 126 -180 60 c 2
 -128 0 l 1
 -88 58 l 2
 -68 92 -48 118 -48 120 c 1
 -46 122 -40 124 -34 124 c 0
 -24 124 -24 126 28 60 c 2
 80 0 l 1
 120 58 l 2
 140 92 160 118 160 120 c 1
 162 122 168 124 174 124 c 0
 184 124 184 126 236 60 c 2
 288 0 l 1
 302 20 l 1
 308 32 316 44 320 48 c 0
 326 56 340 58 348 50 c 0
 354 44 356 36 354 28 c 1
 352 24 260 -116 256 -120 c 0
 254 -122 248 -124 242 -124 c 0
 232 -124 232 -126 180 -60 c 2
 128 0 l 1
 88 -58 l 2
 68 -92 48 -118 48 -120 c 1
 46 -122 40 -124 34 -124 c 0
 24 -124 24 -126 -28 -60 c 2
 -80 0 l 1
 -120 -58 l 2
 -140 -92 -160 -118 -160 -120 c 1
 -162 -122 -168 -124 -174 -124 c 0
 -184 -124 -184 -126 -236 -60 c 2
 -288 0 l 1
 -302 -20 l 1
 -308 -32 -316 -44 -320 -46 c 1
 -328 -60 -348 -56 -352 -44 c 1
 -356 -40 -356 -30 -356 214 c 0
 -356 376 -356 468 -354 472 c 0
 -352 476 -348 480 -344 484 c 1
EndSplineSet
EndChar
StartChar: scripts.caesura
Encoding: 57726 57726 155
Width: 500
GlyphClass: 2
Flags: HMW
VStem: 100 62<268 277>
Fore
122 312 m 1
 128 312 138 312 144 308 c 2
 152 306 156 300 160 294 c 1
 162 288 162 288 162 276 c 0
 162 256 156 204 148 168 c 0
 132 64 96 -48 44 -168 c 0
 34 -194 32 -196 26 -198 c 0
 20 -200 16 -200 12 -198 c 0
 6 -196 4 -194 2 -188 c 0
 0 -184 0 -180 8 -160 c 0
 58 -36 86 92 100 268 c 0
 100 286 100 288 104 294 c 1
 108 304 112 308 122 312 c 1
272 312 m 1
 278 312 288 312 294 308 c 2
 300 306 306 300 310 294 c 1
 312 288 312 288 312 276 c 0
 312 256 306 204 300 168 c 0
 280 64 246 -48 196 -168 c 0
 184 -194 184 -196 176 -198 c 1
 172 -200 166 -200 160 -198 c 0
 156 -196 154 -194 152 -188 c 1
 148 -184 148 -180 156 -160 c 0
 208 -36 236 92 248 268 c 2
 252 286 252 288 252 294 c 1
 256 304 264 308 272 312 c 1
EndSplineSet
EndChar
StartChar: flags.u3
Encoding: 57727 57727 156
Width: 223
GlyphClass: 2
Flags: HMW
HStem: -40 40G<-34 -16 -16 0 0 0>
VStem: -34 34<-250 -124 -19 -6 -6 0>
Fore
-34 -124 m 1
 -34 0 l 1
 -16 0 l 1
 0 0 l 1
 0 -6 l 2
 0 -32 8 -68 16 -98 c 0
 32 -144 52 -180 100 -260 c 0
 138 -320 152 -344 166 -372 c 0
 186 -414 200 -450 204 -486 c 0
 216 -548 204 -628 180 -708 c 0
 172 -732 168 -742 164 -744 c 1
 160 -748 152 -752 148 -752 c 0
 144 -752 134 -748 132 -744 c 2
 128 -742 124 -734 124 -730 c 0
 124 -728 126 -722 128 -716 c 0
 148 -672 160 -620 164 -574 c 0
 168 -556 168 -528 166 -516 c 0
 158 -444 112 -368 16 -266 c 2
 0 -250 l 1
 -16 -250 l 1
 -34 -250 l 1
 -34 -124 l 1
EndSplineSet
EndChar
StartChar: flags.u4
Encoding: 57728 57728 157
Width: 223
GlyphClass: 2
Flags: HMW
HStem: -40 40G<-34 -16 -16 0 0 0>
VStem: -34 34<-500 -464 -464 -426 -223 -218 -218 -212 -12 0> 160 44<-468 -460 -476 -442 -476 -442> 166 40
Fore
-34 -250 m 1xd0
 -34 0 l 1
 -16 0 l 1
 0 0 l 1
 0 -12 l 2
 4 -52 14 -90 36 -132 c 0
 52 -160 64 -180 102 -236 c 2
 138 -288 l 2
 180 -356 200 -408 204 -460 c 0xe0
 204 -492 198 -524 184 -552 c 1
 184 -558 180 -564 180 -564 c 1
 180 -568 184 -574 186 -580 c 0
 196 -604 204 -636 208 -664 c 0
 210 -678 208 -708 206 -728 c 0
 202 -768 190 -812 172 -856 c 0
 166 -868 164 -872 156 -876 c 0
 150 -878 146 -878 140 -876 c 0
 132 -872 128 -868 126 -864 c 1
 124 -856 124 -852 130 -840 c 0
 150 -796 162 -752 166 -708 c 0
 168 -666 164 -636 144 -598 c 0
 130 -568 112 -542 80 -506 c 0
 68 -492 20 -444 8 -432 c 1
 0 -426 l 1
 0 -464 l 1
 0 -500 l 1
 -16 -500 l 1
 -34 -500 l 1
 -34 -250 l 1xd0
68 -284 m 2
 64 -276 44 -256 28 -240 c 2
 0 -212 l 1
 0 -218 l 2
 0 -228 2 -244 4 -258 c 0
 8 -284 18 -306 32 -334 c 0
 48 -364 64 -388 108 -452 c 0
 120 -472 136 -496 144 -504 c 1
 152 -518 l 1
 156 -512 l 1
 160 -496 160 -488 160 -468 c 2
 160 -442 l 1
 148 -392 122 -344 68 -284 c 2
EndSplineSet
EndChar
StartChar: flags.u5
Encoding: 57729 57729 158
Width: 207
GlyphClass: 2
Flags: HMW
HStem: -40 40G<-34 -16 -16 0 0 0>
VStem: -34 34<-750 -698 -698 -648 -453 -438 -438 -430 -226 -219 -12 0> 148 44<-508 -440> 152 40<-480 -463> 166 42
Fore
-34 -376 m 1xe0
 -34 0 l 1
 -16 0 l 1
 0 0 l 1
 0 -12 l 2
 4 -68 24 -120 68 -194 c 2
 98 -240 l 2
 132 -292 148 -316 160 -344 c 0
 176 -380 186 -408 192 -440 c 1xd0
 192 -504 l 1xe0
 188 -518 184 -532 180 -544 c 2
 176 -556 l 1
 180 -568 l 1
 192 -592 196 -612 200 -636 c 0
 204 -652 204 -688 200 -704 c 0
 196 -726 190 -748 184 -764 c 1
 180 -768 180 -772 180 -772 c 1
 186 -784 l 2
 204 -822 210 -856 208 -896 c 0
 208 -948 196 -1000 172 -1050 c 0
 164 -1064 164 -1068 156 -1072 c 0
 150 -1074 146 -1074 140 -1072 c 0
 132 -1068 128 -1064 126 -1060 c 1
 124 -1052 124 -1048 128 -1036 c 1
 150 -996 162 -952 166 -908 c 0xc8
 168 -872 164 -844 148 -812 c 0
 132 -778 108 -748 72 -712 c 2
 12 -656 l 1
 0 -648 l 1
 0 -698 l 1
 0 -750 l 1
 -16 -750 l 1
 -34 -750 l 1
 -34 -376 l 1xe0
16 -230 m 1
 8 -224 4 -216 2 -214 c 0
 0 -212 0 -212 0 -226 c 0
 2 -270 16 -312 48 -364 c 0
 56 -380 72 -404 104 -444 c 2
 138 -494 l 2
 142 -500 146 -508 148 -508 c 1xe0
 148 -506 150 -490 152 -480 c 1
 152 -446 140 -404 116 -362 c 0
 96 -324 64 -284 16 -230 c 1
20 -448 m 0
 12 -440 4 -432 2 -432 c 1
 0 -430 l 1
 0 -438 l 2
 0 -468 10 -506 28 -540 c 0
 44 -576 60 -600 108 -664 c 0
 128 -690 140 -708 148 -720 c 0xe0
 152 -726 152 -728 156 -708 c 0
 164 -678 162 -648 152 -620 c 0xd0
 144 -596 124 -560 104 -536 c 0
 84 -510 52 -476 20 -448 c 0
EndSplineSet
EndChar
StartChar: flags.u6
Encoding: 57730 57730 159
Width: 207
GlyphClass: 2
Flags: HMW
HStem: -40 40G<-34 -16 -16 0 0 0>
VStem: -34 34<-1000 -944 -944 -888 -697 -674 -674 -664 -477 -448 -448 -438 -244 -224 -224 -212 -12 0>
Fore
-34 -500 m 1
 -34 0 l 1
 -16 0 l 1
 0 0 l 1
 0 -12 l 2
 4 -68 24 -120 68 -192 c 0
 72 -200 84 -220 96 -238 c 2
 140 -312 l 2
 168 -362 184 -404 192 -448 c 1
 192 -464 192 -500 190 -516 c 0
 188 -530 184 -548 178 -560 c 2
 174 -568 l 1
 178 -578 l 2
 184 -592 192 -612 196 -626 c 0
 208 -680 204 -728 180 -780 c 1
 176 -796 l 1
 180 -806 l 2
 190 -828 196 -852 200 -876 c 0
 204 -890 204 -912 202 -924 c 0
 200 -948 188 -972 174 -992 c 1
 168 -998 l 1
 176 -1012 l 2
 204 -1068 214 -1116 206 -1176 c 0
 202 -1218 188 -1264 172 -1302 c 0
 164 -1316 164 -1318 156 -1322 c 0
 150 -1324 146 -1324 140 -1322 c 0
 132 -1320 128 -1316 126 -1310 c 0
 124 -1304 124 -1300 128 -1288 c 1
 140 -1268 152 -1234 156 -1212 c 0
 168 -1172 168 -1132 164 -1104 c 0
 156 -1064 132 -1024 92 -976 c 0
 76 -960 44 -924 20 -904 c 2
 0 -888 l 1
 0 -944 l 1
 0 -1000 l 1
 -16 -1000 l 1
 -34 -1000 l 1
 -34 -500 l 1
28 -244 m 0
 20 -236 10 -224 8 -220 c 1
 0 -212 l 1
 0 -224 l 2
 0 -264 10 -302 32 -344 c 0
 46 -374 64 -400 104 -460 c 2
 136 -504 l 2
 140 -512 146 -518 146 -516 c 1
 148 -516 150 -500 152 -488 c 1
 152 -456 142 -416 122 -376 c 0
 102 -336 72 -296 28 -244 c 0
30 -466 m 0
 18 -456 8 -444 4 -442 c 1
 0 -438 l 1
 0 -448 l 2
 0 -506 20 -560 68 -630 c 2
 98 -676 l 2
 110 -692 126 -714 134 -726 c 2
 148 -748 l 1
 148 -748 150 -744 152 -738 c 0
 160 -716 162 -688 160 -668 c 0
 152 -608 112 -546 30 -466 c 0
40 -700 m 0
 26 -688 12 -672 8 -668 c 1
 0 -664 l 1
 0 -674 l 2
 0 -720 16 -768 46 -820 c 0
 60 -844 72 -860 106 -906 c 0
 116 -920 128 -936 134 -946 c 0
 140 -954 144 -960 146 -960 c 0
 148 -960 156 -940 158 -932 c 0
 168 -896 156 -850 126 -804 c 0
 104 -770 84 -744 40 -700 c 0
EndSplineSet
EndChar
StartChar: flags.d3
Encoding: 57731 57731 160
Width: 267
GlyphClass: 2
Flags: HMW
HStem: 0 42G<-34 -16 -34 -34 -16 0>
VStem: -34 34<0 4 0 124 247 249> 228 40<524 536>
Fore
188 722 m 2
 190 724 194 724 196 724 c 0
 202 724 210 720 212 716 c 1
 216 712 232 680 240 662 c 0
 258 616 268 572 268 524 c 0
 270 480 260 440 240 398 c 0
 220 360 196 328 138 260 c 0
 96 212 80 192 62 168 c 0
 36 134 20 96 8 64 c 0
 4 48 0 20 0 4 c 2
 0 0 l 1
 -16 0 l 1
 -34 0 l 1
 -34 124 l 1
 -34 250 l 1
 -16 250 l 2
 -6 250 0 250 0 248 c 0
 0 246 68 290 98 316 c 0
 182 380 224 444 228 508 c 0
 228 564 210 632 176 690 c 1
 172 700 172 704 176 712 c 0
 178 716 180 720 188 722 c 2
EndSplineSet
EndChar
StartChar: flags.ugrace
Encoding: 57732 57732 161
Width: 207
GlyphClass: 2
Flags: HMW
HStem: -564 336
VStem: -172 404
Fore
200 -228 m 1
 220 -218 242 -240 232 -260 c 1
 228 -264 220 -272 44 -414 c 0
 -80 -516 -140 -562 -144 -564 c 0
 -152 -568 -164 -564 -170 -556 c 0
 -176 -548 -176 -538 -172 -530 c 0
 -170 -524 -160 -516 12 -376 c 0
 116 -294 196 -228 200 -228 c 1
EndSplineSet
EndChar
StartChar: flags.dgrace
Encoding: 57733 57733 162
Width: 267
GlyphClass: 2
Flags: W
Fore
-202 536 m 0
 -196 538 -192 538 -188 536 c 2
 -182 536 280 268 284 266 c 0
 290 262 294 254 294 248 c 0
 294 236 284 224 272 224 c 2
 262 224 l 1
 256 226 -206 492 -210 496 c 1
 -212 496 -216 500 -216 504 c 1
 -220 508 -220 508 -220 516 c 1
 -218 524 -212 532 -202 536 c 0
EndSplineSet
EndChar
StartChar: flags.d4
Encoding: 57734 57734 163
Width: 267
GlyphClass: 2
Flags: HMW
HStem: 0 42G<-34 -16 -34 -34 -16 0> 460 40G<-34 -16 -16 0 0 0>
VStem: -34 34<0 4 200 218 218 244 424 462 462 500> 212 44<429 440 440 446 429 450>
Fore
228 750 m 0
 234 752 240 752 244 750 c 0
 252 746 256 744 260 726 c 0
 264 710 268 688 268 672 c 0
 270 632 260 596 236 560 c 1
 234 552 232 548 232 548 c 1
 232 548 232 540 236 534 c 1
 248 504 254 476 256 446 c 0
 256 412 250 380 234 350 c 0
 216 314 196 288 144 236 c 0
 80 172 70 160 52 136 c 0
 28 104 12 72 4 40 c 0
 2 28 0 14 0 4 c 2
 0 0 l 1
 -16 0 l 1
 -34 0 l 1
 -34 250 l 1
 -34 500 l 1
 -16 500 l 1
 0 500 l 1
 0 462 l 1
 0 424 l 1
 8 430 l 1
 84 468 128 500 164 536 c 0
 224 596 240 656 216 716 c 0
 212 728 212 732 216 740 c 0
 218 744 220 748 228 750 c 0
206 488 m 0
 204 496 202 502 200 504 c 1
 200 508 l 1
 188 496 l 2
 180 488 156 464 134 444 c 0
 92 404 74 386 60 368 c 0
 24 326 6 288 0 244 c 2
 0 218 l 1
 0 200 l 1
 12 208 l 2
 70 240 116 274 148 306 c 0
 184 342 204 376 212 412 c 1
 212 440 l 2
 212 460 212 470 206 488 c 0
EndSplineSet
EndChar
StartChar: flags.d5
Encoding: 57735 57735 164
Width: 267
GlyphClass: 2
Flags: HMW
HStem: 0 42G<-34 -16 -34 -34 -16 0>
VStem: -34 34<0 12 210 228 436 452 660 704 704 750>
Fore
228 972 m 1
 234 976 240 974 246 972 c 0
 254 968 256 964 262 940 c 0
 268 920 268 908 268 886 c 0
 268 868 268 864 266 854 c 0
 262 830 252 804 236 780 c 2
 232 772 l 1
 232 768 l 1
 240 752 252 726 256 708 c 0
 268 654 260 604 230 556 c 2
 224 548 l 1
 228 538 l 2
 260 476 252 404 210 336 c 0
 192 308 174 284 128 236 c 2
 76 172 l 2
 26 112 4 64 0 12 c 2
 0 0 l 1
 -16 0 l 1
 -34 0 l 1
 -34 376 l 1
 -34 750 l 1
 -16 750 l 1
 0 750 l 1
 0 704 l 1
 0 660 l 1
 22 670 l 2
 122 720 184 772 212 824 c 0
 230 860 232 900 216 940 c 0
 212 950 212 954 216 960 c 1
 218 968 220 970 228 972 c 1
208 718 m 0
 206 724 204 728 204 732 c 1
 200 734 l 1
 188 720 l 1
 136 668 l 2
 96 632 80 616 66 600 c 0
 38 568 20 538 10 508 c 0
 4 488 0 476 0 452 c 2
 0 436 l 1
 16 444 l 2
 80 476 126 508 160 540 c 0
 180 564 196 580 204 602 c 2
 214 620 218 636 220 656 c 0
 220 676 216 696 208 718 c 0
198 500 m 0
 196 504 196 508 196 508 c 1
 188 500 l 1
 128 442 l 2
 100 412 72 384 66 376 c 0
 30 334 12 300 4 260 c 2
 0 250 0 244 0 228 c 2
 0 210 l 1
 18 222 l 2
 126 294 184 360 200 424 c 0
 208 450 208 474 198 500 c 0
EndSplineSet
EndChar
StartChar: flags.d6
Encoding: 57736 57736 165
Width: 267
GlyphClass: 2
Flags: HMW
HStem: 0 42G<-34 -16 -34 -34 -16 0>
VStem: -34 34<0 14 204 226 424 444 650 672 876 936 936 1000> 188 40<468 502 502 512 512 524 524 524>
Fore
236 1096 m 2
 242 1100 248 1100 254 1096 c 0
 260 1092 264 1090 264 1080 c 1
 268 1052 270 1016 268 1000 c 1
 264 988 260 974 254 964 c 2
 248 954 l 1
 252 944 l 1
 252 940 256 930 256 922 c 0
 264 872 262 836 246 802 c 2
 242 792 l 1
 244 774 l 2
 252 728 256 684 252 656 c 0
 248 636 240 616 232 596 c 2
 228 588 l 1
 228 572 l 1
 228 512 l 1
 228 456 l 1
 220 408 204 372 170 324 c 0
 156 302 142 284 108 240 c 0
 74 194 56 168 40 142 c 0
 16 98 2 56 0 14 c 2
 0 0 l 1
 -16 0 l 1
 -34 0 l 1
 -34 500 l 1
 -34 1000 l 1
 -16 1000 l 1
 0 1000 l 1
 0 936 l 1
 0 876 l 1
 4 876 l 1
 76 888 140 912 178 940 c 0
 202 958 218 980 224 1004 c 0
 228 1014 228 1040 224 1060 c 0
 220 1076 220 1080 224 1084 c 1
 226 1092 228 1096 236 1096 c 2
218 888 m 0
 216 896 216 904 216 908 c 2
 216 912 l 1
 206 904 l 2
 192 892 176 880 152 862 c 0
 84 816 76 808 56 790 c 0
 32 768 16 742 8 716 c 0
 2 702 0 696 0 672 c 2
 0 650 l 1
 16 658 l 2
 80 690 128 722 162 756 c 0
 184 776 196 794 204 814 c 0
 216 838 220 860 218 888 c 0
208 724 m 1
 208 736 l 2
 208 738 204 736 200 730 c 0
 188 716 168 696 130 660 c 0
 80 614 66 600 48 576 c 0
 26 548 12 520 4 492 c 1
 2 476 0 462 0 444 c 2
 0 424 l 1
 12 432 l 2
 32 446 48 460 64 472 c 0
 156 542 204 608 210 672 c 0
 212 684 212 708 208 724 c 1
188 468 m 1
 188 502 l 1
 188 524 l 1
 188 524 184 524 182 520 c 0
 174 508 156 488 128 458 c 0
 92 420 84 410 70 392 c 0
 32 344 12 304 4 260 c 2
 0 252 0 240 0 226 c 2
 0 204 l 1
 4 208 l 2
 12 216 52 252 66 268 c 0
 140 344 178 408 188 468 c 1
EndSplineSet
EndChar
StartChar: clefs.C
Encoding: 57737 57737 166
Width: 679
GlyphClass: 2
Flags: HMW
HStem: -72 32 40 32 460 40G<6 70 70 134 134 134 188 204 204 212>
VStem: 0 140<-494 0 -494 0 0 494 494 494> 184 44<-494 -256 -256 -20 20 256 256 494 494 494> 556 124
Fore
4 496 m 1
 6 500 l 1
 70 500 l 1
 134 500 l 1
 136 496 l 1
 140 496 l 1
 140 0 l 1
 140 -494 l 1
 136 -496 l 1
 132 -500 l 1
 68 -500 l 1
 4 -500 l 1
 4 -496 l 1
 0 -496 l 1
 0 0 l 1
 0 494 l 1
 4 496 l 1
186 496 m 1
 188 500 l 1
 204 500 l 2
 220 500 222 500 224 496 c 1
 228 496 l 1
 228 256 l 1
 228 20 l 1
 234 28 l 2
 280 76 306 138 310 208 c 0
 310 222 312 224 312 228 c 1
 316 232 324 236 332 232 c 0
 338 228 340 226 340 212 c 0
 344 170 354 136 376 110 c 0
 388 92 408 80 430 72 c 1
 456 72 l 1
 484 72 l 1
 506 80 520 88 532 108 c 0
 550 136 556 180 556 264 c 0
 554 336 548 378 532 412 c 0
 518 436 498 454 472 464 c 1
 454 468 424 472 410 468 c 0
 390 464 378 452 376 436 c 0
 376 424 380 412 396 400 c 0
 416 382 422 376 424 360 c 0
 424 348 420 332 412 320 c 0
 408 312 392 296 386 292 c 0
 360 278 332 278 308 292 c 0
 300 296 284 312 280 320 c 0
 272 336 268 354 272 378 c 0
 278 422 308 460 352 484 c 0
 380 498 408 502 452 500 c 0
 574 492 646 436 672 334 c 0
 678 304 682 258 680 230 c 0
 672 168 640 116 586 80 c 0
 552 58 516 44 476 40 c 0
 446 38 438 40 412 56 c 0
 384 72 372 76 356 70 c 0
 342 64 332 52 328 32 c 0
 326 20 326 -20 328 -32 c 0
 332 -52 342 -64 356 -70 c 0
 372 -76 384 -72 412 -56 c 0
 438 -40 446 -38 476 -40 c 0
 568 -48 644 -108 670 -188 c 0
 680 -216 682 -242 680 -280 c 0
 676 -340 660 -384 630 -420 c 0
 592 -468 532 -494 452 -500 c 0
 408 -502 380 -498 352 -484 c 0
 308 -460 278 -422 272 -378 c 0
 268 -346 272 -324 292 -304 c 0
 304 -292 316 -286 332 -284 c 0
 352 -280 368 -284 386 -292 c 0
 392 -296 408 -312 412 -320 c 0
 420 -332 424 -348 424 -360 c 0
 422 -376 416 -382 396 -400 c 0
 380 -412 376 -424 376 -436 c 0
 378 -452 390 -464 410 -468 c 0
 424 -472 454 -468 472 -464 c 0
 488 -458 504 -448 512 -438 c 0
 536 -412 548 -376 554 -316 c 0
 556 -280 556 -208 552 -176 c 0
 544 -114 524 -84 484 -72 c 1
 456 -72 l 1
 430 -72 l 1
 390 -84 360 -120 348 -168 c 0
 344 -184 340 -194 340 -212 c 0
 340 -224 340 -226 336 -228 c 1
 332 -236 320 -236 312 -228 c 1
 312 -224 310 -224 310 -208 c 0
 306 -140 280 -76 234 -28 c 2
 228 -20 l 1
 228 -256 l 1
 228 -494 l 1
 224 -496 l 1
 220 -500 l 1
 204 -500 l 2
 188 -500 188 -500 186 -496 c 1
 184 -496 l 1
 184 0 l 1
 184 494 l 1
 186 496 l 1
EndSplineSet
EndChar
StartChar: clefs.C_change
Encoding: 57738 57738 167
Width: 547
GlyphClass: 3
Flags: HMW
HStem: -400 28<332 358> 28 28 372 28
VStem: 0 112<-394 0 -394 0 0 394 394 394> 152 40<-394 -204 -204 -16 16 206 206 394 394 394> 152 120<-30 0 0 30 -30 394> 256 28<-164 -160 -164 -148 -164 -148 160 164> 452 96<-217 -192 -217 -148 172 240>
Fore
4 396 m 1xf1
 6 400 l 1
 56 400 l 1
 108 400 l 1
 110 396 l 1
 112 396 l 1
 112 0 l 1
 112 -394 l 1
 110 -396 l 1
 108 -400 l 1
 56 -400 l 1
 4 -400 l 1
 4 -396 l 1
 0 -396 l 1
 0 0 l 1
 0 394 l 1
 4 396 l 1xf1
156 396 m 1
 158 400 l 1
 172 400 l 2
 184 400 186 400 188 396 c 1
 192 396 l 1
 192 206 l 1
 192 16 l 1
 200 26 l 2
 216 44 226 58 236 80 c 0
 248 106 256 140 256 164 c 0
 256 172 260 178 264 180 c 0
 272 184 280 180 282 176 c 0
 284 172 284 168 284 160 c 0xfb
 288 104 316 64 356 56 c 1
 376 56 l 2
 424 58 444 84 452 148 c 0
 454 166 454 236 452 254 c 0
 448 294 440 318 428 336 c 0
 414 360 392 372 358 372 c 2
 340 372 l 1
 332 370 324 366 320 360 c 0
 316 356 316 356 316 348 c 0
 316 336 320 334 332 318 c 1
 348 304 348 300 350 290 c 0
 352 264 330 236 302 228 c 0
 282 224 262 232 248 246 c 0
 234 260 228 274 228 294 c 0
 232 346 276 390 332 400 c 1
 346 400 372 400 392 398 c 0
 456 388 502 360 528 312 c 1
 536 290 544 268 548 240 c 1
 548 172 l 1
 544 152 536 132 526 116 c 0
 498 68 448 36 388 28 c 0
 364 28 356 28 336 42 c 0
 330 46 320 52 318 52 c 2
 312 56 308 56 304 56 c 0
 296 56 294 56 288 54 c 1
 280 48 276 44 272 30 c 1
 272 -30 l 1xf5
 276 -44 280 -48 288 -54 c 1
 294 -56 296 -56 304 -56 c 0
 308 -56 312 -56 318 -52 c 2
 320 -52 330 -46 336 -42 c 0
 356 -28 364 -28 388 -28 c 1
 412 -32 432 -36 452 -48 c 0
 496 -68 528 -108 542 -152 c 0
 548 -172 548 -180 548 -204 c 0
 548 -230 548 -244 542 -264 c 0
 524 -342 476 -388 392 -398 c 0
 372 -400 346 -400 332 -400 c 1
 284 -392 244 -356 232 -312 c 0
 228 -300 228 -284 230 -276 c 0
 236 -244 270 -224 302 -228 c 1
 330 -236 352 -264 350 -290 c 0
 348 -300 348 -304 332 -318 c 1
 320 -334 316 -336 316 -348 c 0
 316 -356 316 -356 320 -360 c 0
 324 -366 332 -370 340 -372 c 1
 358 -372 l 2
 392 -372 414 -360 428 -336 c 0
 440 -318 448 -294 452 -254 c 0
 454 -236 454 -166 452 -148 c 0
 444 -84 424 -58 376 -56 c 2
 356 -56 l 1
 316 -64 288 -104 284 -160 c 0
 284 -168 284 -172 282 -176 c 0
 280 -180 272 -184 264 -180 c 0
 260 -178 256 -172 256 -164 c 2
 256 -148 l 2
 252 -102 232 -60 200 -24 c 2
 192 -16 l 1
 192 -204 l 1
 192 -394 l 1
 188 -396 l 1
 184 -400 l 1
 172 -400 l 2
 158 -400 156 -400 156 -396 c 1
 152 -396 l 1xfb
 152 0 l 1xf5
 152 394 l 1xf9
 156 396 l 1
EndSplineSet
EndChar
StartChar: clefs.F
Encoding: 57739 57739 168
Width: 669
GlyphClass: 2
Flags: W
Fore
208 262 m 0
 232 264 266 264 296 258 c 0
 440 238 524 148 524 12 c 0
 524 -64 500 -140 456 -206 c 0
 378 -316 244 -408 28 -500 c 0
 18 -504 8 -510 6 -512 c 1
 0 -512 l 2
 -8 -512 -12 -508 -12 -500 c 0
 -12 -496 -12 -492 10 -480 c 0
 122 -414 200 -356 262 -296 c 0
 308 -248 338 -208 362 -160 c 0
 374 -136 380 -120 388 -98 c 0
 420 12 394 136 328 200 c 0
 292 232 244 246 196 234 c 0
 146 220 104 176 80 116 c 2
 78 112 l 1
 86 114 l 2
 128 128 180 106 202 62 c 0
 210 46 214 24 212 6 c 0
 204 -44 166 -84 118 -88 c 0
 68 -90 20 -56 4 -10 c 0
 0 2 0 12 0 28 c 0
 2 64 10 98 26 132 c 0
 62 204 132 254 208 262 c 0
596 174 m 0
 628 182 660 158 660 124 c 0
 660 92 628 68 596 76 c 0
 568 80 552 108 560 136 c 0
 564 156 578 170 596 174 c 0
596 -76 m 0
 628 -68 660 -92 660 -124 c 0
 660 -158 628 -182 596 -174 c 0
 568 -168 552 -140 560 -112 c 0
 564 -94 578 -80 596 -76 c 0
EndSplineSet
EndChar
StartChar: clefs.F_change
Encoding: 57740 57740 169
Width: 535
GlyphClass: 3
Flags: HMW
HStem: 188 24<172 188>
VStem: 446 82<-104 -95 95 104>
Fore
164 212 m 2
 224 212 l 2
 288 204 340 180 372 144 c 0
 408 104 424 52 420 -12 c 0
 410 -122 344 -214 220 -298 c 0
 168 -332 104 -368 28 -400 c 0
 16 -404 8 -410 6 -412 c 1
 0 -412 l 2
 -8 -412 -12 -408 -12 -400 c 0
 -12 -396 -12 -392 12 -378 c 0
 88 -324 136 -288 178 -248 c 0
 198 -226 212 -208 228 -190 c 0
 280 -120 300 -50 296 28 c 0
 292 64 284 96 272 122 c 0
 258 150 240 168 220 178 c 0
 204 186 196 188 180 188 c 0
 164 188 164 188 156 184 c 2
 136 180 120 170 108 156 c 0
 96 144 84 122 78 104 c 2
 76 96 l 1
 78 98 l 1
 84 100 104 98 112 96 c 0
 140 88 160 68 168 40 c 0
 170 28 170 8 168 -4 c 1
 160 -28 142 -50 120 -60 c 0
 86 -74 40 -60 18 -32 c 0
 4 -14 0 4 0 28 c 0
 4 120 64 196 148 210 c 0
 154 212 160 212 164 212 c 2
476 140 m 1
 488 140 l 2
 512 140 528 120 528 96 c 0
 528 80 516 68 504 62 c 1
 496 60 496 60 486 60 c 0
 476 60 476 60 468 62 c 1
 460 68 452 72 448 84 c 0
 446 88 446 90 446 100 c 0
 446 108 446 110 448 116 c 0
 454 128 464 136 476 140 c 1
476 -60 m 0
 480 -60 484 -58 488 -58 c 0
 512 -60 528 -80 528 -104 c 0
 528 -118 516 -132 504 -136 c 0
 496 -140 496 -140 486 -140 c 0
 476 -140 476 -140 468 -136 c 0
 460 -132 452 -126 448 -116 c 0
 446 -110 446 -108 446 -100 c 0
 446 -90 446 -88 448 -84 c 0
 454 -72 464 -62 476 -60 c 0
EndSplineSet
EndChar
StartChar: clefs.G
Encoding: 57741 57741 170
Width: 639
GlyphClass: 2
Flags: HMW
HStem: -656 44<248 272 239 281> -260 43
VStem: 0 72 172 52<784 972> 412 46 424 44<-304 -258 -258 -257>
Fore
316 1248 m 1xf4
 324 1252 330 1248 342 1236 c 0
 410 1164 472 1028 484 920 c 0
 492 860 484 792 462 730 c 0
 436 664 398 596 328 504 c 2
 310 482 l 1
 316 468 l 2
 338 396 360 324 372 280 c 2
 376 264 l 1
 394 262 l 2
 432 260 462 252 494 236 c 0
 560 204 612 140 630 64 c 0
 652 -16 634 -100 584 -164 c 0
 552 -200 518 -226 476 -242 c 2
 468 -246 l 1
 468 -304 l 2
 466 -360 466 -376 462 -416 c 0
 458 -474 442 -522 414 -564 c 0
 372 -626 314 -656 248 -656 c 0
 212 -652 174 -642 144 -624 c 0
 96 -596 60 -548 50 -496 c 0
 40 -458 44 -428 60 -404 c 0
 82 -370 122 -352 160 -352 c 0
 202 -354 236 -382 248 -424 c 0
 256 -456 252 -488 232 -512 c 0
 210 -544 166 -560 132 -548 c 1
 128 -544 l 1
 132 -552 l 1
 140 -560 154 -576 164 -580 c 2
 192 -602 222 -612 256 -612 c 0
 288 -612 312 -604 338 -584 c 0
 360 -568 378 -546 392 -516 c 0
 416 -466 424 -420 424 -308 c 2
 424 -258 l 2
 424 -256 416 -258 408 -260 c 0
 310 -272 218 -250 142 -192 c 0
 48 -124 -4 -14 0 104 c 0
 2 168 16 224 48 288 c 0
 80 352 116 406 208 524 c 2
 238 562 l 1
 232 580 l 2
 192 708 176 784 172 886 c 2
 172 972 l 2
 184 1072 228 1160 300 1232 c 2
 316 1248 l 1xf4
378 1102 m 1
 376 1102 376 1104 376 1104 c 1
 376 1104 354 1088 344 1080 c 0
 332 1070 308 1046 296 1032 c 0
 256 982 232 928 224 860 c 0
 222 840 222 804 224 784 c 0
 232 742 248 672 268 616 c 1
 270 604 l 1
 276 610 l 1
 278 614 284 624 292 634 c 0
 368 740 404 822 414 916 c 0
 416 932 416 988 414 1006 c 0
 412 1022 406 1042 400 1056 c 0
 396 1068 380 1100 378 1102 c 1
288 408 m 2
 278 440 l 1
 276 440 216 364 196 334 c 0
 120 230 84 148 74 58 c 0
 72 40 72 8 72 -4 c 0
 78 -52 100 -92 136 -132 c 1
 160 -152 184 -172 212 -186 c 0
 266 -212 320 -224 380 -220 c 0
 400 -218 420 -216 420 -214 c 2
 424 -212 418 -152 412 -108 c 0xf8
 404 -40 392 34 372 112 c 0
 366 140 362 154 362 154 c 1
 360 156 342 152 332 150 c 0
 280 140 244 108 232 64 c 0
 216 6 244 -52 308 -88 c 0
 320 -96 324 -98 324 -108 c 0
 324 -114 320 -122 314 -126 c 0
 310 -128 308 -128 304 -128 c 0
 296 -128 296 -128 284 -124 c 0
 258 -112 240 -98 222 -80 c 0
 200 -56 182 -30 172 0 c 0
 150 72 168 150 220 204 c 0
 238 220 256 232 276 242 c 0
 288 248 312 256 324 258 c 0
 328 258 332 260 332 260 c 2
 334 260 312 338 288 408 c 2
424 148 m 1xf4
 416 152 412 152 408 152 c 2
 406 152 l 1
 408 148 l 1
 416 112 434 28 442 -22 c 0
 452 -76 460 -150 464 -188 c 2
 464 -202 l 2
 464 -204 486 -192 496 -184 c 0
 528 -164 552 -130 564 -96 c 2
 568 -92 568 -80 572 -72 c 1
 572 -40 l 1
 572 -10 l 1
 558 70 500 132 424 148 c 1xf4
EndSplineSet
EndChar
StartChar: clefs.G_change
Encoding: 57742 57742 171
Width: 511
GlyphClass: 3
Flags: HMW
HStem: -208 39 -208 42<332 334 332 336 332 334>
VStem: 2 62 336 42<-232 -208 -208 -208>
Fore
240 996 m 0xb0
 248 1000 256 998 268 986 c 0
 294 958 316 924 340 880 c 0
 364 824 382 772 386 726 c 0
 392 686 384 640 372 596 c 0
 352 540 320 482 264 406 c 2
 252 388 l 1
 260 368 l 2
 272 336 294 268 304 238 c 2
 310 212 l 1
 322 212 l 2
 396 204 458 162 492 96 c 0
 518 40 520 -24 500 -76 c 0
 480 -128 436 -176 388 -194 c 1
 378 -196 l 1
 378 -240 l 2
 376 -284 376 -304 372 -336 c 0
 364 -436 308 -512 232 -524 c 1
 220 -528 200 -528 186 -528 c 0
 108 -520 48 -468 34 -396 c 0
 32 -388 32 -382 32 -368 c 0
 32 -356 32 -352 34 -346 c 0
 44 -314 72 -292 106 -284 c 0
 124 -280 142 -284 158 -292 c 1
 166 -298 180 -312 184 -320 c 0
 196 -340 200 -362 196 -380 c 0
 190 -406 174 -426 152 -436 c 0
 140 -440 128 -442 120 -442 c 1
 112 -440 l 1
 116 -446 l 2
 128 -462 152 -476 172 -480 c 0
 204 -490 236 -484 262 -468 c 0
 296 -444 320 -400 328 -350 c 0
 332 -328 336 -272 336 -232 c 2
 336 -208 l 1
 332 -208 l 1x70
 312 -212 304 -212 282 -212 c 0
 256 -212 248 -212 226 -208 c 0
 184 -200 142 -180 108 -152 c 0
 96 -142 74 -120 64 -108 c 0
 32 -66 12 -20 4 34 c 0
 0 52 0 94 2 112 c 0
 8 160 20 198 44 246 c 0
 68 292 96 332 156 412 c 2
 184 448 l 1
 184 448 180 456 176 468 c 0
 140 552 128 604 120 668 c 0
 116 700 116 748 118 772 c 0
 124 836 148 896 188 946 c 0
 202 964 232 992 240 996 c 0xb0
302 862 m 2
 300 868 296 872 294 872 c 1
 292 876 l 1
 288 872 l 1
 244 846 212 810 190 766 c 0
 174 732 166 700 164 664 c 0
 164 636 168 616 192 552 c 0
 198 530 212 492 214 490 c 1
 214 488 220 496 236 520 c 0
 300 616 328 696 326 778 c 0
 324 816 320 832 302 862 c 2
228 332 m 2
 222 348 l 1
 220 348 180 296 166 276 c 0
 100 182 68 108 62 30 c 0
 60 -6 64 -30 76 -56 c 0
 84 -72 94 -84 108 -100 c 0
 128 -118 144 -132 172 -144 c 0
 196 -156 220 -164 248 -168 c 0
 266 -172 316 -170 332 -166 c 1
 334 -166 l 1
 334 -152 l 2
 330 -92 320 -16 306 56 c 0
 300 80 292 120 292 120 c 1
 292 120 272 120 264 116 c 1
 222 106 196 80 188 42 c 0
 180 0 204 -42 248 -68 c 1
 260 -72 262 -76 264 -84 c 1
 264 -92 260 -100 252 -104 c 1
 248 -108 248 -108 242 -108 c 0
 236 -108 234 -108 224 -102 c 0
 188 -84 160 -56 144 -24 c 0
 124 16 122 60 136 104 c 0
 156 158 204 198 260 208 c 1
 268 212 l 1
 268 212 242 294 228 332 c 2
352 112 m 0
 340 116 336 118 336 116 c 2
 340 96 l 2
 356 22 368 -56 372 -120 c 0
 376 -148 376 -152 376 -152 c 1
 376 -152 380 -152 384 -148 c 2
 420 -128 444 -96 452 -56 c 0
 454 -42 454 -16 452 0 c 0
 440 52 404 96 352 112 c 0
EndSplineSet
EndChar
StartChar: clefs.percussion
Encoding: 57743 57743 172
Width: 500
GlyphClass: 2
Flags: HMW
VStem: 168 112<-244 0 0 244> 388 112<-244 0 0 244>
Fore
170 248 m 1
 172 250 l 1
 224 250 l 1
 274 250 l 1
 276 248 l 1
 280 244 l 1
 280 0 l 1
 280 -244 l 1
 276 -248 l 1
 272 -250 l 1
 224 -250 l 1
 172 -248 l 1
 170 -248 l 1
 168 -244 l 1
 168 0 l 1
 168 244 l 1
 170 248 l 1
392 248 m 1
 394 250 l 1
 444 250 l 1
 496 250 l 1
 496 248 l 1
 500 244 l 1
 500 0 l 1
 500 -244 l 1
 496 -248 l 1
 494 -250 l 1
 444 -250 l 1
 392 -248 l 1
 388 -244 l 1
 388 0 l 1
 388 244 l 1
 392 248 l 1
EndSplineSet
EndChar
StartChar: clefs.percussion_change
Encoding: 57744 57744 173
Width: 399
GlyphClass: 3
Flags: HMW
VStem: 134 90<0 194 194 194> 310 90<0 194 194 194>
Fore
136 196 m 1
 140 200 l 1
 180 200 l 1
 220 200 l 1
 220 196 l 1
 224 196 l 1
 224 0 l 1
 224 -194 l 1
 220 -196 l 1
 218 -200 l 1
 180 -200 l 1
 140 -200 l 1
 136 -196 l 1
 134 0 l 1
 134 194 l 1
 136 196 l 1
312 196 m 1
 316 200 l 1
 356 200 l 1
 396 200 l 1
 396 196 l 1
 400 196 l 1
 400 0 l 1
 400 -194 l 1
 396 -196 l 1
 394 -200 l 1
 356 -200 l 1
 316 -200 l 1
 312 -196 l 1
 310 0 l 1
 310 194 l 1
 312 196 l 1
EndSplineSet
EndChar
StartChar: clefs.tab
Encoding: 57745 57745 174
Width: 699
GlyphClass: 2
Flags: HMW
HStem: -708 60 672 48<358 371>
Fore
672 722 m 1
 680 724 694 720 698 710 c 0
 700 704 700 702 692 692 c 0
 666 664 630 644 594 636 c 0
 564 628 536 628 508 634 c 1
 508 636 l 1
 500 602 l 2
 490 536 476 460 468 434 c 0
 456 380 428 328 392 296 c 0
 374 276 354 266 332 260 c 0
 324 258 320 258 308 258 c 0
 292 258 284 260 268 268 c 1
 256 272 246 280 222 300 c 0
 212 308 200 316 196 320 c 0
 190 324 188 328 188 334 c 1
 192 344 200 354 208 356 c 1
 216 356 220 354 240 336 c 0
 256 324 264 318 270 314 c 0
 292 304 316 308 336 326 c 0
 356 346 370 380 376 426 c 0
 376 432 380 448 380 464 c 0
 382 516 390 590 398 646 c 0
 400 656 400 668 400 668 c 1
 400 668 374 672 368 672 c 0
 348 672 324 668 308 660 c 1
 278 650 262 634 256 612 c 0
 252 592 260 572 280 558 c 0
 284 556 284 554 284 550 c 2
 288 540 288 532 282 524 c 1
 280 524 278 522 272 520 c 0
 248 512 224 516 204 526 c 0
 184 536 172 548 164 564 c 0
 150 588 152 622 168 648 c 0
 176 662 196 680 216 688 c 0
 254 708 312 720 376 720 c 0
 398 720 400 720 412 716 c 2
 426 714 448 708 480 696 c 0
 528 680 540 678 564 680 c 0
 600 680 632 694 664 716 c 0
 668 720 672 722 672 722 c 1
476 288 m 1
 484 288 504 288 512 284 c 2
 528 280 542 272 544 262 c 2
 546 260 546 256 544 252 c 1
 544 216 l 2
 540 144 536 24 530 -60 c 0
 528 -110 528 -118 532 -126 c 0
 534 -132 536 -134 540 -136 c 0
 548 -140 560 -138 582 -128 c 0
 600 -118 604 -116 608 -120 c 1
 610 -120 612 -128 612 -134 c 0
 612 -144 608 -152 598 -156 c 1
 594 -156 584 -160 578 -164 c 0
 540 -184 532 -188 518 -188 c 0
 504 -188 492 -184 482 -176 c 1
 468 -160 460 -136 448 -72 c 0
 440 -30 436 -2 430 54 c 2
 430 60 l 1
 418 44 l 2
 398 20 374 -8 352 -30 c 0
 348 -36 344 -40 344 -40 c 1
 348 -48 l 1
 356 -58 368 -66 384 -70 c 0
 390 -72 394 -72 408 -72 c 2
 424 -72 l 1
 424 -76 l 1
 430 -86 426 -100 418 -108 c 0
 412 -112 388 -116 372 -116 c 0
 344 -116 318 -106 304 -88 c 2
 300 -84 l 1
 286 -96 l 2
 252 -126 236 -140 214 -156 c 0
 188 -172 164 -184 144 -186 c 0
 120 -190 104 -188 80 -172 c 0
 72 -168 62 -164 56 -160 c 0
 48 -156 48 -154 46 -152 c 1
 42 -144 52 -126 60 -120 c 0
 68 -116 72 -118 92 -128 c 0
 112 -136 120 -140 132 -140 c 1
 160 -136 190 -116 240 -62 c 0
 328 32 392 136 428 244 c 0
 434 258 436 264 444 270 c 2
 450 278 464 284 476 288 c 1
344 -248 m 2
 382 -248 l 2
 492 -248 560 -272 582 -316 c 0
 596 -350 586 -396 556 -432 c 0
 548 -440 536 -450 528 -456 c 1
 520 -460 l 1
 520 -460 528 -460 536 -464 c 2
 576 -472 602 -490 614 -516 c 0
 624 -534 624 -560 616 -586 c 0
 612 -598 602 -620 594 -632 c 0
 564 -670 524 -696 476 -706 c 0
 464 -708 460 -708 444 -708 c 0
 426 -708 422 -708 412 -706 c 0
 384 -700 362 -688 344 -668 c 0
 332 -656 330 -650 334 -640 c 1
 340 -630 356 -620 364 -624 c 1
 366 -626 370 -628 374 -632 c 0
 388 -648 408 -652 428 -648 c 0
 464 -640 494 -614 504 -580 c 0
 520 -530 488 -496 420 -492 c 0
 412 -492 408 -492 404 -490 c 0
 400 -488 398 -472 404 -464 c 0
 408 -456 412 -452 424 -452 c 0
 442 -450 460 -438 472 -420 c 0
 488 -396 492 -366 480 -342 c 0
 476 -336 464 -324 456 -320 c 0
 444 -312 424 -304 412 -302 c 1
 408 -300 l 1
 404 -316 l 2
 388 -420 368 -524 362 -542 c 0
 352 -588 332 -628 308 -662 c 1
 296 -674 280 -692 268 -700 c 2
 260 -708 240 -716 232 -720 c 1
 220 -722 200 -722 188 -720 c 0
 174 -716 160 -708 138 -688 c 2
 130 -684 120 -676 116 -672 c 0
 108 -664 106 -660 110 -652 c 0
 114 -644 120 -640 124 -636 c 1
 132 -632 136 -632 152 -648 c 1
 180 -668 188 -672 208 -672 c 0
 224 -670 236 -664 248 -652 c 0
 276 -624 292 -558 292 -474 c 0
 292 -454 294 -436 296 -406 c 0
 300 -384 304 -340 308 -320 c 0
 310 -312 310 -306 310 -306 c 1
 310 -306 306 -308 304 -308 c 1
 256 -328 232 -364 244 -394 c 1
 248 -400 252 -402 254 -404 c 0
 262 -412 264 -414 264 -418 c 2
 268 -426 264 -440 260 -444 c 0
 256 -448 242 -452 228 -452 c 0
 194 -452 160 -436 148 -408 c 0
 140 -392 138 -378 142 -360 c 0
 144 -352 148 -338 156 -328 c 0
 184 -286 256 -256 344 -248 c 2
EndSplineSet
EndChar
StartChar: clefs.tab_change
Encoding: 57746 57746 175
Width: 559
GlyphClass: 3
Flags: HMW
HStem: 244 40G<167 170> 504 40<419 448>
Fore
534 576 m 1
 538 578 540 578 544 578 c 1
 550 576 560 568 560 564 c 0
 560 560 556 556 550 552 c 0
 512 516 464 498 422 504 c 0
 416 504 412 506 408 508 c 1
 404 508 l 1
 404 508 404 494 400 476 c 0
 388 410 378 354 372 336 c 0
 358 288 332 246 300 224 c 0
 292 218 276 210 268 208 c 0
 256 204 244 204 232 206 c 0
 218 208 204 216 182 236 c 0
 176 242 164 248 160 252 c 0
 152 260 152 260 152 264 c 0
 152 268 154 276 156 280 c 1
 160 282 166 284 168 284 c 0
 172 284 180 280 192 270 c 0
 210 252 220 248 232 246 c 0
 264 244 288 272 298 324 c 0
 300 338 304 350 304 376 c 0
 306 408 312 468 318 512 c 0
 320 520 320 530 320 532 c 1
 320 532 320 534 316 536 c 1
 284 540 244 532 224 516 c 0
 212 506 206 496 206 482 c 0
 206 468 212 456 222 448 c 1
 224 448 228 444 228 440 c 2
 232 432 228 420 224 418 c 0
 216 414 204 412 192 412 c 1
 180 414 174 416 164 420 c 0
 138 432 124 458 124 484 c 0
 128 536 182 568 278 576 c 0
 318 578 328 576 388 556 c 0
 420 546 428 544 440 544 c 0
 456 544 472 544 488 550 c 0
 504 556 514 560 534 576 c 1
378 228 m 2
 392 232 406 228 418 224 c 0
 426 220 430 216 432 212 c 1
 436 208 l 1
 434 162 l 2
 432 88 428 30 424 -20 c 2
 424 -84 l 1
 424 -102 l 1
 428 -108 432 -110 436 -112 c 1
 444 -112 450 -108 464 -102 c 0
 480 -96 484 -94 486 -96 c 0
 490 -100 492 -114 488 -120 c 1
 486 -120 482 -124 478 -124 c 1
 472 -126 468 -128 466 -130 c 1
 436 -144 432 -148 424 -148 c 2
 412 -152 404 -152 396 -148 c 0
 382 -140 376 -128 368 -100 c 0
 356 -58 348 0 344 36 c 2
 344 48 l 1
 342 46 l 1
 336 36 304 0 286 -20 c 2
 276 -32 l 1
 276 -36 l 1
 280 -40 286 -46 292 -48 c 2
 302 -56 310 -56 324 -58 c 1
 338 -58 l 1
 340 -62 l 2
 344 -68 340 -80 334 -84 c 0
 332 -86 328 -88 322 -90 c 0
 312 -92 308 -92 296 -92 c 0
 280 -92 272 -92 260 -84 c 0
 254 -80 244 -72 242 -68 c 1
 240 -66 l 1
 228 -78 l 2
 180 -124 144 -144 114 -148 c 0
 96 -152 82 -148 60 -136 c 0
 52 -132 44 -128 42 -126 c 1
 36 -124 36 -120 38 -112 c 0
 40 -102 48 -96 56 -96 c 1
 56 -96 64 -98 72 -102 c 0
 88 -110 96 -112 104 -112 c 0
 124 -108 144 -96 176 -66 c 0
 248 8 308 100 340 188 c 0
 348 206 350 212 356 218 c 0
 360 224 370 228 378 228 c 2
276 -200 m 2
 284 -198 332 -200 344 -200 c 0
 408 -206 448 -224 464 -250 c 0
 470 -260 472 -268 472 -280 c 0
 472 -296 468 -304 464 -318 c 0
 456 -336 440 -352 424 -364 c 0
 416 -368 416 -368 420 -368 c 1
 444 -374 456 -380 470 -388 c 0
 484 -396 492 -408 496 -420 c 0
 498 -430 498 -452 496 -464 c 1
 490 -482 482 -498 468 -512 c 0
 448 -538 416 -556 382 -564 c 0
 372 -566 368 -566 354 -566 c 0
 338 -566 336 -566 328 -564 c 0
 308 -558 292 -550 278 -536 c 0
 266 -524 264 -520 268 -512 c 0
 272 -504 280 -500 288 -500 c 0
 292 -500 292 -500 300 -504 c 1
 304 -508 308 -512 312 -514 c 0
 344 -530 392 -504 404 -464 c 0
 412 -436 404 -416 382 -404 c 0
 368 -398 348 -394 332 -394 c 0
 324 -394 324 -394 322 -392 c 1
 320 -388 320 -380 320 -376 c 1
 324 -368 328 -364 332 -364 c 1
 344 -360 348 -360 356 -356 c 0
 380 -344 392 -316 388 -290 c 0
 386 -272 376 -260 358 -252 c 0
 350 -248 338 -242 328 -240 c 0
 326 -240 326 -240 324 -244 c 1
 324 -248 318 -282 312 -320 c 0
 288 -444 288 -452 268 -488 c 0
 240 -552 194 -584 152 -576 c 0
 140 -572 130 -568 108 -548 c 0
 86 -532 86 -532 86 -528 c 0
 86 -522 92 -512 100 -508 c 0
 106 -504 108 -506 126 -520 c 0
 132 -524 140 -530 144 -532 c 0
 150 -536 152 -536 160 -536 c 0
 192 -540 216 -512 228 -456 c 0
 232 -432 234 -416 236 -380 c 0
 236 -340 240 -306 248 -260 c 1
 248 -244 l 1
 248 -244 228 -252 220 -258 c 0
 216 -260 212 -264 208 -268 c 0
 188 -288 188 -312 206 -326 c 0
 212 -330 214 -334 212 -344 c 0
 212 -352 208 -356 194 -360 c 0
 156 -368 120 -344 112 -312 c 0
 110 -298 114 -280 124 -264 c 0
 128 -256 144 -244 152 -236 c 1
 184 -216 228 -202 276 -200 c 2
EndSplineSet
EndChar
StartChar: timesig.C44
Encoding: 57747 57747 176
Width: 423
GlyphClass: 2
Flags: HMW
HStem: 235 27 237 25
VStem: 2 140 2 140
Fore
222 262 m 0x80
 236 264 258 264 268 262 c 0
 344 254 404 200 422 126 c 0
 428 100 428 80 416 60 c 0
 412 52 398 40 392 36 c 0
 372 24 348 24 328 34 c 0
 308 44 296 56 288 78 c 0
 284 88 284 88 284 100 c 0
 284 116 286 120 290 132 c 0
 296 150 310 164 324 172 c 1
 336 176 348 180 360 180 c 1
 364 178 368 180 368 180 c 1
 356 192 l 2
 336 214 310 228 280 234 c 0
 266 236 244 238 232 236 c 0
 176 230 152 204 142 142 c 0
 138 114 138 102 138 0 c 0
 138 -102 138 -114 142 -142 c 0
 152 -202 176 -230 228 -236 c 0
 276 -240 316 -228 352 -192 c 0
 376 -168 394 -136 404 -96 c 0
 410 -80 410 -80 414 -80 c 1
 424 -74 434 -80 432 -92 c 0
 432 -98 426 -118 420 -128 c 1
 394 -200 342 -248 280 -260 c 0
 246 -268 188 -260 148 -246 c 0
 64 -216 16 -148 2 -44 c 0
 0 -24 0 24 2 44 c 0
 16 156 72 226 168 252 c 0
 184 256 208 260 222 262 c 0x80
EndSplineSet
EndChar
StartChar: timesig.C22
Encoding: 57748 57748 177
Width: 423
GlyphClass: 2
Flags: HMW
HStem: -264 28<240 248 248 256 240 248> 236 28<240 248 248 254 240 248>
VStem: 200 40<-344 -304 -304 -302 -302 -264 -228 0 0 228 228 228 264 302 302 304 304 344>
Fore
204 348 m 1
 206 350 l 1
 220 350 l 2
 232 350 234 348 236 348 c 1
 240 344 l 1
 240 304 l 1
 240 264 l 1
 248 264 l 2
 332 264 400 208 422 126 c 0
 428 100 428 80 416 60 c 0
 412 52 398 40 392 36 c 0
 372 24 348 24 328 34 c 0
 308 44 296 56 288 78 c 0
 284 88 284 88 284 100 c 0
 284 116 286 120 290 132 c 0
 296 150 310 164 324 172 c 1
 336 176 348 180 360 180 c 1
 364 178 368 180 368 180 c 1
 356 192 l 2
 328 220 296 236 254 236 c 2
 240 236 l 1
 240 0 l 1
 240 -236 l 1
 248 -236 l 2
 288 -236 322 -222 352 -192 c 0
 376 -168 394 -136 404 -96 c 0
 410 -80 410 -80 414 -80 c 1
 424 -74 434 -80 432 -92 c 0
 432 -94 432 -100 428 -108 c 0
 408 -180 360 -236 300 -256 c 0
 284 -260 272 -262 256 -264 c 2
 240 -264 l 1
 240 -304 l 1
 240 -344 l 1
 236 -348 l 1
 232 -350 l 1
 220 -350 l 2
 206 -350 204 -348 204 -348 c 1
 200 -344 l 1
 200 -302 l 1
 200 -260 l 1
 192 -258 l 2
 168 -254 144 -246 128 -236 c 0
 56 -204 14 -138 2 -44 c 0
 0 -24 0 24 2 44 c 0
 16 146 64 214 146 244 c 0
 160 250 176 256 190 256 c 1
 200 260 l 1
 200 302 l 1
 200 344 l 1
 204 348 l 1
200 0 m 1
 200 228 l 1
 198 228 194 228 190 224 c 1
 158 208 144 178 140 112 c 0
 136 92 136 -92 140 -112 c 0
 144 -180 158 -208 192 -226 c 0
 196 -228 198 -228 200 -228 c 1
 200 0 l 1
EndSplineSet
EndChar
StartChar: pedal.*
Encoding: 57749 57749 178
Width: 387
GlyphClass: 2
Flags: W
Fore
182 498 m 0
 208 506 236 488 242 460 c 0
 244 446 242 438 224 420 c 0
 210 404 206 400 204 390 c 1
 204 376 214 366 228 364 c 1
 240 364 248 370 252 382 c 0
 254 386 254 392 256 408 c 0
 256 432 256 440 270 448 c 1
 290 464 312 460 332 444 c 1
 350 424 352 400 336 380 c 0
 328 368 322 366 296 366 c 1
 282 364 276 364 272 364 c 1
 260 360 252 350 252 340 c 1
 256 324 266 316 280 316 c 0
 288 316 294 320 308 336 c 1
 324 348 330 352 340 354 c 0
 366 356 388 334 388 306 c 0
 388 276 366 256 340 256 c 1
 330 258 324 262 308 276 c 0
 294 290 288 294 280 296 c 1
 266 296 256 286 252 272 c 1
 252 260 260 252 272 248 c 0
 276 246 282 246 296 244 c 1
 322 244 328 244 336 230 c 1
 352 210 350 188 332 168 c 0
 312 150 290 148 270 164 c 1
 256 172 256 178 256 204 c 1
 254 218 254 224 252 228 c 0
 248 240 240 248 228 248 c 1
 214 244 204 234 204 220 c 1
 206 212 210 206 224 192 c 0
 238 176 242 170 244 160 c 1
 244 134 224 112 196 112 c 0
 166 112 144 134 146 160 c 0
 148 170 152 176 164 192 c 1
 180 206 184 212 184 220 c 0
 184 234 176 244 160 248 c 1
 150 248 140 240 136 228 c 1
 136 224 136 218 134 204 c 1
 134 178 132 172 120 164 c 0
 100 148 76 150 56 168 c 1
 40 188 36 210 52 230 c 1
 60 244 68 244 94 244 c 1
 108 246 114 246 118 248 c 0
 130 252 136 260 136 272 c 1
 134 286 124 296 110 296 c 1
 100 294 96 290 80 276 c 0
 66 262 60 258 50 256 c 1
 24 256 0 276 0 304 c 0
 0 334 24 356 50 354 c 0
 60 352 66 348 80 336 c 0
 96 320 100 316 110 316 c 0
 124 316 134 324 136 340 c 0
 136 350 130 360 118 364 c 1
 114 364 108 364 94 366 c 1
 68 366 60 368 52 380 c 0
 36 400 40 424 56 444 c 1
 76 460 100 464 120 448 c 0
 132 440 134 432 134 408 c 0
 136 392 136 386 136 382 c 1
 140 370 150 364 160 364 c 0
 176 366 184 376 184 390 c 0
 184 400 180 404 164 420 c 0
 152 434 148 440 146 450 c 0
 144 472 160 492 182 498 c 0
206 332 m 0
 184 342 160 324 166 300 c 0
 170 280 190 272 208 280 c 0
 230 290 228 322 206 332 c 0
EndSplineSet
EndChar
StartChar: pedal.M
Encoding: 57750 57750 179
Width: 209
GlyphClass: 2
Flags: HMW
HStem: 168 62
Fore
208 240 m 1
 210 240 l 1
 208 238 l 1
 208 236 200 224 192 208 c 0
 182 192 174 178 172 176 c 0
 170 174 160 170 152 168 c 0
 140 164 122 164 88 168 c 0
 52 170 34 168 22 166 c 0
 14 164 4 160 2 156 c 1
 0 156 0 156 0 158 c 1
 2 160 10 172 20 188 c 0
 28 204 36 218 36 220 c 1
 40 222 52 226 58 228 c 0
 70 232 88 232 124 228 c 0
 168 226 186 228 202 236 c 2
 204 236 208 238 208 240 c 1
EndSplineSet
EndChar
StartChar: pedal..
Encoding: 57751 57751 180
Width: 69
GlyphClass: 2
Flags: HMW
HStem: 0 42G<32 40>
Fore
24 68 m 1
 28 68 32 70 36 70 c 0
 50 68 60 62 68 48 c 1
 68 44 70 42 70 36 c 0
 70 28 68 26 68 20 c 1
 64 12 58 8 50 4 c 0
 44 0 44 0 36 0 c 0
 28 0 26 0 20 4 c 0
 12 8 8 12 4 20 c 0
 0 26 0 28 0 36 c 0
 0 42 0 44 4 48 c 2
 8 60 16 64 24 68 c 1
EndSplineSet
EndChar
StartChar: pedal.P
Encoding: 57752 57752 181
Width: 415
GlyphClass: 2
Flags: HMW
HStem: 0 42G<108 116 108 108> 482 18<228 256 228 242>
VStem: 0 418
Fore
228 500 m 0
 250 500 272 500 288 496 c 0
 350 484 400 440 412 382 c 1
 416 372 416 368 416 356 c 0
 416 340 414 334 408 322 c 0
 398 302 380 288 360 290 c 0
 336 292 310 318 286 362 c 0
 276 380 276 380 278 384 c 0
 280 388 286 388 288 388 c 0
 292 388 292 386 296 382 c 1
 302 370 316 360 328 356 c 0
 354 348 376 372 370 400 c 0
 364 426 344 452 316 466 c 0
 296 476 280 480 256 482 c 2
 242 482 l 1
 236 468 l 2
 220 432 204 386 204 376 c 0
 204 360 214 340 244 304 c 0
 280 264 288 252 296 236 c 0
 304 222 308 210 304 200 c 0
 300 190 284 168 260 136 c 1
 252 128 248 120 248 120 c 1
 252 120 256 118 260 116 c 2
 288 110 328 92 348 76 c 1
 356 72 360 72 388 92 c 2
 408 108 l 1
 412 108 420 100 418 96 c 0
 416 92 388 66 348 36 c 0
 306 4 298 0 288 4 c 1
 284 8 278 16 268 46 c 0
 258 72 250 88 244 94 c 1
 240 96 236 100 236 100 c 1
 232 100 232 100 228 96 c 0
 202 64 176 36 166 28 c 0
 148 16 128 4 116 0 c 1
 108 0 l 1
 100 4 98 8 98 14 c 1
 100 20 104 32 112 42 c 0
 136 72 188 110 216 118 c 0
 220 120 224 120 224 120 c 1
 248 150 252 160 252 172 c 0
 250 188 240 208 212 244 c 0
 180 280 172 296 166 308 c 1
 164 316 164 320 168 336 c 0
 176 366 204 440 220 472 c 2
 224 480 l 1
 220 480 l 2
 184 476 164 470 140 456 c 0
 88 432 52 392 44 352 c 0
 40 332 44 316 58 302 c 1
 72 292 84 288 96 296 c 0
 112 304 124 324 124 344 c 1
 126 356 128 356 134 356 c 2
 140 356 l 1
 144 352 144 346 142 332 c 0
 136 296 124 268 104 246 c 0
 78 222 52 220 28 240 c 0
 16 248 6 264 2 280 c 0
 0 290 0 314 0 328 c 1
 16 400 80 464 162 488 c 0
 180 492 208 498 228 500 c 0
EndSplineSet
EndChar
StartChar: pedal.d
Encoding: 57753 57753 182
Width: 331
GlyphClass: 2
Flags: HMW
HStem: 420 16<-4 2>
Fore
-4 434 m 1
 -2 436 0 436 0 436 c 1
 4 436 30 432 42 428 c 0
 92 414 140 392 182 364 c 0
 268 308 324 232 334 158 c 0
 336 138 332 110 326 88 c 0
 304 28 252 -10 204 4 c 1
 194 4 180 12 170 20 c 0
 132 48 104 112 112 160 c 0
 120 204 152 248 198 274 c 2
 208 280 l 1
 202 288 l 2
 164 336 116 376 64 400 c 0
 48 406 24 414 10 416 c 2
 2 420 -2 420 -4 420 c 1
 -6 424 -4 430 -4 434 c 1
238 230 m 0
 232 240 228 252 224 256 c 2
 218 264 l 1
 212 260 l 2
 190 246 172 214 166 172 c 0
 164 158 164 124 168 108 c 0
 174 72 188 48 206 40 c 0
 212 36 214 36 222 36 c 0
 228 36 232 36 236 38 c 0
 248 44 254 52 260 68 c 0
 264 80 266 92 268 108 c 0
 268 148 260 188 238 230 c 0
EndSplineSet
EndChar
StartChar: pedal.e
Encoding: 57754 57754 183
Width: 199
GlyphClass: 2
Flags: HMW
HStem: 6 280
VStem: 0 202
Fore
80 286 m 0
 90 288 106 288 112 284 c 1
 128 280 138 268 142 252 c 0
 146 240 144 222 132 204 c 0
 120 184 96 160 68 136 c 0
 60 128 56 124 56 122 c 1
 56 122 64 106 72 96 c 2
 84 74 96 56 104 52 c 0
 112 48 120 52 160 82 c 0
 168 88 178 96 184 100 c 2
 192 108 l 1
 196 108 200 104 202 100 c 1
 202 98 202 96 200 96 c 1
 200 88 120 20 104 10 c 0
 88 0 66 -2 52 6 c 0
 40 12 28 34 16 70 c 0
 12 84 12 86 8 84 c 1
 4 84 2 86 0 90 c 0
 -4 96 -4 96 2 100 c 2
 6 104 l 1
 4 116 l 2
 -4 148 -2 168 4 198 c 0
 16 246 44 278 80 286 c 0
92 252 m 1
 84 254 72 256 66 252 c 2
 60 252 50 246 46 240 c 0
 36 228 30 208 32 184 c 1
 36 170 42 146 46 140 c 0
 48 138 60 148 76 164 c 0
 96 184 104 196 108 212 c 0
 112 228 108 244 92 252 c 1
EndSplineSet
EndChar
StartChar: pedal.Ped
Encoding: 57755 57755 184
Width: 797
GlyphClass: 2
Flags: HMW
HStem: 0 36<677 691> 482 18<228 256 228 242>
Fore
228 500 m 0
 250 500 272 500 288 496 c 0
 350 484 400 440 412 382 c 1
 416 372 416 368 416 356 c 0
 416 340 414 334 408 322 c 0
 398 302 380 288 360 290 c 0
 336 292 310 318 286 362 c 0
 276 380 276 380 278 384 c 0
 280 388 286 388 288 388 c 0
 292 388 292 386 296 382 c 1
 302 370 316 360 328 356 c 0
 354 348 376 372 370 400 c 0
 364 426 344 452 316 466 c 0
 296 476 280 480 256 482 c 2
 242 482 l 1
 236 468 l 2
 220 432 204 386 204 376 c 0
 204 360 214 340 244 304 c 0
 280 264 288 252 296 236 c 0
 304 222 308 210 304 200 c 0
 300 190 284 168 260 136 c 1
 252 128 248 120 248 120 c 1
 252 120 256 118 260 116 c 2
 288 110 328 92 348 76 c 1
 356 72 360 72 386 92 c 2
 404 108 l 1
 404 110 l 2
 404 112 404 118 402 124 c 0
 396 160 400 200 416 232 c 0
 426 252 436 264 452 272 c 1
 484 296 524 290 538 264 c 0
 548 240 544 218 520 188 c 1
 512 174 488 152 468 136 c 0
 460 128 456 124 456 122 c 1
 456 122 464 106 472 96 c 2
 484 74 496 56 504 52 c 0
 512 48 520 52 560 82 c 0
 568 88 576 96 578 96 c 1
 582 100 l 1
 580 108 l 2
 572 148 576 180 600 216 c 0
 616 240 636 260 664 274 c 1
 672 280 l 1
 668 288 l 1
 630 336 580 376 530 400 c 0
 514 406 488 414 476 416 c 0
 462 420 460 420 460 428 c 0
 460 432 464 436 466 436 c 0
 468 436 496 432 508 428 c 0
 588 404 664 362 720 308 c 0
 760 268 784 224 796 180 c 0
 800 156 800 136 796 112 c 0
 784 44 734 -4 682 0 c 0
 672 0 664 4 652 8 c 1
 628 20 608 42 594 72 c 2
 588 82 l 1
 582 76 l 2
 562 56 512 16 504 10 c 0
 488 0 466 -2 452 6 c 0
 440 12 428 34 416 70 c 2
 412 86 l 1
 408 84 l 1
 406 84 404 84 404 82 c 1
 402 78 340 28 320 12 c 1
 298 0 292 -2 284 12 c 1
 278 18 276 24 268 46 c 0
 258 72 250 88 244 94 c 1
 240 96 236 100 236 100 c 1
 232 100 232 100 228 96 c 0
 202 64 176 36 166 28 c 0
 148 16 128 4 116 0 c 1
 108 0 l 1
 100 4 98 8 98 14 c 1
 100 20 104 32 112 42 c 0
 136 72 188 110 216 118 c 0
 220 120 224 120 224 120 c 1
 248 150 252 160 252 172 c 0
 250 188 240 208 212 244 c 0
 180 280 172 296 166 308 c 1
 164 316 164 320 168 336 c 0
 176 366 204 440 220 472 c 2
 224 480 l 1
 220 480 l 2
 184 476 164 470 140 456 c 0
 88 432 52 392 44 352 c 0
 40 332 44 316 58 302 c 1
 72 292 84 288 96 296 c 0
 112 304 124 324 124 344 c 1
 126 356 128 356 134 356 c 2
 140 356 l 1
 144 352 144 346 142 332 c 0
 136 296 124 268 104 246 c 0
 78 222 52 220 28 240 c 0
 16 248 6 264 2 280 c 0
 0 290 0 314 0 328 c 1
 16 400 80 464 162 488 c 0
 180 492 208 498 228 500 c 0
704 230 m 0
 698 240 692 252 688 256 c 1
 684 264 l 1
 676 260 l 1
 656 246 638 214 632 172 c 0
 628 158 628 124 632 108 c 0
 640 72 652 48 672 40 c 1
 676 36 680 36 688 36 c 0
 694 36 696 36 700 38 c 0
 712 44 720 52 724 68 c 0
 728 80 732 92 732 108 c 0
 732 148 724 188 704 230 c 0
492 252 m 1
 484 254 472 256 466 252 c 2
 460 252 450 246 446 240 c 0
 436 228 430 208 432 184 c 1
 436 170 442 146 446 140 c 0
 448 138 460 148 476 164 c 0
 496 184 504 196 508 212 c 0
 512 228 508 244 492 252 c 1
EndSplineSet
EndChar
StartChar: brackettips.up
Encoding: 57756 57756 185
Width: 473
GlyphClass: 2
Flags: HMW
HStem: -56 112<18 44 0 58>
VStem: 0 464<-56 312 -12 312 38 312>
Fore
444 332 m 1
 448 332 l 2
 460 332 468 322 464 312 c 1
 464 310 456 296 444 280 c 2
 404 220 l 2
 368 166 344 132 320 104 c 0
 248 14 180 -36 96 -52 c 0
 84 -56 84 -56 44 -56 c 2
 0 -56 l 1
 0 -12 l 1
 0 38 l 1
 4 44 8 50 12 52 c 2
 18 56 l 1
 58 56 l 2
 100 56 108 58 132 62 c 0
 168 70 204 86 242 110 c 0
 302 152 360 216 430 316 c 0
 436 326 440 330 444 332 c 1
EndSplineSet
EndChar
StartChar: brackettips.down
Encoding: 57757 57757 186
Width: 473
GlyphClass: 2
Flags: HMW
HStem: -56 112<18 44 44 60 18 18>
VStem: 0 464<-312 56 -312 56>
Fore
0 10 m 2
 0 56 l 1
 44 56 l 1
 92 56 l 1
 104 52 l 2
 168 36 218 4 272 -48 c 0
 312 -90 348 -132 404 -220 c 2
 444 -280 l 2
 456 -296 464 -312 464 -312 c 1
 466 -318 464 -324 460 -328 c 0
 456 -332 452 -334 444 -332 c 1
 440 -332 440 -332 420 -300 c 0
 314 -148 222 -76 116 -60 c 1
 104 -56 96 -56 60 -56 c 2
 18 -56 l 1
 12 -52 l 1
 10 -52 8 -48 4 -46 c 1
 0 -40 0 -40 0 10 c 2
EndSplineSet
EndChar
StartChar: accordion.accDiscant
Encoding: 57758 57758 187
Width: 389
GlyphClass: 2
Flags: HMW
HStem: 250 22<-332 0 -332 -332 0 332> 500 24<-332 0 -332 0 -340 0 0 332> 746 26
VStem: 358 34<372 403 372 406>
Fore
-32 772 m 0
 16 776 64 770 112 756 c 0
 152 746 194 724 228 702 c 0
 310 644 364 560 384 460 c 0
 390 432 392 418 392 388 c 0
 392 356 390 340 384 312 c 0
 372 248 344 192 304 140 c 0
 284 116 254 90 228 72 c 0
 204 56 168 36 140 24 c 0
 50 -8 -48 -8 -140 24 c 0
 -166 36 -204 56 -226 72 c 0
 -316 136 -376 232 -388 344 c 0
 -392 364 -392 408 -388 428 c 0
 -380 504 -350 574 -302 632 c 0
 -284 656 -252 684 -226 702 c 0
 -204 718 -166 738 -140 748 c 0
 -104 760 -68 768 -32 772 c 0
42 748 m 0
 30 748 -12 750 -22 748 c 0
 -112 742 -188 708 -252 644 c 0
 -274 622 -290 600 -308 574 c 1
 -314 562 -326 538 -330 528 c 2
 -332 524 l 1
 0 524 l 1
 332 524 l 1
 332 528 l 1
 328 538 316 562 308 574 c 0
 292 600 276 622 252 644 c 0
 196 702 122 738 42 748 c 0
344 488 m 1
 342 500 l 1
 0 500 l 1
 -340 500 l 1
 -344 488 l 2
 -354 452 -356 424 -356 388 c 0
 -356 348 -354 320 -344 286 c 2
 -340 272 l 1
 0 272 l 1
 342 272 l 1
 344 286 l 1
 356 320 358 348 358 388 c 0
 358 424 356 452 344 488 c 1
332 244 m 1
 332 250 l 1
 0 250 l 1
 -332 250 l 1
 -330 244 l 1
 -308 200 l 2
 -290 172 -274 152 -252 128 c 0
 -192 70 -122 36 -40 24 c 1
 42 24 l 1
 124 36 194 70 252 128 c 0
 276 152 292 172 308 200 c 0
 316 212 328 236 332 244 c 1
EndSplineSet
EndChar
StartChar: accordion.accDot
Encoding: 57759 57759 188
Width: 61
GlyphClass: 2
Flags: HMW
HStem: -60 120
VStem: -60 120<14 14>
Fore
-14 60 m 0
 20 68 52 46 60 12 c 0
 68 -20 48 -52 14 -60 c 0
 -30 -72 -72 -30 -60 14 c 0
 -56 36 -36 56 -14 60 c 0
EndSplineSet
EndChar
StartChar: accordion.accFreebase
Encoding: 57760 57760 189
Width: 265
GlyphClass: 2
Flags: HMW
HStem: 250 22<-234 0 -234 0 0 234> 500 22<-22 -22>
VStem: 232 34<244 275 249 280>
Fore
-20 522 m 0
 -8 524 28 522 40 520 c 0
 96 512 150 484 190 446 c 0
 212 424 228 404 240 376 c 0
 248 358 256 342 260 322 c 0
 264 300 266 288 266 262 c 0
 266 236 264 224 260 200 c 0
 256 180 248 164 240 148 c 0
 228 120 212 100 190 76 c 0
 150 38 98 12 40 4 c 0
 20 0 -20 0 -40 4 c 0
 -86 10 -128 28 -164 56 c 0
 -178 66 -200 86 -208 100 c 2
 -238 136 -256 180 -264 228 c 0
 -268 244 -268 280 -264 296 c 0
 -260 324 -252 352 -240 376 c 0
 -228 404 -212 424 -190 446 c 0
 -168 468 -148 482 -116 496 c 0
 -88 512 -56 520 -20 522 c 0
34 498 m 0
 20 500 -10 500 -22 500 c 0
 -52 496 -78 488 -104 476 c 0
 -150 452 -186 414 -210 368 c 0
 -224 340 -230 312 -232 280 c 1
 -234 272 l 1
 0 272 l 1
 234 272 l 1
 232 280 l 1
 230 324 216 360 194 396 c 0
 156 450 100 488 34 498 c 0
232 244 m 1
 234 250 l 1
 0 250 l 1
 -234 250 l 1
 -232 244 l 1
 -230 210 -224 184 -210 156 c 0
 -174 84 -108 36 -28 24 c 1
 30 24 l 1
 108 36 174 84 210 156 c 0
 224 184 230 210 232 244 c 1
EndSplineSet
EndChar
StartChar: accordion.accStdbase
Encoding: 57761 57761 190
Width: 515
GlyphClass: 2
Flags: HMW
HStem: 0 24<-19 20> 250 24<-163 0 0 164> 500 24<-484 0 -484 0 0 484> 750 24<-408 -408 -408 0 -422 -408> 999 21
VStem: 483 33
Fore
-28 1022 m 0
 -16 1024 38 1022 52 1020 c 0
 148 1012 236 976 312 920 c 0
 358 886 400 842 432 794 c 0
 492 702 524 588 516 480 c 0
 508 380 474 284 416 206 c 0
 384 168 350 132 312 104 c 0
 246 54 168 20 88 8 c 0
 56 2 40 0 0 0 c 0
 -38 0 -54 2 -88 8 c 0
 -168 20 -244 54 -312 104 c 0
 -356 136 -398 180 -432 230 c 0
 -492 320 -522 434 -516 544 c 0
 -508 644 -472 740 -414 816 c 0
 -366 880 -304 932 -234 968 c 0
 -170 1000 -104 1016 -28 1022 c 0
50 998 m 0
 36 1000 -14 1000 -26 1000 c 0
 -58 996 -88 992 -116 986 c 0
 -230 956 -332 886 -400 788 c 2
 -408 774 l 1
 -204 772 l 1
 204 772 l 1
 408 774 l 1
 400 788 l 2
 320 906 192 984 50 998 c 0
432 734 m 2
 424 750 l 1
 0 750 l 1
 -422 750 l 1
 -428 740 l 2
 -448 700 -466 650 -476 604 c 0
 -480 580 -484 540 -484 524 c 1
 0 524 l 1
 484 524 l 1
 484 536 l 2
 480 608 462 672 432 734 c 2
484 488 m 2
 484 500 l 1
 0 500 l 1
 -484 500 l 1
 -484 488 l 2
 -478 416 -460 350 -430 288 c 2
 -422 274 l 1
 0 274 l 1
 424 274 l 1
 432 288 l 2
 462 350 480 416 484 488 c 2
408 248 m 1
 408 250 328 250 0 250 c 0
 -326 250 -408 250 -408 248 c 1
 -404 244 -392 224 -384 216 c 0
 -302 108 -182 40 -48 24 c 2
 48 24 l 2
 184 40 304 108 384 216 c 1
 392 224 404 244 408 248 c 1
EndSplineSet
EndChar
StartChar: accordion.accBayanbase
Encoding: 57762 57762 191
Width: 265
GlyphClass: 2
Flags: HMW
HStem: 0 32<-232 0 -232 0 -256 0 0 232> 250 34<-232 0 -232 0 0 232> 500 32<-232 0 -232 0 0 232> 750 34<-232 256 0 232>
VStem: -266 34<217 250 284 392> -264 528<8 8 774 775> 232 34<218 250 250 250 284 392 392 500 500 500 532 566 218 642>
Fore
-256 780 m 1xf4
 -254 784 -232 784 0 784 c 2
 256 784 l 1
 260 780 l 1
 260 778 264 776 264 774 c 2xf4
 266 770 266 740 266 392 c 0xf2
 266 44 266 12 264 8 c 1
 260 4 l 1
 256 0 l 1
 0 0 l 1
 -256 0 l 1
 -260 4 l 1
 -264 8 l 1xf4
 -266 12 -266 42 -266 392 c 2xf8
 -264 772 l 1
 -264 776 l 1
 -260 778 -260 780 -256 780 c 1xf4
232 642 m 1xfa
 232 750 l 1
 0 750 l 1
 -232 750 l 1
 -232 642 l 1
 -232 532 l 1
 0 532 l 1
 232 532 l 1
 232 642 l 1xfa
232 392 m 1
 232 500 l 1
 0 500 l 1
 -232 500 l 1
 -232 392 l 1
 -232 284 l 1
 0 284 l 1
 232 284 l 1
 232 392 l 1
232 142 m 1
 232 250 l 1
 0 250 l 1
 -232 250 l 1
 -232 142 l 1
 -232 32 l 1
 0 32 l 1
 232 32 l 1
 232 142 l 1
EndSplineSet
EndChar
StartChar: accordion.accOldEE
Encoding: 57763 57763 192
Width: 265
GlyphClass: 2
Flags: HMW
HStem: 244 36<-105 -99 99 105> 498 22 500 22
VStem: -12 24<225 227 297 299> 232 34<249 275>
Fore
-20 522 m 0xb8
 -8 524 28 522 40 520 c 0
 100 512 150 486 190 444 c 0
 196 438 206 428 208 424 c 2
 232 394 250 360 260 322 c 0
 264 300 266 288 266 262 c 0
 266 236 264 224 260 200 c 0
 250 164 232 128 208 100 c 0
 200 88 180 68 168 58 c 0
 128 28 88 12 40 4 c 0
 20 0 -18 0 -40 4 c 0
 -88 12 -128 28 -168 58 c 1
 -178 68 -200 88 -208 100 c 0
 -238 136 -256 180 -264 228 c 0
 -266 244 -266 280 -264 296 c 0
 -260 324 -252 352 -240 376 c 0
 -226 402 -212 424 -188 444 c 0
 -148 486 -96 512 -40 520 c 0xd8
 -32 520 -24 522 -20 522 c 0xb8
36 496 m 2
 24 500 -8 500 -22 500 c 1xb8
 -48 496 -76 488 -100 476 c 0
 -164 444 -210 386 -226 320 c 0
 -232 298 -232 288 -232 262 c 0
 -232 236 -232 224 -226 204 c 0
 -206 120 -140 52 -60 32 c 0
 -36 24 -24 24 0 24 c 0
 26 24 36 24 60 32 c 0
 140 52 208 120 228 204 c 0
 232 224 232 236 232 262 c 0
 232 288 232 298 228 320 c 0
 212 386 164 444 104 476 c 0
 80 486 60 492 36 496 c 2
-12 458 m 0
 22 468 56 436 48 402 c 0
 44 388 36 378 24 372 c 1
 20 368 20 368 20 364 c 2
 18 360 12 300 12 298 c 0
 12 296 14 296 16 296 c 1
 16 296 20 304 28 312 c 0
 36 320 44 332 52 338 c 1
 62 352 l 1
 60 356 l 1
 52 388 76 416 108 416 c 0
 142 416 164 378 148 346 c 0
 140 328 116 316 96 324 c 1
 88 324 l 1
 76 312 l 1
 68 308 56 296 48 292 c 1
 40 284 36 278 36 276 c 1
 36 276 96 280 102 280 c 0
 108 280 108 280 108 284 c 1
 112 292 120 300 128 304 c 0
 140 310 150 312 160 308 c 1
 188 302 204 276 196 252 c 0
 190 224 164 208 140 216 c 0
 128 220 114 228 108 240 c 1
 108 244 108 244 102 244 c 0
 96 244 36 248 36 248 c 1
 36 246 40 240 48 232 c 1
 56 228 68 216 76 212 c 1
 88 200 l 1
 96 200 l 1
 124 208 154 188 154 156 c 0
 154 120 116 96 84 114 c 0
 64 124 56 148 60 168 c 1
 62 172 l 1
 52 186 l 1
 44 192 36 204 28 212 c 0
 20 220 16 228 16 228 c 1
 14 228 12 228 12 226 c 0
 12 224 18 164 20 160 c 2
 20 156 20 156 24 152 c 1
 36 146 44 136 48 122 c 0
 56 88 22 56 -12 66 c 0
 -36 72 -52 98 -48 122 c 0
 -44 136 -36 146 -24 152 c 1
 -20 156 -20 156 -20 160 c 2
 -18 164 -12 224 -12 226 c 0
 -12 228 -14 228 -16 228 c 1
 -16 228 -20 220 -28 212 c 0
 -36 204 -44 192 -52 186 c 1
 -62 172 l 1
 -60 168 l 1
 -52 136 -76 108 -108 108 c 0
 -142 108 -164 146 -148 178 c 0
 -140 196 -116 208 -96 200 c 1
 -88 200 l 1
 -76 212 l 1
 -68 216 -56 228 -48 232 c 1
 -40 240 -36 246 -36 248 c 1
 -36 248 -96 244 -102 244 c 0
 -108 244 -108 244 -108 240 c 1
 -112 232 -120 224 -128 220 c 0
 -140 214 -150 212 -160 216 c 1
 -188 222 -204 248 -196 272 c 0
 -190 300 -164 316 -140 308 c 0
 -128 304 -114 296 -108 284 c 1
 -108 280 -108 280 -102 280 c 0
 -96 280 -36 276 -36 276 c 1
 -36 278 -40 284 -48 292 c 1
 -56 296 -68 308 -76 312 c 1
 -88 324 l 1
 -96 324 l 1
 -124 316 -154 336 -154 368 c 0
 -154 404 -116 428 -84 410 c 0
 -64 400 -56 378 -60 356 c 1
 -62 352 l 1
 -52 338 l 1
 -44 332 -36 320 -28 312 c 0
 -20 304 -16 296 -16 296 c 1
 -14 296 -12 296 -12 298 c 0
 -12 300 -18 360 -20 364 c 2
 -20 368 -20 368 -24 372 c 1
 -36 378 -44 388 -48 402 c 0
 -52 426 -36 452 -12 458 c 0
EndSplineSet
EndChar
StartChar: rests.M3neomensural
Encoding: 57764 57764 193
Width: 299
GlyphClass: 2
Flags: HMW
VStem: 0 100<-244 0 0 244> 200 100<-244 0 0 244>
Fore
4 248 m 1
 6 250 l 1
 50 250 l 1
 96 250 l 1
 96 248 l 1
 100 244 l 1
 100 0 l 1
 100 -244 l 1
 96 -248 l 1
 94 -250 l 1
 50 -250 l 1
 4 -248 l 1
 0 -244 l 1
 0 0 l 1
 0 244 l 1
 4 248 l 1
204 248 m 1
 206 250 l 1
 250 250 l 1
 296 250 l 1
 296 248 l 1
 300 244 l 1
 300 0 l 1
 300 -244 l 1
 296 -248 l 1
 294 -250 l 1
 250 -250 l 1
 204 -248 l 1
 200 -244 l 1
 200 0 l 1
 200 244 l 1
 204 248 l 1
EndSplineSet
EndChar
StartChar: rests.M2neomensural
Encoding: 57765 57765 194
Width: 99
GlyphClass: 2
Flags: HMW
VStem: 0 100<-244 0 0 244>
Fore
4 248 m 1
 6 250 l 1
 50 250 l 1
 96 250 l 1
 96 248 l 1
 100 244 l 1
 100 0 l 1
 100 -244 l 1
 96 -248 l 1
 94 -250 l 1
 50 -250 l 1
 4 -248 l 1
 0 -244 l 1
 0 0 l 1
 0 244 l 1
 4 248 l 1
EndSplineSet
EndChar
StartChar: rests.M1neomensural
Encoding: 57766 57766 195
Width: 99
GlyphClass: 2
Flags: HMW
HStem: 0 42G<4 50 4 4 50 94>
VStem: 0 100<6 124 6 124 124 244>
Fore
4 248 m 1
 6 250 l 1
 50 250 l 1
 96 250 l 1
 96 248 l 1
 100 244 l 1
 100 124 l 1
 100 6 l 1
 96 4 l 1
 94 0 l 1
 50 0 l 1
 4 0 l 1
 4 4 l 1
 0 4 l 1
 0 124 l 1
 0 244 l 1
 4 248 l 1
EndSplineSet
EndChar
StartChar: rests.0neomensural
Encoding: 57767 57767 196
Width: 99
GlyphClass: 2
Flags: HMW
HStem: -40 40G<6 50 50 96 96 96>
VStem: 0 100<-150 -78 -150 -78 -78 -6 -6 -6>
Fore
4 -4 m 1
 6 0 l 1
 50 0 l 1
 96 0 l 1
 96 -4 l 1
 100 -4 l 1
 100 -78 l 1
 100 -150 l 1
 96 -152 l 1
 94 -156 l 1
 50 -156 l 1
 4 -156 l 1
 4 -152 l 1
 0 -152 l 1
 0 -78 l 1
 0 -6 l 1
 4 -4 l 1
EndSplineSet
EndChar
StartChar: rests.1neomensural
Encoding: 57768 57768 197
Width: 99
GlyphClass: 2
Flags: HMW
HStem: 0 42G<4 50 4 4 50 94>
VStem: 0 100<6 78 6 78 78 150 150 150>
Fore
4 152 m 1
 6 156 l 1
 50 156 l 1
 96 156 l 1
 96 152 l 1
 100 152 l 1
 100 78 l 1
 100 6 l 1
 96 4 l 1
 94 0 l 1
 50 0 l 1
 4 0 l 1
 4 4 l 1
 0 4 l 1
 0 78 l 1
 0 150 l 1
 4 152 l 1
EndSplineSet
EndChar
StartChar: rests.2neomensural
Encoding: 57769 57769 198
Width: 199
GlyphClass: 2
Flags: HMW
VStem: 0 50<56 106 56 144>
Fore
16 198 m 1
 20 200 22 200 24 200 c 0
 30 200 184 148 188 144 c 1
 192 144 194 140 196 138 c 0
 206 124 196 102 176 100 c 0
 172 100 168 100 112 120 c 0
 80 130 52 140 52 140 c 1
 50 140 50 132 50 80 c 0
 50 32 50 20 48 16 c 0
 42 0 20 -4 8 8 c 0
 0 16 0 12 0 100 c 0
 0 188 0 184 8 192 c 1
 10 196 14 196 16 198 c 1
EndSplineSet
EndChar
StartChar: rests.3neomensural
Encoding: 57770 57770 199
Width: 199
GlyphClass: 2
Flags: HMW
VStem: 150 50<47 98>
Fore
92 174 m 0
 168 200 172 200 176 200 c 0
 188 200 196 192 200 184 c 1
 200 100 l 1
 200 16 l 1
 192 0 170 -4 156 8 c 1
 150 16 150 14 150 80 c 0
 150 116 150 140 148 140 c 1
 88 120 l 2
 52 108 28 100 24 100 c 0
 8 100 -6 120 4 136 c 1
 8 146 6 144 92 174 c 0
EndSplineSet
EndChar
StartChar: rests.4neomensural
Encoding: 57771 57771 200
Width: 199
GlyphClass: 2
Flags: HMW
HStem: 8 242
VStem: 150 50<56 90 90 90 146 164 164 170>
Fore
168 248 m 1
 168 248 172 250 176 250 c 0
 188 248 196 244 200 232 c 1
 200 16 l 1
 192 0 170 -4 156 8 c 1
 150 16 150 16 150 56 c 2
 150 90 l 1
 148 90 124 76 90 60 c 2
 32 32 l 1
 24 32 l 2
 14 32 4 38 0 48 c 1
 0 54 0 64 2 68 c 0
 8 76 8 76 80 112 c 2
 150 146 l 1
 150 164 l 2
 150 176 150 184 148 184 c 1
 92 156 l 2
 28 124 28 124 16 128 c 0
 8 130 0 140 0 150 c 0
 0 156 4 164 8 168 c 0
 10 170 26 180 88 208 c 2
 168 248 l 1
EndSplineSet
EndChar
StartChar: rests.M3mensural
Encoding: 57772 57772 201
Width: 73
GlyphClass: 2
Flags: HMW
VStem: 2 72<116 134 -240 492>
Fore
48 504 m 1
 72 508 l 2
 74 508 74 492 74 134 c 2
 74 -240 l 1
 52 -246 l 1
 4 -260 l 2
 2 -260 2 -146 2 116 c 2
 2 492 l 1
 14 494 l 2
 20 496 36 500 48 504 c 1
EndSplineSet
EndChar
StartChar: rests.M2mensural
Encoding: 57773 57773 202
Width: 73
GlyphClass: 2
Flags: HMW
VStem: 2 72<-8 8 -240 240>
Fore
48 252 m 1
 72 260 l 1
 74 260 74 246 74 8 c 2
 74 -240 l 1
 52 -246 l 1
 4 -260 l 2
 2 -260 2 -184 2 -8 c 2
 2 240 l 1
 14 244 l 2
 20 246 36 250 48 252 c 1
EndSplineSet
EndChar
StartChar: rests.M1mensural
Encoding: 57774 57774 203
Width: 73
GlyphClass: 2
Flags: HMW
HStem: -8 268<3 73>
VStem: 2 72<116 134 8 240>
Fore
48 252 m 1
 72 260 l 1
 74 260 74 252 74 134 c 2
 74 8 l 1
 60 6 l 1
 40 0 4 -8 4 -8 c 2
 2 -8 2 16 2 116 c 2
 2 240 l 1
 14 244 l 2
 20 246 36 250 48 252 c 1
EndSplineSet
EndChar
StartChar: rests.0mensural
Encoding: 57775 57775 204
Width: 73
GlyphClass: 2
Flags: HMW
HStem: -166 174<2 73>
VStem: 2 72<-148 -88 -88 -68 -148 -8 -148 -8>
Fore
48 4 m 1
 72 8 l 2
 74 8 74 4 74 -68 c 2
 74 -148 l 1
 60 -152 l 1
 50 -152 34 -158 24 -160 c 2
 2 -166 l 1
 2 -88 l 1
 2 -8 l 1
 14 -6 l 2
 20 -4 36 0 48 4 c 1
EndSplineSet
EndChar
StartChar: rests.1mensural
Encoding: 57776 57776 205
Width: 73
GlyphClass: 2
Flags: HMW
HStem: -8 174<3 74>
VStem: 2 72<68 88 88 148 148 148>
Fore
50 160 m 0
 64 164 74 166 74 166 c 1
 74 88 l 1
 74 8 l 1
 60 6 l 1
 40 0 4 -8 4 -8 c 2
 2 -8 2 6 2 68 c 2
 2 148 l 1
 14 150 l 2
 20 152 36 156 50 160 c 0
EndSplineSet
EndChar
StartChar: rests.2mensural
Encoding: 57777 57777 206
Width: 199
GlyphClass: 2
Flags: HMW
HStem: -20 208<0 40>
VStem: 0 64<20 36 36 70 20 88 20 88>
Fore
14 172 m 2
 40 188 l 1
 40 188 156 152 184 144 c 2
 200 138 l 1
 184 128 l 1
 152 108 l 1
 136 100 l 1
 100 112 l 1
 66 122 l 1
 64 70 l 1
 64 20 l 1
 52 12 l 2
 44 8 32 0 20 -8 c 2
 0 -20 l 1
 0 36 l 1
 0 88 l 1
 -12 118 l 2
 -20 134 -24 148 -24 148 c 1
 -24 150 -20 152 14 172 c 2
EndSplineSet
EndChar
StartChar: rests.3mensural
Encoding: 57778 57778 207
Width: 199
GlyphClass: 2
Flags: HMW
HStem: -20 208<104 136>
VStem: 136 64<20 34 34 72 72 88 88 88>
Fore
80 172 m 2
 104 188 l 1
 152 156 l 1
 200 124 l 1
 200 72 l 1
 200 20 l 1
 188 12 l 2
 180 8 166 0 156 -8 c 2
 136 -20 l 1
 136 34 l 1
 136 88 l 1
 122 96 l 2
 114 100 98 112 84 120 c 2
 60 136 l 1
 52 130 l 1
 40 124 6 104 2 100 c 1
 0 100 8 112 20 124 c 2
 38 148 40 152 48 154 c 1
 52 156 64 164 80 172 c 2
EndSplineSet
EndChar
StartChar: rests.4mensural
Encoding: 57779 57779 208
Width: 199
GlyphClass: 2
Flags: HMW
HStem: -20 260<104 136>
Fore
94 236 m 1
 104 240 l 1
 104 240 128 224 152 206 c 2
 200 172 l 1
 200 96 l 1
 200 20 l 1
 188 12 l 2
 180 8 166 0 156 -8 c 2
 136 -20 l 1
 136 12 l 1
 136 40 l 1
 100 64 l 2
 76 84 68 88 68 88 c 1
 66 88 66 86 64 84 c 2
 64 84 60 80 54 78 c 2
 0 48 l 1
 20 78 l 1
 40 108 l 1
 50 116 l 1
 104 148 l 1
 106 146 112 142 120 136 c 0
 136 124 136 124 136 130 c 2
 136 134 l 1
 100 158 l 2
 70 180 68 184 68 180 c 1
 66 180 56 174 44 166 c 0
 16 148 2 140 0 142 c 1
 20 172 l 1
 40 204 l 1
 62 216 l 2
 74 224 88 232 94 236 c 1
EndSplineSet
EndChar
StartChar: noteheads.slneomensural
Encoding: 57780 57780 209
Width: 500
GlyphClass: 2
Flags: HMW
HStem: -138 100<170 330 170 343> 38 100<170 330>
VStem: 0 36<-612 -302 -612 -280 -20 0 0 20 160 172> 464 36<-172 -160 -160 -160 -20 0 0 20 20 20 160 172 172 172>
Fore
8 192 m 1
 14 192 20 194 26 192 c 1
 32 188 34 184 36 172 c 1
 36 160 l 1
 40 150 44 144 52 140 c 0
 56 138 64 138 250 138 c 0
 436 138 444 138 448 140 c 0
 456 144 460 150 464 160 c 1
 464 172 l 1
 466 184 468 188 474 192 c 1
 484 196 494 192 498 184 c 2
 500 180 l 1
 500 0 l 1
 500 -180 l 1
 498 -184 l 2
 494 -192 484 -196 474 -192 c 1
 468 -188 466 -184 464 -172 c 1
 464 -160 l 1
 460 -150 456 -144 448 -140 c 0
 444 -138 436 -138 250 -138 c 0
 64 -138 56 -138 52 -140 c 0
 48 -142 44 -146 40 -152 c 1
 36 -162 36 -148 36 -456 c 0
 36 -768 36 -744 28 -750 c 1
 20 -760 6 -756 0 -744 c 1
 0 -280 l 1
 0 180 l 1
 2 184 l 2
 4 188 6 188 8 192 c 1
448 36 m 1
 444 38 410 38 250 38 c 0
 90 38 56 38 52 36 c 1
 46 36 40 32 38 24 c 1
 36 20 l 1
 36 0 l 1
 36 -20 l 1
 38 -24 l 1
 40 -32 46 -36 52 -36 c 1
 56 -38 90 -38 250 -38 c 0
 410 -38 444 -38 448 -36 c 1
 454 -36 460 -32 462 -24 c 1
 464 -20 l 1
 464 0 l 1
 464 20 l 1
 462 24 l 1
 460 32 454 36 448 36 c 1
EndSplineSet
EndChar
